<?xml version="1.0" encoding="UTF-8"?>
<svg version="1.1" xmlns="http://www.w3.org/2000/svg" width="300" height="400">
<path d="M0 0 C99 0 198 0 300 0 C300 132 300 264 300 400 C201 400 102 400 0 400 C0 268 0 136 0 0 Z " fill="#B79452" transform="translate(0,0)"/>
<path d="M0 0 C4.39660094 0.03975227 8.22072941 0.9827084 12.4375 2.1875 C12.4375 2.5175 12.4375 2.8475 12.4375 3.1875 C13.26999268 3.364021 14.10248535 3.54054199 14.96020508 3.72241211 C18.05229681 4.37891221 21.14405487 5.03695586 24.2355957 5.69604492 C25.57302923 5.98084321 26.91059354 6.26502807 28.24829102 6.54858398 C30.17238182 6.95655125 32.09596363 7.36691673 34.01953125 7.77734375 C35.17686768 8.02347412 36.3342041 8.26960449 37.52661133 8.52319336 C40.4375 9.1875 40.4375 9.1875 43.4375 10.1875 C43.4375 11.1775 43.4375 12.1675 43.4375 13.1875 C40.16801701 14.27732766 37.74629593 14.28723393 34.3125 14.25 C33.23742187 14.24097656 32.16234375 14.23195313 31.0546875 14.22265625 C30.19101563 14.21105469 29.32734375 14.19945312 28.4375 14.1875 C28.1075 14.1875 27.7775 14.1875 27.4375 14.1875 C27.4375 15.5075 27.4375 16.8275 27.4375 18.1875 C29.0875 18.5175 30.7375 18.8475 32.4375 19.1875 C32.1075 18.5275 31.7775 17.8675 31.4375 17.1875 C34.4075 17.1875 37.3775 17.1875 40.4375 17.1875 C40.4375 16.5275 40.4375 15.8675 40.4375 15.1875 C43.57248292 13.32973235 45.81221432 12.98609524 49.4375 13.1875 C49.4375 11.5375 49.4375 9.8875 49.4375 8.1875 C51.7475 8.1875 54.0575 8.1875 56.4375 8.1875 C56.7675 8.8475 57.0975 9.5075 57.4375 10.1875 C56.4475 10.8475 55.4575 11.5075 54.4375 12.1875 C56.4175 12.1875 58.3975 12.1875 60.4375 12.1875 C60.1075 11.1975 59.7775 10.2075 59.4375 9.1875 C59.875 7 59.875 7 60.4375 5.1875 C62.4175 5.1875 64.3975 5.1875 66.4375 5.1875 C66.4375 5.8475 66.4375 6.5075 66.4375 7.1875 C65.7775 7.5175 65.1175 7.8475 64.4375 8.1875 C65.56671875 8.06181641 65.56671875 8.06181641 66.71875 7.93359375 C75.76124192 7.06665581 84.41820583 7.43492732 93.4375 8.1875 C93.4375 7.5275 93.4375 6.8675 93.4375 6.1875 C91.7875 5.8575 90.1375 5.5275 88.4375 5.1875 C88.4375 4.8575 88.4375 4.5275 88.4375 4.1875 C92.7275 4.5175 97.0175 4.8475 101.4375 5.1875 C101.4375 42.8075 101.4375 80.4275 101.4375 119.1875 C95.0025 118.6925 95.0025 118.6925 88.4375 118.1875 C87.7775 116.8675 87.1175 115.5475 86.4375 114.1875 C85.4475 114.6825 85.4475 114.6825 84.4375 115.1875 C78.33064771 115.69640436 75.30790228 115.2650461 70.4375 111.1875 C69.633125 110.1046875 69.633125 110.1046875 68.8125 109 C67.15884661 106.82018417 66.09493734 106.55404308 63.4375 106.1875 C65.65242511 111.17108149 67.58014398 113.75882199 72.4375 116.1875 C72.4375 117.8375 72.4375 119.4875 72.4375 121.1875 C75.0775 121.1875 77.7175 121.1875 80.4375 121.1875 C81.4275 119.2075 81.4275 119.2075 82.4375 117.1875 C83.4275 117.5175 84.4175 117.8475 85.4375 118.1875 C85.7675 119.1775 86.0975 120.1675 86.4375 121.1875 C89.94044871 122.90317661 89.94044871 122.90317661 93.4375 124.1875 C93.1075 125.8375 92.7775 127.4875 92.4375 129.1875 C91.4475 129.5175 90.4575 129.8475 89.4375 130.1875 C89.4375 131.8375 89.4375 133.4875 89.4375 135.1875 C88.04385 135.98300392 86.64746569 136.77371838 85.25 137.5625 C84.47269531 138.00335938 83.69539062 138.44421875 82.89453125 138.8984375 C80.45316421 140.17928189 78.00297325 141.18275583 75.4375 142.1875 C73.70538356 142.99369244 71.97631812 143.80646512 70.25 144.625 C64.32577185 147.33459285 58.03962717 150.1875 51.4375 150.1875 C51.7675 151.8375 52.0975 153.4875 52.4375 155.1875 C55.02111841 154.70983101 57.60439338 154.23042208 60.1875 153.75 C60.91710937 153.61529297 61.64671875 153.48058594 62.3984375 153.34179688 C65.77296675 152.71290733 69.11384694 152.04427827 72.4375 151.1875 C70.10405564 165.65485505 61.4289725 173.47520108 50.86328125 182.8828125 C48.3111888 185.13739277 48.3111888 185.13739277 46.4375 188.1875 C45.7775 188.1875 45.1175 188.1875 44.4375 188.1875 C43.7775 189.8375 43.1175 191.4875 42.4375 193.1875 C41.7775 193.1875 41.1175 193.1875 40.4375 193.1875 C40.71888058 195.48045236 41.0129186 197.77185456 41.3125 200.0625 C41.47492188 201.33867187 41.63734375 202.61484375 41.8046875 203.9296875 C42.13627473 207.25914227 42.13627473 207.25914227 44.4375 209.1875 C44.703125 212.12109375 44.703125 212.12109375 44.6875 215.625 C44.69523437 217.35556641 44.69523437 217.35556641 44.703125 219.12109375 C44.4375 222.1875 44.4375 222.1875 42.4375 225.1875 C40.21486398 226.29670924 37.94953847 227.14420365 35.62890625 228.02734375 C32.95751242 229.44161107 31.85236684 230.51034999 30.4375 233.1875 C30.29023667 236.24666188 30.29023667 236.24666188 30.75 239.4375 C30.86988281 240.51515625 30.98976562 241.5928125 31.11328125 242.703125 C31.27376953 243.93289063 31.27376953 243.93289063 31.4375 245.1875 C30.509375 245.496875 29.58125 245.80625 28.625 246.125 C24.61843114 248.71748573 24.49298535 250.4397018 23.26953125 254.83984375 C21.03726985 261.13838413 15.88203749 264.76883693 10.4375 268.1875 C10.1075 268.8475 9.7775 269.5075 9.4375 270.1875 C5.1475 270.1875 0.8575 270.1875 -3.5625 270.1875 C-3.5625 272.4975 -3.5625 274.8075 -3.5625 277.1875 C0.3975 277.1875 4.3575 277.1875 8.4375 277.1875 C8.4375 278.8375 8.4375 280.4875 8.4375 282.1875 C4.4775 282.1875 0.5175 282.1875 -3.5625 282.1875 C-3.5625 284.4975 -3.5625 286.8075 -3.5625 289.1875 C1.0575 289.1875 5.6775 289.1875 10.4375 289.1875 C10.4375 290.8375 10.4375 292.4875 10.4375 294.1875 C3.8375 294.1875 -2.7625 294.1875 -9.5625 294.1875 C-9.57667969 292.70636719 -9.59085937 291.22523438 -9.60546875 289.69921875 C-9.65236338 287.7577811 -9.70061079 285.81637579 -9.75 283.875 C-9.75580078 282.89853516 -9.76160156 281.92207031 -9.76757812 280.91601562 C-9.81108398 279.50932617 -9.81108398 279.50932617 -9.85546875 278.07421875 C-9.8711792 277.21014404 -9.88688965 276.34606934 -9.90307617 275.45581055 C-10.38657022 272.9160654 -10.38657022 272.9160654 -13.10668945 271.38208008 C-14.32231567 270.79076294 -14.32231567 270.79076294 -15.5625 270.1875 C-15.60008423 271.27019165 -15.60008423 271.27019165 -15.63842773 272.37475586 C-15.75401302 275.625035 -15.87690774 278.87499688 -16 282.125 C-16.03931641 283.26130859 -16.07863281 284.39761719 -16.11914062 285.56835938 C-16.16103516 286.64794922 -16.20292969 287.72753906 -16.24609375 288.83984375 C-16.28275146 289.84007568 -16.31940918 290.84030762 -16.35717773 291.87084961 C-16.5625 294.1875 -16.5625 294.1875 -17.5625 295.1875 C-20.37109375 295.5625 -20.37109375 295.5625 -23.5625 295.1875 C-25.72265625 293.0625 -25.72265625 293.0625 -27.625 290.1875 C-28.29660156 289.19105469 -28.96820313 288.19460938 -29.66015625 287.16796875 C-30.28792969 286.18441406 -30.91570312 285.20085937 -31.5625 284.1875 C-32.36494141 282.94419922 -32.36494141 282.94419922 -33.18359375 281.67578125 C-34.33360942 279.8611673 -35.45209003 278.02661651 -36.5625 276.1875 C-36.8925 282.1275 -37.2225 288.0675 -37.5625 294.1875 C-39.5425 294.1875 -41.5225 294.1875 -43.5625 294.1875 C-43.5625 284.6175 -43.5625 275.0475 -43.5625 265.1875 C-36.5625 265.1875 -36.5625 265.1875 -34.390625 267.29296875 C-33.78734375 268.24816406 -33.1840625 269.20335937 -32.5625 270.1875 C-31.85609375 271.21488281 -31.1496875 272.24226563 -30.421875 273.30078125 C-28.46875 276.26302083 -26.515625 279.22526042 -24.5625 282.1875 C-24.2325 276.2475 -23.9025 270.3075 -23.5625 264.1875 C-21.2525 264.1875 -18.9425 264.1875 -16.5625 264.1875 C-19.15929533 257.96814339 -19.15929533 257.96814339 -22.6875 252.25 C-24.91592561 248.61023818 -25.50053131 245.43476216 -26.16796875 241.26171875 C-26.35771096 239.2047808 -26.35771096 239.2047808 -27.5625 238.1875 C-30.11749309 238.06247358 -32.64680642 238.00145823 -35.20336914 237.98217773 C-36.00330795 237.97227814 -36.80324677 237.96237854 -37.62742615 237.95217896 C-40.28413892 237.92047082 -42.9408696 237.89576992 -45.59765625 237.87109375 C-47.43469215 237.85053225 -49.27172324 237.829536 -51.10874939 237.80812073 C-55.95354318 237.75281696 -60.79838025 237.70344445 -65.64324951 237.65527344 C-70.58316925 237.60511889 -75.52302583 237.54940134 -80.46289062 237.49414062 C-90.16270651 237.38645754 -99.86257714 237.28503527 -109.5625 237.1875 C-111.4845326 208.90221384 -111.4845326 208.90221384 -106.36459351 202.23556519 C-104.07108161 199.87024518 -101.62530326 197.86185079 -99 195.875 C-97.01840349 194.1718842 -95.03791119 192.46748269 -93.05859375 190.76171875 C-92.10065918 189.98103027 -91.14272461 189.2003418 -90.15576172 188.39599609 C-87.26014382 185.9300048 -84.89698819 183.29096598 -82.46899414 180.37817383 C-80.05827521 177.60811607 -77.47970257 175.0228554 -74.875 172.4375 C-74.36433487 171.93011795 -73.85366974 171.4227359 -73.32752991 170.89997864 C-71.20805536 168.79871699 -69.08389417 166.70222185 -66.95996094 164.60546875 C-60.9323383 158.64806366 -55.06284458 152.64265792 -49.5625 146.1875 C-48.23064962 144.74862593 -46.89762561 143.31083552 -45.5625 141.875 C-36.33697521 131.48508859 -30.75176377 121.6263704 -31.171875 107.59765625 C-31.76175113 102.44803767 -32.93522568 98.94541767 -36.5625 95.1875 C-44.67195487 88.85527956 -53.51788748 87.91471539 -63.42529297 88.88037109 C-73.86574265 90.38072358 -86.23322221 94.83908656 -93.73828125 102.37109375 C-95.5625 104.1875 -95.5625 104.1875 -97.5625 104.1875 C-99.47073953 100.13981137 -101.35805473 96.08321756 -103.2265625 92.01708984 C-103.865096 90.63522289 -104.50927552 89.25595033 -105.15917969 87.87939453 C-106.09245406 85.90011081 -107.00502178 83.91238293 -107.9140625 81.921875 C-108.46916504 80.72788086 -109.02426758 79.53388672 -109.59619141 78.30371094 C-110.5625 75.1875 -110.5625 75.1875 -109.93310547 72.91455078 C-107.51698446 69.87008338 -104.39058458 68.2422702 -101.0625 66.3125 C-100.31581055 65.87558838 -99.56912109 65.43867676 -98.79980469 64.98852539 C-89.47080167 59.73877744 -79.12104991 56.03732469 -68.5625 54.1875 C-69.57086062 52.95482652 -69.57086062 52.95482652 -71.62890625 53.08984375 C-72.45261719 53.10144531 -73.27632812 53.11304688 -74.125 53.125 C-74.95128906 53.13402344 -75.77757812 53.14304688 -76.62890625 53.15234375 C-77.26699219 53.16394531 -77.90507813 53.17554688 -78.5625 53.1875 C-78.2325 52.1975 -77.9025 51.2075 -77.5625 50.1875 C-76.9025 50.1875 -76.2425 50.1875 -75.5625 50.1875 C-76.0575 48.2075 -76.0575 48.2075 -76.5625 46.1875 C-75.9025 46.1875 -75.2425 46.1875 -74.5625 46.1875 C-74.8925 44.5375 -75.2225 42.8875 -75.5625 41.1875 C-76.8825 41.1875 -78.2025 41.1875 -79.5625 41.1875 C-80.44140625 35.03515625 -80.44140625 35.03515625 -80.5625 33.1875 C-79.5625 32.1875 -79.5625 32.1875 -77.25 32 C-74.4845797 32.1929363 -72.92204949 32.78924845 -70.5625 34.1875 C-71.0575 35.1775 -71.0575 35.1775 -71.5625 36.1875 C-70.9025 36.1875 -70.2425 36.1875 -69.5625 36.1875 C-69.48 36.744375 -69.3975 37.30125 -69.3125 37.875 C-68.29956205 40.99822533 -66.8467825 42.83976521 -64.5625 45.1875 C-61.92789052 46.06693404 -61.92789052 46.06693404 -59.5625 46.1875 C-60.2225 47.8375 -60.8825 49.4875 -61.5625 51.1875 C-62.8825 51.1875 -64.2025 51.1875 -65.5625 51.1875 C-65.5625 51.8475 -65.5625 52.5075 -65.5625 53.1875 C-61.59978641 52.23644874 -59.03072545 51.52340087 -55.6875 49.125 C-51.52899625 46.54672768 -48.41506351 46.48159476 -43.5625 46.1875 C-44.5525 41.7325 -44.5525 41.7325 -45.5625 37.1875 C-43.5825 37.1875 -41.6025 37.1875 -39.5625 37.1875 C-39.8925 39.8275 -40.2225 42.4675 -40.5625 45.1875 C-39.57636719 45.03410156 -38.59023437 44.88070312 -37.57421875 44.72265625 C-33.51618426 44.1435207 -29.46547327 43.85929002 -25.375 43.625 C-24.67697266 43.58181641 -23.97894531 43.53863281 -23.25976562 43.49414062 C-20.01780571 43.29980811 -16.81188191 43.1875 -13.5625 43.1875 C-12.5725 40.5475 -11.5825 37.9075 -10.5625 35.1875 C-7.89583333 35.85416667 -5.22916667 36.52083333 -2.5625 37.1875 C-3.52115509 34.85674071 -3.52115509 34.85674071 -6.5625 33.1875 C-3.88157309 30.50657309 -2.17082637 30.80079743 1.5625 30.5625 C2.65820312 30.48773438 3.75390625 30.41296875 4.8828125 30.3359375 C5.72585937 30.28695312 6.56890625 30.23796875 7.4375 30.1875 C7.4375 29.8575 7.4375 29.5275 7.4375 29.1875 C6.22191406 29.19910156 5.00632812 29.21070312 3.75390625 29.22265625 C2.16927236 29.23203278 0.58463682 29.24113313 -1 29.25 C-1.80244141 29.25837891 -2.60488281 29.26675781 -3.43164062 29.27539062 C-5.47545221 29.2840143 -7.51933902 29.2397815 -9.5625 29.1875 C-10.5625 28.1875 -10.5625 28.1875 -10.625 24.625 C-10.604375 23.490625 -10.58375 22.35625 -10.5625 21.1875 C-3.8125 17.1875 -3.8125 17.1875 -1.5625 17.1875 C-1.5625 16.5275 -1.5625 15.8675 -1.5625 15.1875 C-4.5325 15.1875 -7.5025 15.1875 -10.5625 15.1875 C-10.8925 16.5075 -11.2225 17.8275 -11.5625 19.1875 C-13.62890625 20.671875 -13.62890625 20.671875 -16.125 21.9375 C-16.95128906 22.36546875 -17.77757812 22.7934375 -18.62890625 23.234375 C-19.26699219 23.54890625 -19.90507812 23.8634375 -20.5625 24.1875 C-20.5625 25.1775 -20.5625 26.1675 -20.5625 27.1875 C-19.5725 27.8475 -18.5825 28.5075 -17.5625 29.1875 C-18.0575 30.6725 -18.0575 30.6725 -18.5625 32.1875 C-20.625 32.875 -20.625 32.875 -22.5625 33.1875 C-22.8925 35.1675 -23.2225 37.1475 -23.5625 39.1875 C-27.18223402 40.50376692 -29.65817131 41.1875 -33.5625 41.1875 C-35.046875 39.76171875 -35.046875 39.76171875 -36.3125 37.875 C-36.74046875 37.26011719 -37.1684375 36.64523438 -37.609375 36.01171875 C-38.5625 34.1875 -38.5625 34.1875 -38.5625 31.1875 C-39.2225 31.1875 -39.8825 31.1875 -40.5625 31.1875 C-40.5625 31.8475 -40.5625 32.5075 -40.5625 33.1875 C-44.07026784 34.79105101 -46.70604879 35.40786864 -50.5625 35.1875 C-51.75537411 31.31065913 -52.5625 28.27128077 -52.5625 24.1875 C-49.47440305 22.42287317 -48.32937864 22.1875 -44.5625 22.1875 C-44.5625 21.5275 -44.5625 20.8675 -44.5625 20.1875 C-43.2425 20.1875 -41.9225 20.1875 -40.5625 20.1875 C-40.5625 19.5275 -40.5625 18.8675 -40.5625 18.1875 C-39.5725 18.1875 -38.5825 18.1875 -37.5625 18.1875 C-37.5625 17.5275 -37.5625 16.8675 -37.5625 16.1875 C-33.09191176 12.1875 -33.09191176 12.1875 -30.5625 12.1875 C-30.5625 11.5275 -30.5625 10.8675 -30.5625 10.1875 C-28.96217863 9.34680585 -27.35708829 8.51518495 -25.75 7.6875 C-24.85667969 7.2234375 -23.96335937 6.759375 -23.04296875 6.28125 C-20.5625 5.1875 -20.5625 5.1875 -17.5625 5.1875 C-17.5625 4.5275 -17.5625 3.8675 -17.5625 3.1875 C-16.17224609 2.98833984 -16.17224609 2.98833984 -14.75390625 2.78515625 C-13.55636719 2.60855469 -12.35882813 2.43195312 -11.125 2.25 C-9.93003906 2.07597656 -8.73507813 1.90195312 -7.50390625 1.72265625 C-3.88242873 1.06376857 -3.87871336 0.20414281 0 0 Z " fill="#D6BC88" transform="translate(198.5625,48.8125)"/>
<path d="M0 0 C6.8125 6.8125 6.8125 6.8125 6.8125 9.8125 C7.4725 9.8125 8.1325 9.8125 8.8125 9.8125 C13.2736793 18.27335729 16.30495882 26.1999776 16.8125 35.8125 C16.86535156 36.75222656 16.91820312 37.69195312 16.97265625 38.66015625 C17.6708699 62.18692069 3.45314994 81.33344271 -11.95657349 97.69030762 C-15.60166013 101.4690208 -19.31248087 105.18053346 -23.04345703 108.87426758 C-24.95544262 110.76776917 -26.85907649 112.66938 -28.76171875 114.57226562 C-34.28085637 120.07500817 -39.78802834 125.54379791 -45.74316406 130.58032227 C-46.94096951 131.60218233 -48.07418605 132.69918605 -49.1875 133.8125 C-47.85659081 133.8279612 -47.85659081 133.8279612 -46.49879456 133.84373474 C-38.15498429 133.94153425 -29.81124785 134.04402315 -21.46756077 134.15183926 C-17.1775379 134.20710736 -12.88750826 134.26053343 -8.59741211 134.30981445 C-4.46064564 134.35740086 -0.32396464 134.40974132 3.81270027 134.46544075 C5.39439847 134.48589034 6.97612012 134.50459903 8.55785942 134.52157402 C10.76579178 134.5455607 12.9735612 134.57562256 15.18139648 134.60717773 C16.44048325 134.62272202 17.69957001 134.6382663 18.99681091 134.65428162 C21.8125 134.8125 21.8125 134.8125 22.8125 135.8125 C22.8125 147.0325 22.8125 158.2525 22.8125 169.8125 C-19.7575 169.8125 -62.3275 169.8125 -106.1875 169.8125 C-106.1875 140.8125 -106.1875 140.8125 -101.62109375 133.44921875 C-98.70898437 130.83398437 -98.70898437 130.83398437 -95.625 128.5 C-93.64340349 126.7968842 -91.66291119 125.09248269 -89.68359375 123.38671875 C-88.72565918 122.60603027 -87.76772461 121.8253418 -86.78076172 121.02099609 C-83.88514382 118.5550048 -81.52198819 115.91596598 -79.09399414 113.00317383 C-76.68327521 110.23311607 -74.10470257 107.6478554 -71.5 105.0625 C-70.98933487 104.55511795 -70.47866974 104.0477359 -69.95252991 103.52497864 C-67.83305536 101.42371699 -65.70889417 99.32722185 -63.58496094 97.23046875 C-57.5573383 91.27306366 -51.68784458 85.26765792 -46.1875 78.8125 C-44.85564962 77.37362593 -43.52262561 75.93583552 -42.1875 74.5 C-32.96197521 64.11008859 -27.37676377 54.2513704 -27.796875 40.22265625 C-28.38675113 35.07303767 -29.56022568 31.57041767 -33.1875 27.8125 C-41.29695487 21.48027956 -50.14288748 20.53971539 -60.05029297 21.50537109 C-70.49074265 23.00572358 -82.85822221 27.46408656 -90.36328125 34.99609375 C-92.1875 36.8125 -92.1875 36.8125 -94.1875 36.8125 C-96.09573953 32.76481137 -97.98305473 28.70821756 -99.8515625 24.64208984 C-100.490096 23.26022289 -101.13427552 21.88095033 -101.78417969 20.50439453 C-102.71745406 18.52511081 -103.63002178 16.53738293 -104.5390625 14.546875 C-105.09416504 13.35288086 -105.64926758 12.15888672 -106.22119141 10.92871094 C-107.1875 7.8125 -107.1875 7.8125 -106.55810547 5.53955078 C-104.14232264 2.4955095 -101.01601883 0.86574539 -97.6875 -1.0625 C-96.93355957 -1.50013672 -96.17961914 -1.93777344 -95.40283203 -2.38867188 C-67.3134371 -18.10155795 -26.06040875 -21.40280378 0 0 Z " fill="#FDFDFC" transform="translate(195.1875,116.1875)"/>
<path d="M0 0 C6.93 0.495 6.93 0.495 14 1 C14 2.32 14 3.64 14 5 C14.99 5.495 14.99 5.495 16 6 C16 7.65 16 9.3 16 11 C13 10 13 10 12 9 C12.39832031 9.66386719 12.79664063 10.32773438 13.20703125 11.01171875 C18 19 18 19 19.63671875 21.76953125 C20.81484638 23.89303693 20.81484638 23.89303693 22 25 C22.0825 26.0725 22.165 27.145 22.25 28.25 C23.15458118 32.77290591 24.68283509 33.91977544 28 37 C28.495 38.03125 28.99 39.0625 29.5 40.125 C31.23660064 43.45348456 32.71711857 44.31647106 36 46 C38 48 38 48 38 52 C38.66 52 39.32 52 40 52 C40 52.66 40 53.32 40 54 C42.58361841 53.52233101 45.16689338 53.04292208 47.75 52.5625 C48.47960937 52.42779297 49.20921875 52.29308594 49.9609375 52.15429688 C53.33546675 51.52540733 56.67634694 50.85677827 60 50 C57.66655564 64.46735505 48.9914725 72.28770108 38.42578125 81.6953125 C35.8736888 83.94989277 35.8736888 83.94989277 34 87 C33.34 87 32.68 87 32 87 C31.34 88.65 30.68 90.3 30 92 C29.34 92 28.68 92 28 92 C28.28138058 94.29295236 28.5754186 96.58435456 28.875 98.875 C29.03742188 100.15117187 29.19984375 101.42734375 29.3671875 102.7421875 C29.69877473 106.07164227 29.69877473 106.07164227 32 108 C32.265625 110.93359375 32.265625 110.93359375 32.25 114.4375 C32.25773437 116.16806641 32.25773437 116.16806641 32.265625 117.93359375 C32 121 32 121 30 124 C27.77736398 125.10920924 25.51203847 125.95670365 23.19140625 126.83984375 C20.52001242 128.25411107 19.41486684 129.32284999 18 132 C17.85273667 135.05916188 17.85273667 135.05916188 18.3125 138.25 C18.43238281 139.32765625 18.55226563 140.4053125 18.67578125 141.515625 C18.83626953 142.74539063 18.83626953 142.74539063 19 144 C18.071875 144.309375 17.14375 144.61875 16.1875 144.9375 C12.18093114 147.52998573 12.05548535 149.2522018 10.83203125 153.65234375 C8.59976985 159.95088413 3.44453749 163.58133693 -2 167 C-2.33 167.66 -2.66 168.32 -3 169 C-7.29 169 -11.58 169 -16 169 C-16 171.31 -16 173.62 -16 176 C-12.04 176 -8.08 176 -4 176 C-4 177.65 -4 179.3 -4 181 C-7.96 181 -11.92 181 -16 181 C-16 183.31 -16 185.62 -16 188 C-11.38 188 -6.76 188 -2 188 C-2 189.65 -2 191.3 -2 193 C-8.6 193 -15.2 193 -22 193 C-22.01417969 191.51886719 -22.02835938 190.03773438 -22.04296875 188.51171875 C-22.08986338 186.5702811 -22.13811079 184.62887579 -22.1875 182.6875 C-22.19330078 181.71103516 -22.19910156 180.73457031 -22.20507812 179.72851562 C-22.23408203 178.79072266 -22.26308594 177.85292969 -22.29296875 176.88671875 C-22.3086792 176.02264404 -22.32438965 175.15856934 -22.34057617 174.26831055 C-22.82407022 171.7285654 -22.82407022 171.7285654 -25.54418945 170.19458008 C-26.35460693 169.80036865 -27.16502441 169.40615723 -28 169 C-28.03758423 170.08269165 -28.03758423 170.08269165 -28.07592773 171.18725586 C-28.19151302 174.437535 -28.31440774 177.68749688 -28.4375 180.9375 C-28.47681641 182.07380859 -28.51613281 183.21011719 -28.55664062 184.38085938 C-28.61948242 186.00024414 -28.61948242 186.00024414 -28.68359375 187.65234375 C-28.73858032 189.15269165 -28.73858032 189.15269165 -28.79467773 190.68334961 C-29 193 -29 193 -30 194 C-32.80859375 194.375 -32.80859375 194.375 -36 194 C-38.16015625 191.875 -38.16015625 191.875 -40.0625 189 C-40.73410156 188.00355469 -41.40570313 187.00710938 -42.09765625 185.98046875 C-43.03931641 184.50513672 -43.03931641 184.50513672 -44 183 C-44.53496094 182.17113281 -45.06992188 181.34226562 -45.62109375 180.48828125 C-46.77110942 178.6736673 -47.88959003 176.83911651 -49 175 C-49.33 180.94 -49.66 186.88 -50 193 C-51.98 193 -53.96 193 -56 193 C-56 183.43 -56 173.86 -56 164 C-49 164 -49 164 -46.828125 166.10546875 C-45.92320312 167.53826172 -45.92320312 167.53826172 -45 169 C-44.29359375 170.02738281 -43.5871875 171.05476562 -42.859375 172.11328125 C-40.90625 175.07552083 -38.953125 178.03776042 -37 181 C-36.67 175.06 -36.34 169.12 -36 163 C-33.69 163 -31.38 163 -29 163 C-31.59679533 156.78064339 -31.59679533 156.78064339 -35.125 151.0625 C-37.33796328 147.4479933 -37.93390369 144.31423891 -38.60546875 140.171875 C-38.90207738 137.96238529 -38.90207738 137.96238529 -40 136 C-24.49 136 -8.98 136 7 136 C6.67 124.78 6.34 113.56 6 102 C-17.76 101.67 -41.52 101.34 -66 101 C-62.15656371 96.515991 -58.92787353 92.87723242 -54.625 89.0625 C-18.61381087 57.14238646 -18.61381087 57.14238646 0 14 C0.06701506 11.56333235 0.08528021 9.12498258 0.0625 6.6875 C0.041875 4.480625 0.02125 2.27375 0 0 Z " fill="#D8BE89" transform="translate(211,150)"/>
<path d="M0 0 C5.36087167 4.21755781 7.98696494 8.58402028 8.96484375 15.3515625 C9.57409052 31.83706329 0.68484898 42.64073665 -10.03515625 54.26953125 C-10.85757813 55.15253906 -11.68 56.03554687 -12.52734375 56.9453125 C-13.52563951 58.03433198 -14.52298756 59.12422076 -15.51953125 60.21484375 C-17.57963743 62.46800431 -19.65281338 64.70780289 -21.73828125 66.9375 C-23.39214273 68.70641271 -24.99080446 70.48690452 -26.56640625 72.328125 C-30.51245248 76.77868856 -30.51245248 76.77868856 -33.62109375 77.2890625 C-35.59296829 77.26048461 -37.56207418 77.10908496 -39.52734375 76.9453125 C-41.01234375 77.9353125 -41.01234375 77.9353125 -42.52734375 78.9453125 C-47.41517828 78.70260623 -50.33156097 77.0766325 -54.21484375 74.1953125 C-55.14683594 73.51984375 -56.07882813 72.844375 -57.0390625 72.1484375 C-60.17767423 69.36950969 -61.89356956 66.57501756 -63.40234375 62.6953125 C-64.43999742 60.65782616 -64.43999742 60.65782616 -67.15234375 60.1953125 C-67.93609375 60.1128125 -68.71984375 60.0303125 -69.52734375 59.9453125 C-69.72140853 58.30024032 -69.9074231 56.65421656 -70.08984375 55.0078125 C-70.19425781 54.09128906 -70.29867187 53.17476562 -70.40625 52.23046875 C-70.44621094 51.47636719 -70.48617187 50.72226563 -70.52734375 49.9453125 C-70.03234375 49.4503125 -70.03234375 49.4503125 -69.52734375 48.9453125 C-69.37743248 44.6728414 -69.45621085 41.26032962 -70.40234375 37.0703125 C-71.09240693 32.28713481 -68.77832741 29.15776346 -66.265625 25.2421875 C-63.08601959 21.04082125 -60.48719298 18.7257712 -55.52734375 16.9453125 C-51.66626918 14.37126279 -51.58414683 12.33510991 -50.52734375 7.9453125 C-51.18734375 7.6153125 -51.84734375 7.2853125 -52.52734375 6.9453125 C-36.17175604 -1.59774262 -17.74408524 -10.49512607 0 0 Z " fill="#D8BE87" transform="translate(159.52734375,141.0546875)"/>
<path d="M0 0 C1.00635498 0.00201416 2.01270996 0.00402832 3.04956055 0.00610352 C23.04160877 0.27080438 23.04160877 0.27080438 31.125 4.3125 C30.795 5.6325 30.465 6.9525 30.125 8.3125 C30.67285156 8.168125 31.22070312 8.02375 31.78515625 7.875 C39.6305418 6.03803168 47.11070553 6.12015693 55.125 6.3125 C55.125 6.9725 55.125 7.6325 55.125 8.3125 C54.51011719 8.50585938 53.89523438 8.69921875 53.26171875 8.8984375 C52.45347656 9.15882812 51.64523438 9.41921875 50.8125 9.6875 C49.61173828 10.07035156 49.61173828 10.07035156 48.38671875 10.4609375 C45.89775472 11.30081811 45.89775472 11.30081811 43.125 13.3125 C38.56944444 14.53472222 38.56944444 14.53472222 36.125 13.3125 C36.62 14.7975 36.62 14.7975 37.125 16.3125 C35.475 16.3125 33.825 16.3125 32.125 16.3125 C32.125 16.9725 32.125 17.6325 32.125 18.3125 C33.445 18.3125 34.765 18.3125 36.125 18.3125 C36.125 18.9725 36.125 19.6325 36.125 20.3125 C34.475 20.3125 32.825 20.3125 31.125 20.3125 C31.125 20.9725 31.125 21.6325 31.125 22.3125 C32.176875 22.43625 33.22875 22.56 34.3125 22.6875 C37.58458771 23.22390782 40.13036076 23.95130035 43.125 25.3125 C39.51542389 28.6035841 36.99862847 29.85913921 32.125 30.3125 C32.125 30.9725 32.125 31.6325 32.125 32.3125 C31.135 32.8075 31.135 32.8075 30.125 33.3125 C30.62 35.7875 30.62 35.7875 31.125 38.3125 C28.79166667 38.3125 26.45833333 38.3125 24.125 38.3125 C24.785 38.6425 25.445 38.9725 26.125 39.3125 C26.125 39.9725 26.125 40.6325 26.125 41.3125 C20.80785587 44.38008315 15.26619188 44.43638971 9.25 44.375 C8.09757812 44.36597656 6.94515625 44.35695312 5.7578125 44.34765625 C4.88898437 44.33605469 4.02015625 44.32445312 3.125 44.3125 C3.125 44.9725 3.125 45.6325 3.125 46.3125 C0.65 46.8075 0.65 46.8075 -1.875 47.3125 C-1.875 47.9725 -1.875 48.6325 -1.875 49.3125 C-4.61405345 50.68202673 -6.84587332 50.43871361 -9.875 50.3125 C-10.535 49.9825 -11.195 49.6525 -11.875 49.3125 C-11.875 49.9725 -11.875 50.6325 -11.875 51.3125 C-14.35 51.8075 -14.35 51.8075 -16.875 52.3125 C-16.9575 52.89 -17.04 53.4675 -17.125 54.0625 C-18.08538228 56.94364684 -19.73654473 58.17404473 -21.875 60.3125 C-22.93511943 62.28129323 -23.94970849 64.27685867 -24.875 66.3125 C-26.87454746 66.35504356 -28.87541636 66.35330783 -30.875 66.3125 C-31.205 65.9825 -31.535 65.6525 -31.875 65.3125 C-32.98875 65.209375 -34.1025 65.10625 -35.25 65 C-38.875 64.3125 -38.875 64.3125 -40.58027649 62.60772705 C-42.15288111 59.81988498 -42.23793596 58.09136302 -42.21557617 54.90136719 C-42.21534958 53.82054871 -42.21512299 52.73973022 -42.21488953 51.62615967 C-42.19940567 50.46562073 -42.18392181 49.30508179 -42.16796875 48.109375 C-42.16372391 46.91644836 -42.15947906 45.72352173 -42.15510559 44.4944458 C-42.13831023 40.68356781 -42.10065518 36.87321822 -42.0625 33.0625 C-42.04745433 30.4791743 -42.03376572 27.89584032 -42.02148438 25.3125 C-41.98840369 18.97896301 -41.93661433 12.6458211 -41.875 6.3125 C-38.575 6.6425 -35.275 6.9725 -31.875 7.3125 C-31.875 6.6525 -31.875 5.9925 -31.875 5.3125 C-32.535 4.9825 -33.195 4.6525 -33.875 4.3125 C-33.545 3.6525 -33.215 2.9925 -32.875 2.3125 C-31.87339844 2.33570313 -30.87179688 2.35890625 -29.83984375 2.3828125 C-28.49740336 2.40158789 -27.15495482 2.41978618 -25.8125 2.4375 C-24.50152344 2.46070313 -23.19054687 2.48390625 -21.83984375 2.5078125 C-17.9329984 2.47306959 -17.9329984 2.47306959 -14.55859375 1.32421875 C-9.65566563 -0.02239671 -5.06141034 -0.02729995 0 0 Z " fill="#D3B988" transform="translate(41.875,14.6875)"/>
<path d="M0 0 C1.32 0.33 2.64 0.66 4 1 C4 2.65 4 4.3 4 6 C4.99 6.33 5.98 6.66 7 7 C6.67 8.65 6.34 10.3 6 12 C9.42052054 13.02615616 12.65654948 13.94612541 16.1875 14.5 C19 15 19 15 20.83984375 15.97265625 C23.3652073 17.1736881 25.61233218 17.53122532 28.375 17.9375 C32.76885142 18.68823753 36.10946328 19.75213434 40 22 C40.69351563 22.26425781 41.38703125 22.52851563 42.1015625 22.80078125 C47.55310503 24.98717728 47.55310503 24.98717728 48.8359375 27.89453125 C49.41432946 31.35845645 49.33612903 33.35975423 47.6875 36.5 C46 38 46 38 44 38 C43.690625 38.78375 43.38125 39.5675 43.0625 40.375 C42 43 42 43 41 45 C40.01 45 39.02 45 38 45 C38.02320313 45.84304688 38.04640625 46.68609375 38.0703125 47.5546875 C38.08835938 48.65039062 38.10640625 49.74609375 38.125 50.875 C38.14820313 51.96554687 38.17140625 53.05609375 38.1953125 54.1796875 C38 57 38 57 36 59 C35.525625 60.134375 35.05125 61.26875 34.5625 62.4375 C32.31421446 67.56359102 32.31421446 67.56359102 30 69 C28.09020809 69.19756468 26.1802996 69.39414494 24.26953125 69.58203125 C19.98253431 70.37154704 16.25262086 72.08484753 13 75 C12.32598167 77.08645164 12.25120737 78.81024269 12.23046875 80.99609375 C11.80948739 84.65649098 9.56835172 86.49429101 7 89 C6.34 89 5.68 89 5 89 C4.731875 89.78375 4.46375 90.5675 4.1875 91.375 C3 94 3 94 0 96 C0 64.32 0 32.64 0 0 Z " fill="#D8BD88" transform="translate(0,217)"/>
<path d="M0 0 C4.13382552 1.34923472 7.06735212 2.75003744 9.69921875 6.27734375 C12.17797577 11.46561294 12.04765299 17.78381798 10.2734375 23.23046875 C8.25119379 27.08588461 6.07079058 29.52758639 2 31 C-2.62594422 31.70285664 -6.97150736 32.08090194 -11.19921875 29.828125 C-14.59715307 27.06418681 -17.10569307 24.37216719 -18 20 C-18.40554416 15.46391344 -18.58286473 11.45716182 -16.875 7.1875 C-11.6462551 1.08729762 -8.14672237 -1.48622638 0 0 Z " fill="#F9F8F5" transform="translate(138,313)"/>
<path d="M0 0 C7 0 7 0 9.171875 2.10546875 C9.77515625 3.06066406 10.3784375 4.01585937 11 5 C11.70640625 6.02738281 12.4128125 7.05476563 13.140625 8.11328125 C16.0703125 12.55664062 16.0703125 12.55664062 19 17 C19.33 11.39 19.66 5.78 20 0 C21.98 0 23.96 0 26 0 C26 9.9 26 19.8 26 30 C20 30 20 30 17.83984375 27.875 C17.21207031 26.92625 16.58429688 25.9775 15.9375 25 C15.26589844 24.00355469 14.59429687 23.00710938 13.90234375 21.98046875 C13.27457031 20.99691406 12.64679688 20.01335937 12 19 C11.46503906 18.17113281 10.93007812 17.34226562 10.37890625 16.48828125 C9.22889058 14.6736673 8.11040997 12.83911651 7 11 C6.67 16.94 6.34 22.88 6 29 C4.02 29 2.04 29 0 29 C0 19.43 0 9.86 0 0 Z " fill="#F9F9F6" transform="translate(155,314)"/>
<path d="M0 0 C6.93 0 13.86 0 21 0 C21 6.73197782 21 6.73197782 17.3125 10.9375 C16.58675781 11.78957031 15.86101562 12.64164062 15.11328125 13.51953125 C14.41589844 14.33808594 13.71851562 15.15664063 13 16 C11.27956888 18.30071906 9.64081574 20.64132737 8 23 C14.93 23.495 14.93 23.495 22 24 C22 25.98 22 27.96 22 30 C14.08 30 6.16 30 -2 30 C-2 24 -2 24 -0.96875 22.26953125 C-0.4840625 21.78871094 0.000625 21.30789063 0.5 20.8125 C4.81513537 16.22895908 8.35251825 11.11943505 12 6 C8.04 5.67 4.08 5.34 0 5 C0 3.35 0 1.7 0 0 Z " fill="#F6F4EF" transform="translate(95,314)"/>
<path d="M0 0 C0.99 0.33 1.98 0.66 3 1 C4.50696773 8.81689144 3.15749701 14.02830062 0.3125 21.375 C-0.21633789 22.85033203 -0.21633789 22.85033203 -0.75585938 24.35546875 C-3.81044968 32.5196571 -3.81044968 32.5196571 -8 35 C-10.625 35 -10.625 35 -13 34 C-14.93306809 30.68616899 -15.31637054 27.79644644 -15 24 C-14.67 23.67 -14.34 23.34 -14 23 C-13.96834118 20.47633967 -14.06824712 17.96729895 -14.16015625 15.4453125 C-14 13 -14 13 -12 10 C-8.71083066 8.44511995 -5.44992381 7.1499746 -2 6 C-2 5.01 -2 4.02 -2 3 C-1.34 3 -0.68 3 0 3 C0 2.01 0 1.02 0 0 Z " fill="#D2B986" transform="translate(265,262)"/>
<path d="M0 0 C6.27 0 12.54 0 19 0 C19 1.65 19 3.3 19 5 C14.71 5 10.42 5 6 5 C6 7.31 6 9.62 6 12 C9.96 12 13.92 12 18 12 C18 13.65 18 15.3 18 17 C14.04 17 10.08 17 6 17 C6 19.31 6 21.62 6 24 C10.62 24 15.24 24 20 24 C20 25.65 20 27.3 20 29 C13.4 29 6.8 29 0 29 C0 19.43 0 9.86 0 0 Z " fill="#FAFAF7" transform="translate(189,314)"/>
<path d="M0 0 C-0.99 1.65 -1.98 3.3 -3 5 C-1.93458984 5.59748047 -1.93458984 5.59748047 -0.84765625 6.20703125 C0.07144531 6.73683594 0.99054688 7.26664063 1.9375 7.8125 C2.85402344 8.33457031 3.77054688 8.85664062 4.71484375 9.39453125 C7 11 7 11 8 14 C2.54084479 14.93513307 -1.65246683 15.04080492 -6.96484375 13.48828125 C-13.30575841 11.96694856 -18.86283334 13.14727044 -25 15 C-28.4375 15.125 -28.4375 15.125 -31 15 C-31.33 14.34 -31.66 13.68 -32 13 C-31.01 12.67 -30.02 12.34 -29 12 C-28.37907282 10.18703385 -28.37907282 10.18703385 -28 8 C-26.83577546 4.59048527 -25.74162839 2.36776997 -23 0 C-19.5625 0.8125 -19.5625 0.8125 -16 2 C-15.67 2.99 -15.34 3.98 -15 5 C-11.535 4.505 -11.535 4.505 -8 4 C-8.66 3.01 -9.32 2.02 -10 1 C-3.71428571 -1.42857143 -3.71428571 -1.42857143 0 0 Z " fill="#B59455" transform="translate(235,112)"/>
<path d="M0 0 C0 0.66 0 1.32 0 2 C-5.75 3.125 -5.75 3.125 -8 2 C-8.40929374 5.83007001 -8.40929374 5.83007001 -6.6875 7.6875 C-4.92199528 9.21090164 -4.92199528 9.21090164 -2 10 C-2.04125 10.94875 -2.0825 11.8975 -2.125 12.875 C-2.34973818 16.10244856 -2.34973818 16.10244856 0 18 C0.125 21.625 0.125 21.625 0 25 C-4.27547053 25.34203764 -6.59660493 25.21269922 -10.4375 23.1875 C-11.7059375 22.1046875 -11.7059375 22.1046875 -13 21 C-13 20.01 -13 19.02 -13 18 C-12.34 18 -11.68 18 -11 18 C-11.27617533 16.05925139 -11.27617533 16.05925139 -12 14 C-12.99 13.34 -13.98 12.68 -15 12 C-18 5.88888889 -18 5.88888889 -18 2 C-12.41985108 -2.14525348 -6.37580416 -3.18790208 0 0 Z " fill="#B39454" transform="translate(274,114)"/>
<path d="M0 0 C3.76120287 1.18408239 4.45193116 1.75118029 6.375 5.0625 C7.33088184 10.40747264 7.28921732 14.73035476 4.1875 19.25 C1.375 21.0625 1.375 21.0625 -1.125 21.6875 C-5.03572561 20.7098186 -6.33764548 19.39550231 -8.625 16.0625 C-9.63940387 10.64964097 -9.53983633 6.50406027 -6.5625 1.8125 C-3.625 0.0625 -3.625 0.0625 0 0 Z " fill="#BB9A59" transform="translate(135.625,317.9375)"/>
<path d="M0 0 C0.5775 0.639375 1.155 1.27875 1.75 1.9375 C3.74934277 4.12951587 3.74934277 4.12951587 5.984375 4.390625 C8.7005188 5.21178475 9.15495067 6.36323787 10.5 8.8125 C11.97217791 11.36609254 13.11395348 13.11078811 15.25 15.1875 C17 17 17 17 17.4375 19.5 C18.22746769 23.0109675 20.1629191 23.9059641 23 26 C25.85992377 29.17530384 26.74377427 32.1155825 27.6875 36.25 C27.93886719 37.32765625 28.19023437 38.4053125 28.44921875 39.515625 C28.63097656 40.33546875 28.81273437 41.1553125 29 42 C28.3915625 41.69320312 27.783125 41.38640625 27.15625 41.0703125 C25.61924523 40.30737897 24.06480289 39.5791613 22.5 38.875 C19.41394592 36.56045944 18.5211703 34.30732656 16.9765625 30.84765625 C16.0740693 28.80633804 16.0740693 28.80633804 13.8125 27.4375 C10.99687522 25.20441828 11.43006445 22.44051559 11 19 C10.01414217 17.98605506 9.0120614 16.98779134 8 16 C7.11397486 14.3819236 6.28356601 12.73260063 5.5 11.0625 C4.26128347 8.43022737 3.10018269 6.13255305 1.34375 3.80859375 C0 2 0 2 0 0 Z " fill="#B49250" transform="translate(221,156)"/>
<path d="M0 0 C1.47906892 -0.02689216 2.95827483 -0.04634621 4.4375 -0.0625 C5.26121094 -0.07410156 6.08492187 -0.08570313 6.93359375 -0.09765625 C9 0 9 0 10 1 C11.52519276 0.91062197 13.04681929 0.75462854 14.5625 0.5625 C15.80193359 0.40974609 15.80193359 0.40974609 17.06640625 0.25390625 C18.02353516 0.12822266 18.02353516 0.12822266 19 0 C18.91174084 1.39692939 18.80355166 2.79260452 18.6875 4.1875 C18.62949219 4.96480469 18.57148438 5.74210938 18.51171875 6.54296875 C17.86416642 9.65220859 17.0328638 11.54416242 15 14 C12.1171875 14.5234375 12.1171875 14.5234375 8.875 14.375 C7.79992187 14.34148437 6.72484375 14.30796875 5.6171875 14.2734375 C3 14 3 14 2 13 C1.60333773 10.81980521 1.25684763 8.6303537 0.9375 6.4375 C0.76089844 5.23996094 0.58429688 4.04242188 0.40234375 2.80859375 C0.26957031 1.88175781 0.13679687 0.95492187 0 0 Z " fill="#B49556" transform="translate(209,137)"/>
<path d="M0 0 C4.17172323 1.85022035 5.70586529 4.02349984 8 8 C8.66 9.98 9.32 11.96 10 14 C2.08 14 -5.84 14 -14 14 C-7.25 6.125 -7.25 6.125 -3.625 3.0625 C-2.93664062 2.47597656 -2.24828125 1.88945312 -1.5390625 1.28515625 C-1.03117188 0.86105469 -0.52328125 0.43695313 0 0 Z " fill="#B79759" transform="translate(159,237)"/>
<path d="M0 0 C16.5021628 3.20959497 16.5021628 3.20959497 23 7 C23 7.33 23 7.66 23 8 C21.56344146 8.08131463 20.1255517 8.13933559 18.6875 8.1875 C17.88699219 8.22230469 17.08648437 8.25710937 16.26171875 8.29296875 C13.49463528 7.93453825 12.80984773 7.03407665 11 5 C9.01633305 4.86693843 9.01633305 4.86693843 7 6 C6.195625 6.86625 5.39125 7.7325 4.5625 8.625 C2 11 2 11 -0.5625 11 C-3.08181315 9.96643563 -4.93238905 8.76129821 -7 7 C-5.02 7 -3.04 7 -1 7 C-1 6.34 -1 5.68 -1 5 C-1.68707031 5.10699219 -2.37414062 5.21398437 -3.08203125 5.32421875 C-3.98308594 5.44410156 -4.88414062 5.56398438 -5.8125 5.6875 C-6.70582031 5.81511719 -7.59914062 5.94273438 -8.51953125 6.07421875 C-11 6 -11 6 -12.82421875 4.64453125 C-14 3 -14 3 -14 1 C-3.75 1 -3.75 1 0 2 C0 1.34 0 0.68 0 0 Z " fill="#CFB37F" transform="translate(173,26)"/>
<path d="M0 0 C0.88300781 0.00902344 1.76601563 0.01804688 2.67578125 0.02734375 C3.67158203 0.04474609 3.67158203 0.04474609 4.6875 0.0625 C4.6875 0.7225 4.6875 1.3825 4.6875 2.0625 C3.92566406 2.23265625 3.16382813 2.4028125 2.37890625 2.578125 C-7.38622199 4.73423815 -7.38622199 4.73423815 -16.3125 9.0625 C-17.57003969 11.10125182 -17.57003969 11.10125182 -18.3125 13.0625 C-15.3425 13.5575 -15.3425 13.5575 -12.3125 14.0625 C-12.3125 14.7225 -12.3125 15.3825 -12.3125 16.0625 C-18.09057024 16.2983396 -22.82574804 15.93033046 -28.3125 14.0625 C-28.3125 13.0725 -28.3125 12.0825 -28.3125 11.0625 C-25.42415997 8.95479241 -23.92787605 8.0625 -20.3125 8.0625 C-20.3125 7.0725 -20.3125 6.0825 -20.3125 5.0625 C-18.75229133 4.41115075 -17.18921421 3.76667036 -15.625 3.125 C-14.75488281 2.76535156 -13.88476562 2.40570313 -12.98828125 2.03515625 C-8.59419474 0.43788977 -4.66174477 -0.0621566 0 0 Z " fill="#CCB27F" transform="translate(295.3125,35.9375)"/>
<path d="M0 0 C0.99 0.33 1.98 0.66 3 1 C3 1.66 3 2.32 3 3 C3.86882812 2.77183594 4.73765625 2.54367188 5.6328125 2.30859375 C6.78523438 2.02113281 7.93765625 1.73367187 9.125 1.4375 C10.26195313 1.14746094 11.39890625 0.85742188 12.5703125 0.55859375 C16.12478919 -0.02032444 18.54739921 0.00424992 22 1 C22.66 1.99 23.32 2.98 24 4 C16.64267167 7.25420292 10.06274377 9.68758126 2 7 C1.67 6.34 1.34 5.68 1 5 C-1.01669827 3.86649466 -1.01669827 3.86649466 -3 3 C-2.34 3 -1.68 3 -1 3 C-0.67 2.01 -0.34 1.02 0 0 Z " fill="#CFB47F" transform="translate(73,64)"/>
<path d="M0 0 C-3.60957611 3.2910841 -6.12637153 4.54663921 -11 5 C-11 5.66 -11 6.32 -11 7 C-11.99 7.495 -11.99 7.495 -13 8 C-12.67 9.65 -12.34 11.3 -12 13 C-14.375 13.125 -14.375 13.125 -17 13 C-17.66 12.34 -18.32 11.68 -19 11 C-19 9.68 -19 8.36 -19 7 C-19.99 6.67 -20.98 6.34 -22 6 C-22 5.67 -22 5.34 -22 5 C-19.03 5.33 -16.06 5.66 -13 6 C-13 5.34 -13 4.68 -13 4 C-12.01 3.34 -11.02 2.68 -10 2 C-9.67 1.01 -9.34 0.02 -9 -1 C-5.23375329 -2.25541557 -3.62811066 -1.37061958 0 0 Z " fill="#CBAF7A" transform="translate(85,40)"/>
<path d="M0 0 C0.66 0 1.32 0 2 0 C5.875 6.625 5.875 6.625 7 10 C7.99 10.33 8.98 10.66 10 11 C9.01 11 8.02 11 7 11 C7 11.66 7 12.32 7 13 C4.69 13.33 2.38 13.66 0 14 C0 11.69 0 9.38 0 7 C-0.639375 6.896875 -1.27875 6.79375 -1.9375 6.6875 C-2.618125 6.460625 -3.29875 6.23375 -4 6 C-4.33 5.01 -4.66 4.02 -5 3 C-3.35 2.67 -1.7 2.34 0 2 C0 1.34 0 0.68 0 0 Z " fill="#BA9B5D" transform="translate(158,80)"/>
<path d="M0 0 C-0.63068861 2.94321349 -1.36117443 5.45982037 -3 8 C-5.1640625 8.828125 -5.1640625 8.828125 -7.625 9.25 C-8.44226563 9.39953125 -9.25953125 9.5490625 -10.1015625 9.703125 C-11.04128906 9.85007812 -11.04128906 9.85007812 -12 10 C-11.67 7.69 -11.34 5.38 -11 3 C-10.34 3 -9.68 3 -9 3 C-8.67 2.01 -8.34 1.02 -8 0 C-4.71023192 -1.09658936 -3.28696233 -0.79953138 0 0 Z " fill="#D3B581" transform="translate(119,90)"/>
<path d="M0 0 C1.299375 0.2475 1.299375 0.2475 2.625 0.5 C8.69761822 1.39266231 14.87966132 1.07639812 21 1 C21 1.66 21 2.32 21 3 C20.34 3 19.68 3 19 3 C19.33 3.99 19.66 4.98 20 6 C17.03 6 14.06 6 11 6 C11.99 6.66 12.98 7.32 14 8 C8.25 7.125 8.25 7.125 6 6 C6 4.68 6 3.36 6 2 C3.03 1.505 3.03 1.505 0 1 C0 0.67 0 0.34 0 0 Z " fill="#BA9C5D" transform="translate(220,61)"/>
<path d="M0 0 C1.25425781 0.00902344 2.50851563 0.01804687 3.80078125 0.02734375 C4.75339844 0.03894531 5.70601562 0.05054688 6.6875 0.0625 C6.6875 0.3925 6.6875 0.7225 6.6875 1.0625 C4.0475 1.3925 1.4075 1.7225 -1.3125 2.0625 C-1.6425 3.3825 -1.9725 4.7025 -2.3125 6.0625 C-5.6125 5.7325 -8.9125 5.4025 -12.3125 5.0625 C-12.3125 3.7425 -12.3125 2.4225 -12.3125 1.0625 C-8.15623632 0.05323521 -4.26884906 -0.03989579 0 0 Z " fill="#BA9B60" transform="translate(12.3125,15.9375)"/>
<path d="M0 0 C1.175625 0.01353516 1.175625 0.01353516 2.375 0.02734375 C4.29180055 0.05071937 6.20844191 0.08658347 8.125 0.125 C8.125 0.785 8.125 1.445 8.125 2.125 C7.07699219 2.18558594 6.02898437 2.24617187 4.94921875 2.30859375 C3.57029952 2.39301738 2.19139395 2.47766447 0.8125 2.5625 C-0.22293945 2.62147461 -0.22293945 2.62147461 -1.27929688 2.68164062 C-4.34661535 2.87427415 -6.94468152 3.14822717 -9.875 4.125 C-12.20799825 4.16454234 -14.54208189 4.16901732 -16.875 4.125 C-12.22545637 -0.52454363 -6.1431272 -0.13535704 0 0 Z " fill="#C0A36A" transform="translate(141.875,136.875)"/>
<path d="M0 0 C0.78052734 -0.00773437 1.56105469 -0.01546875 2.36523438 -0.0234375 C8.18414502 -0.00335498 8.18414502 -0.00335498 10.4375 2.25 C7.44976752 3.74386624 4.3971842 3.39371602 1.125 3.375 C-0.19113281 3.37757812 -1.50726563 3.38015625 -2.86328125 3.3828125 C-5.92170294 3.27300644 -8.6016392 2.97160244 -11.5625 2.25 C-7.69957629 -0.32528248 -4.47303122 -0.04454471 0 0 Z " fill="#D3B885" transform="translate(190.5625,24.75)"/>
<path d="M0 0 C1.54204102 0.00966797 1.54204102 0.00966797 3.11523438 0.01953125 C4.18708984 0.03628906 5.25894531 0.05304687 6.36328125 0.0703125 C7.44673828 0.07933594 8.53019531 0.08835937 9.64648438 0.09765625 C12.32313835 0.1212391 14.99934922 0.15415124 17.67578125 0.1953125 C13.5419953 2.9511698 11.62374579 3.30287695 6.67578125 3.1953125 C6.67578125 2.5353125 6.67578125 1.8753125 6.67578125 1.1953125 C6.134375 1.35902344 5.59296875 1.52273437 5.03515625 1.69140625 C2.27355532 2.28121837 -0.25240014 2.29140558 -3.07421875 2.2578125 C-4.0590625 2.24878906 -5.04390625 2.23976563 -6.05859375 2.23046875 C-6.80625 2.21886719 -7.55390625 2.20726562 -8.32421875 2.1953125 C-4.97302356 -0.03881763 -3.90644325 -0.04316512 0 0 Z " fill="#C2A46E" transform="translate(51.32421875,19.8046875)"/>
<path d="M0 0 C2.97 0 5.94 0 9 0 C8.8125 2.375 8.8125 2.375 8 5 C5.31509973 6.59642719 3.78565071 7.12740282 0.6875 6.625 C0.130625 6.41875 -0.42625 6.2125 -1 6 C-1 5.34 -1 4.68 -1 4 C0.65 4 2.3 4 4 4 C4 3.34 4 2.68 4 2 C2.68 2 1.36 2 0 2 C0 1.34 0 0.68 0 0 Z " fill="#C6A86F" transform="translate(74,31)"/>
<path d="M0 0 C-3.52304398 2.19628061 -6.20070257 2.16977818 -10.296875 1.9765625 C-11.50214844 1.925 -12.70742188 1.8734375 -13.94921875 1.8203125 C-15.20347656 1.75585938 -16.45773438 1.69140625 -17.75 1.625 C-19.01972656 1.56828125 -20.28945313 1.5115625 -21.59765625 1.453125 C-24.73234615 1.31171042 -27.86622836 1.16030009 -31 1 C-31 0.67 -31 0.34 -31 0 C-20.52650256 -0.76405986 -10.46319307 -1.20160344 0 0 Z " fill="#CBAF7B" transform="translate(67,17)"/>
<path d="M0 0 C0.66 0.66 1.32 1.32 2 2 C-0.83269666 3.41634833 -3.47466438 3.3463005 -6.625 3.5625 C-7.81351563 3.64628906 -9.00203125 3.73007813 -10.2265625 3.81640625 C-11.59941406 3.90728516 -11.59941406 3.90728516 -13 4 C-13 3.34 -13 2.68 -13 2 C-13.99 1.67 -14.98 1.34 -16 1 C-10.66272119 0.32225031 -5.38819418 -0.32988944 0 0 Z " fill="#B9995B" transform="translate(206,77)"/>
<path d="M0 0 C0.66 1.32 1.32 2.64 2 4 C1.01 4 0.02 4 -1 4 C-1 4.99 -1 5.98 -1 7 C-2.98 7 -4.96 7 -7 7 C-6.42655063 4.13275314 -6.1385485 3.1385485 -4 1 C-1.875 0.375 -1.875 0.375 0 0 Z " fill="#B49553" transform="translate(295,113)"/>
<path d="M0 0 C0.33 0.66 0.66 1.32 1 2 C2.98 1.67 4.96 1.34 7 1 C7 1.66 7 2.32 7 3 C7.99 3.33 8.98 3.66 10 4 C9.01 4 8.02 4 7 4 C7 4.66 7 5.32 7 6 C4.69 6.33 2.38 6.66 0 7 C0 4.69 0 2.38 0 0 Z " fill="#C2A368" transform="translate(158,87)"/>
<path d="M0 0 C2.31 0 4.62 0 7 0 C7.33 0.66 7.66 1.32 8 2 C6.68 2.33 5.36 2.66 4 3 C3.67 4.32 3.34 5.64 3 7 C0.36 6.67 -2.28 6.34 -5 6 C-5 5.67 -5 5.34 -5 5 C-3.35 5 -1.7 5 0 5 C0 3.35 0 1.7 0 0 Z " fill="#CAAF77" transform="translate(248,57)"/>
<path d="M0 0 C-3.88309282 3.64775386 -6.71201818 4.58525633 -12 5 C-10.6875 2.0625 -10.6875 2.0625 -9 -1 C-5.23375329 -2.25541557 -3.62811066 -1.37061958 0 0 Z " fill="#C2A368" transform="translate(85,40)"/>
<path d="M0 0 C0.99 0.33 1.98 0.66 3 1 C3.59732819 3.76264289 4 6.16032769 4 9 C2.35 8.67 0.7 8.34 -1 8 C-1.04241723 5.66705225 -1.04092937 3.33297433 -1 1 C-0.67 0.67 -0.34 0.34 0 0 Z " fill="#BE9C5C" transform="translate(115,81)"/>
<path d="M0 0 C-2.82345231 2.82345231 -5.07333391 2.67277783 -9 3 C-12.4375 2.5625 -12.4375 2.5625 -15 2 C-15 1.34 -15 0.68 -15 0 C-13.9275 0.020625 -12.855 0.04125 -11.75 0.0625 C-8.22900044 0.14939907 -8.22900044 0.14939907 -5.8125 -0.5625 C-3.58481439 -1.10021722 -2.15542525 -0.69281526 0 0 Z " fill="#BEA067" transform="translate(264,24)"/>
<path d="M0 0 C1.32 0 2.64 0 4 0 C3.25 2.9375 3.25 2.9375 2 6 C-0.125 6.875 -0.125 6.875 -2 7 C-1.125 1.125 -1.125 1.125 0 0 Z " fill="#B59754" transform="translate(220,231)"/>
<path d="M0 0 C2.31 0 4.62 0 7 0 C6.67 0.66 6.34 1.32 6 2 C6.99 2.66 7.98 3.32 9 4 C1.25 4.125 1.25 4.125 -1 3 C-0.67 2.01 -0.34 1.02 0 0 Z " fill="#C5AA74" transform="translate(279,22)"/>
<path d="M0 0 C1.98 0 3.96 0 6 0 C6 0.66 6 1.32 6 2 C5.01 2.495 5.01 2.495 4 3 C4.66 3.66 5.32 4.32 6 5 C4.02 5.33 2.04 5.66 0 6 C-1.24546405 3.50907189 -0.7767578 2.58919267 0 0 Z " fill="#C2A872" transform="translate(259,54)"/>
<path d="M0 0 C-0.33 0.99 -0.66 1.98 -1 3 C-4.3 2.67 -7.6 2.34 -11 2 C-6.99947077 -2.00052923 -4.93483629 -2.9961506 0 0 Z " fill="#C4A870" transform="translate(11,19)"/>
<path d="M0 0 C0.99 0.33 1.98 0.66 3 1 C2.67 1.66 2.34 2.32 2 3 C2.99 3.66 3.98 4.32 5 5 C5 5.66 5 6.32 5 7 C3.68 7.33 2.36 7.66 1 8 C1 7.34 1 6.68 1 6 C0.01 5.34 -0.98 4.68 -2 4 C-1.34 2.68 -0.68 1.36 0 0 Z " fill="#C2A366" transform="translate(70,64)"/>
<path d="M0 0 C1 3 1 3 -0.6875 6.625 C-2.63475967 9.84781653 -2.63475967 9.84781653 -5.25 10.9375 C-5.8275 10.958125 -6.405 10.97875 -7 11 C-4.79080336 7.24436571 -2.43615728 3.61223321 0 0 Z " fill="#BFA05D" transform="translate(109,327)"/>
<path d="M0 0 C1.9453125 0.2421875 1.9453125 0.2421875 4.125 0.875 C4.84945312 1.07867187 5.57390625 1.28234375 6.3203125 1.4921875 C6.87460938 1.65976562 7.42890625 1.82734375 8 2 C8.33 1.34 8.66 0.68 9 0 C9 0.99 9 1.98 9 3 C8.01 3 7.02 3 6 3 C6 3.66 6 4.32 6 5 C5.01 5 4.02 5 3 5 C3 4.34 3 3.68 3 3 C1.35 2.67 -0.3 2.34 -2 2 C-1.34 1.34 -0.68 0.68 0 0 Z " fill="#BF9E64" transform="translate(65,51)"/>
<path d="M0 0 C1.9375 0.8125 1.9375 0.8125 4 2 C4.33 2.99 4.66 3.98 5 5 C2.36 5 -0.28 5 -3 5 C-2.34 4.67 -1.68 4.34 -1 4 C-0.34786708 1.97536745 -0.34786708 1.97536745 0 0 Z " fill="#C9AB77" transform="translate(59,49)"/>
<path d="M0 0 C4.16138263 -0.08159574 7.9472484 0.01751476 12 1 C12 1.66 12 2.32 12 3 C7.53160785 3.21278058 4.17737474 2.59138085 0 1 C0 0.67 0 0.34 0 0 Z " fill="#C8AA72" transform="translate(5,78)"/>
<path d="M0 0 C2.97 0 5.94 0 9 0 C8.67 0.99 8.34 1.98 8 3 C5.36 2.67 2.72 2.34 0 2 C0 1.34 0 0.68 0 0 Z " fill="#C09E63" transform="translate(74,31)"/>
<path d="M0 0 C1.32 0.33 2.64 0.66 4 1 C-1.625 5 -1.625 5 -5 5 C-4.67 3.68 -4.34 2.36 -4 1 C-2.02 1.495 -2.02 1.495 0 2 C0 1.34 0 0.68 0 0 Z " fill="#CBAE78" transform="translate(173,26)"/>
<path d="M0 0 C0.99 0.33 1.98 0.66 3 1 C3.6875 3.0625 3.6875 3.0625 4 5 C2.35 5 0.7 5 -1 5 C-0.67 3.35 -0.34 1.7 0 0 Z " fill="#B59556" transform="translate(160,84)"/>
<path d="M0 0 C1.32 0.66 2.64 1.32 4 2 C3.67 2.99 3.34 3.98 3 5 C0.9375 5.6875 0.9375 5.6875 -1 6 C-0.67 4.02 -0.34 2.04 0 0 Z " fill="#D1B37B" transform="translate(177,76)"/>
<path d="M0 0 C-1.6875 2.0625 -1.6875 2.0625 -4 4 C-6.75 3.75 -6.75 3.75 -9 3 C-5.92807025 0.26939578 -4.09590633 -0.34132553 0 0 Z " fill="#C7A972" transform="translate(88,25)"/>
<path d="M0 0 C1.32 0 2.64 0 4 0 C4 0.99 4 1.98 4 3 C2.1875 4.0625 2.1875 4.0625 0 5 C-0.99 4.67 -1.98 4.34 -3 4 C-2.34 3.67 -1.68 3.34 -1 3 C-0.67 2.01 -0.34 1.02 0 0 Z " fill="#BC9B5D" transform="translate(73,19)"/>
</svg>
