<?xml version="1.0" encoding="UTF-8"?>
<svg version="1.1" xmlns="http://www.w3.org/2000/svg" width="310" height="400">
<path d="M0 0 C102.3 0 204.6 0 310 0 C310 132 310 264 310 400 C207.7 400 105.4 400 0 400 C0 268 0 136 0 0 Z " fill="#457EA3" transform="translate(0,0)"/>
<path d="M0 0 C2.14576637 -0.02685938 4.29162645 -0.04633088 6.4375 -0.0625 C7.63246094 -0.07410156 8.82742187 -0.08570313 10.05859375 -0.09765625 C13 0 13 0 14 1 C15.34747084 1.23075082 16.70377565 1.41153063 18.0625 1.5625 C19.361875 1.706875 20.66125 1.85125 22 2 C22 2.66 22 3.32 22 4 C27.445 4.495 27.445 4.495 33 5 C33 5.66 33 6.32 33 7 C33.99 7 34.98 7 36 7 C36 6.34 36 5.68 36 5 C36.70125 5.04125 37.4025 5.0825 38.125 5.125 C41.38623534 4.98320716 43.93757061 4.08886378 47 3 C47.66 3 48.32 3 49 3 C50.20628008 5.33214148 51.1654738 7.49642139 52 10 C55.51190809 11.22969878 55.51190809 11.22969878 59 12 C58.01 12.66 57.02 13.32 56 14 C56.99 15.485 56.99 15.485 58 17 C56.87980469 16.84402344 55.75960937 16.68804687 54.60546875 16.52734375 C53.13286041 16.33037066 51.66020144 16.13377577 50.1875 15.9375 C49.44951172 15.83373047 48.71152344 15.72996094 47.95117188 15.62304688 C44.56825221 15.17913434 42.27944975 14.90685008 39 16 C36.42734182 16.07029121 33.88358569 16.09370832 31.3125 16.0625 C30.61060547 16.05798828 29.90871094 16.05347656 29.18554688 16.04882812 C27.45699462 16.03706927 25.72848635 16.01913454 24 16 C24 16.66 24 17.32 24 18 C25.21558594 18.06058594 26.43117187 18.12117188 27.68359375 18.18359375 C29.26824228 18.26798332 30.85287702 18.3526321 32.4375 18.4375 C33.23994141 18.47681641 34.04238281 18.51613281 34.86914062 18.55664062 C40.88671875 18.88671875 40.88671875 18.88671875 42 20 C42.33 19.34 42.66 18.68 43 18 C41.68 17.67 40.36 17.34 39 17 C41.97 16.67 44.94 16.34 48 16 C48 16.66 48 17.32 48 18 C53.94 18 59.88 18 66 18 C66 16.68 66 15.36 66 14 C67.65 14 69.3 14 71 14 C72.125 17.75 72.125 17.75 71 20 C71.99 20.33 72.98 20.66 74 21 C74 20.34 74 19.68 74 19 C74.66 19 75.32 19 76 19 C76 17.68 76 16.36 76 15 C74.02 14.01 74.02 14.01 72 13 C72.33 12.0925 72.66 11.185 73 10.25 C74.19605723 6.92954193 74.19605723 6.92954193 74 3 C78.65537393 2.16203269 82.37078475 1.9838308 87 3 C86.67 3.66 86.34 4.32 86 5 C83.6859378 5.73075648 81.35171131 6.40138258 79 7 C79.75150023 10.27773504 79.75150023 10.27773504 83 12 C83 12.66 83 13.32 83 14 C84.98 14.495 84.98 14.495 87 15 C87 15.66 87 16.32 87 17 C88.65 16.67 90.3 16.34 92 16 C92 16.99 92 17.98 92 19 C93.98 19.33 95.96 19.66 98 20 C98.33 18.02 98.66 16.04 99 14 C95.73454239 12.11608215 92.71888239 11.50712033 89 11 C89.75 6.25 89.75 6.25 92 4 C95.625 3.875 95.625 3.875 99 4 C99 5.65 99 7.3 99 9 C99.66 9 100.32 9 101 9 C101 7.68 101 6.36 101 5 C104.63 4.67 108.26 4.34 112 4 C112 4.99 112 5.98 112 7 C112.66 6.34 113.32 5.68 114 5 C119.23742659 4.65083823 123.06632803 5.02653121 128 7 C128 7.66 128 8.32 128 9 C130.64 9 133.28 9 136 9 C136 9.66 136 10.32 136 11 C137.051875 10.95875 138.10375 10.9175 139.1875 10.875 C142.74010173 10.99147875 144.84866641 11.47208068 148 13 C148 13.66 148 14.32 148 15 C147.34 15 146.68 15 146 15 C146 15.66 146 16.32 146 17 C146.71027344 17.13277344 147.42054688 17.26554687 148.15234375 17.40234375 C149.07144531 17.57894531 149.99054688 17.75554688 150.9375 17.9375 C151.85402344 18.11152344 152.77054687 18.28554688 153.71484375 18.46484375 C156 19 156 19 157 20 C159.32817964 20.36760731 161.6618385 20.70241581 164 21 C164 21.66 164 22.32 164 23 C163.34 23 162.68 23 162 23 C162 23.66 162 24.32 162 25 C161.01 25 160.02 25 159 25 C159 25.66 159 26.32 159 27 C158.29875 26.690625 157.5975 26.38125 156.875 26.0625 C153.91063343 24.96697322 151.12301892 24.43577008 148 24 C148.6496875 24.39832031 149.299375 24.79664062 149.96875 25.20703125 C151.22171875 26.00173828 151.22171875 26.00173828 152.5 26.8125 C153.75296875 27.59560547 153.75296875 27.59560547 155.03125 28.39453125 C155.6809375 28.92433594 156.330625 29.45414063 157 30 C157 30.99 157 31.98 157 33 C155.02 33 153.04 33 151 33 C151 33.33 151 33.66 151 34 C145.97038286 34.5715474 142.96223647 33.65977314 138.375 31.5 C131.82761366 28.55782006 126.07476462 28.48650902 119 29 C119.72265625 27.03125 119.72265625 27.03125 121 25 C123.05859375 24.53125 123.05859375 24.53125 125.4375 24.5 C129.20130779 24.34349082 129.20130779 24.34349082 132.0625 21.9375 C132.371875 21.298125 132.68125 20.65875 133 20 C131.68 19.67 130.36 19.34 129 19 C129 19.33 129 19.66 129 20 C127.02 20 125.04 20 123 20 C123 18 123 18 125 16 C118.38190423 13.53745274 111.99560484 13.81064528 105 14 C106.65 14.33 108.3 14.66 110 15 C110 15.66 110 16.32 110 17 C109.34 17 108.68 17 108 17 C108 17.66 108 18.32 108 19 C108.99 19 109.98 19 111 19 C111 19.66 111 20.32 111 21 C108.00342227 22.36208078 105.68261273 23.03283317 102.375 23.375 C98.94369087 23.60968364 98.94369087 23.60968364 97.59375 25.9375 C95.60631076 28.50948019 94.23844961 28.83954007 91.125 29.625 C90.24070313 29.87121094 89.35640625 30.11742188 88.4453125 30.37109375 C86.6367771 30.83622825 84.82020669 31.2703693 83 31.6875 C80.49975503 33.32828576 80.42068036 34.28704335 79.6875 37.125 C79.3471875 39.043125 79.3471875 39.043125 79 41 C80.32 41 81.64 41 83 41 C83.33 42.32 83.66 43.64 84 45 C85.2375 45.0825 86.475 45.165 87.75 45.25 C92.82998521 45.80286905 97.37526509 47.32218402 102.1796875 49.01171875 C105.42444251 50.14873124 108.684322 51.09572418 112 52 C112 53.32 112 54.64 112 56 C113.32 56.33 114.64 56.66 116 57 C115.67 57.33 115.34 57.66 115 58 C115.99 58.33 116.98 58.66 118 59 C119.25541557 55.23375329 118.37061958 53.62811066 117 50 C119.97 49.505 119.97 49.505 123 49 C123.33 48.01 123.66 47.02 124 46 C122.02 44.02 122.02 44.02 120 42 C120.66 41.67 121.32 41.34 122 41 C121.67 38.03 121.34 35.06 121 32 C137.76747406 32.26236446 137.76747406 32.26236446 144 38 C144.73046875 40.16796875 144.73046875 40.16796875 145 42 C149.53140653 42.93380961 149.53140653 42.93380961 154 42 C154.66 41.01 155.32 40.02 156 39 C161.58803387 40.75623922 164.57022638 44.3383712 168.3125 48.6875 C171.82707234 51.7116669 174.47977708 52.15724657 179 53 C179 53.66 179 54.32 179 55 C179.66 55.33 180.32 55.66 181 56 C180.125 62.75 180.125 62.75 179 65 C179.70125 64.79375 180.4025 64.5875 181.125 64.375 C184 64 184 64 190 66 C190 135.3 190 204.6 190 276 C183 276 183 276 180 274 C181.22880216 275.2941742 181.22880216 275.2941742 184 277 C184.9375 279.375 184.9375 279.375 185 282 C183.15554062 284.28967371 181.62637553 285.68681224 179 287 C177.45976004 287.06950541 175.91665012 287.08452357 174.375 287.0625 C173.55773437 287.05347656 172.74046875 287.04445313 171.8984375 287.03515625 C170.95871094 287.01775391 170.95871094 287.01775391 170 287 C169.67 288.65 169.34 290.3 169 292 C168.01 292 167.02 292 166 292 C166 291.34 166 290.68 166 290 C165.34 290 164.68 290 164 290 C163.67 291.32 163.34 292.64 163 294 C164.32 294.33 165.64 294.66 167 295 C166.360625 295.2475 165.72125 295.495 165.0625 295.75 C162.80364886 296.78813195 162.80364886 296.78813195 162.5 299 C162.335 299.66 162.17 300.32 162 301 C160.68352881 301.69937532 159.34977849 302.36729133 158 303 C157.67 303.99 157.34 304.98 157 306 C158.32 306.33 159.64 306.66 161 307 C161 307.66 161 308.32 161 309 C159.34997172 310.35386936 157.6825613 311.68678142 156 313 C155.67 313.66 155.34 314.32 155 315 C154.34 315 153.68 315 153 315 C153.82445445 320.79394666 153.82445445 320.79394666 157.5 324.9375 C158.325 325.288125 159.15 325.63875 160 326 C160.66 326.33 161.32 326.66 162 327 C162 327.66 162 328.32 162 329 C154.94500065 330.33113195 147.51856086 330.47038616 141.03515625 326.92578125 C137.73962303 324.37154157 136.21338227 321.91163418 135 318 C134.8046875 314.66796875 134.8046875 314.66796875 134.875 311.1875 C134.89304688 310.02605469 134.91109375 308.86460937 134.9296875 307.66796875 C134.95289063 306.78753906 134.97609375 305.90710938 135 305 C136.32 304.34 137.64 303.68 139 303 C139 300.69 139 298.38 139 296 C139.99 296 140.98 296 142 296 C142.33 295.01 142.66 294.02 143 293 C142.01 293.33 141.02 293.66 140 294 C140.45190094 291.43621536 140.91127246 288.87414878 141.375 286.3125 C141.50132812 285.59126953 141.62765625 284.87003906 141.7578125 284.12695312 C142.31378183 281.08302104 142.86807067 278.32509379 144.03515625 275.44921875 C145.32718169 272.16946185 145.64659873 268.99496866 146.0625 265.5 C146.9311349 258.32119914 146.9311349 258.32119914 147.5234375 255.55859375 C148.69249408 249.28210143 149.2631755 242.29438366 148 236 C145.8371868 232.85552159 143.45346582 231.50848414 140 230 C134.63098417 227.01721343 133.0501523 223.90191855 130.09765625 218.5546875 C129.76443359 217.95269531 129.43121094 217.35070312 129.08789062 216.73046875 C128.40189456 215.48914253 127.72223392 214.24429486 127.04882812 212.99609375 C125.08270766 209.47298771 123.29166959 207.28706913 120 205 C119.0625 202.0625 119.0625 202.0625 119 199 C120.4375 196.625 120.4375 196.625 122 195 C121.34 195 120.68 195 120 195 C120.33 192.69 120.66 190.38 121 188 C121.66 188 122.32 188 123 188 C123 187.01 123 186.02 123 185 C124.375 183.3125 124.375 183.3125 126 182 C126.66 182 127.32 182 128 182 C127.91284983 180.06166004 127.80467036 178.1242571 127.6875 176.1875 C127.60048828 174.56908203 127.60048828 174.56908203 127.51171875 172.91796875 C126.96859128 169.82089837 126.5389653 168.78667929 124 167 C123.34 167 122.68 167 122 167 C122 168.32 122 169.64 122 171 C121.01 171 120.02 171 119 171 C119 170.34 119 169.68 119 169 C118.05125 168.9175 117.1025 168.835 116.125 168.75 C114.578125 168.37875 114.578125 168.37875 113 168 C112.30062468 166.68352881 111.63270867 165.34977849 111 164 C109.824375 163.814375 109.824375 163.814375 108.625 163.625 C107.75875 163.41875 106.8925 163.2125 106 163 C105.443125 162.05125 104.88625 161.1025 104.3125 160.125 C101.37201942 156.1513776 99.21488553 155.91583219 94.5703125 154.78515625 C91.95027118 153.98480928 90.31736834 152.98487717 88.125 151.375 C83.89555756 148.48660029 79.95830074 148.40262998 74.9296875 148.3359375 C72 148 72 148 66 145 C65.67 178.33 65.34 211.66 65 246 C50.48 246 35.96 246 21 246 C20.67 201.12 20.34 156.24 20 110 C16.37 112.31 12.74 114.62 9 117 C6.29898962 118.45458082 3.6311624 119.85592598 0.875 121.1875 C0.1948584 121.52136719 -0.4852832 121.85523438 -1.18603516 122.19921875 C-15.11634636 129 -15.11634636 129 -18 129 C-19.0270257 124.80355091 -20.04188327 120.60440009 -21.0456543 116.40234375 C-21.3886907 114.9738086 -21.7350171 113.54605926 -22.0847168 112.11914062 C-22.58733003 110.06579039 -23.07797287 108.00988803 -23.56640625 105.953125 C-23.86490479 104.71723633 -24.16340332 103.48134766 -24.47094727 102.20800781 C-25.22770664 97.61925921 -25.22770664 97.61925921 -24 95 C-21.54242926 93.52306576 -19.21874225 92.30755368 -16.625 91.125 C-15.16581091 90.4314852 -13.70748057 89.73616075 -12.25 89.0390625 C-11.52941406 88.6977832 -10.80882813 88.35650391 -10.06640625 88.00488281 C-6.30243379 86.17448222 -2.67697816 84.09749817 0.9609375 82.03125 C3 81 3 81 5 81 C4.6027339 73.45413148 4.6027339 73.45413148 1 67 C-2.06680799 65.17370206 -2.06680799 65.17370206 -5 64 C-5 62.02 -5 60.04 -5 58 C-5.598125 57.87625 -6.19625 57.7525 -6.8125 57.625 C-9 57 -9 57 -12 55 C-12.1875 52.375 -12.1875 52.375 -12 50 C-12.66 49.67 -13.32 49.34 -14 49 C-14 48.34 -14 47.68 -14 47 C-14.721875 46.896875 -15.44375 46.79375 -16.1875 46.6875 C-19 46 -19 46 -21.375 44.4375 C-23.9671524 42.74483286 -23.9671524 42.74483286 -27.1875 43 C-30.59783668 43 -32.41988499 42.66566923 -35.5625 41.625 C-41.90607741 39.556229 -48.39685079 38.80874306 -55 38 C-55 38.33 -55 38.66 -55 39 C-59.1196377 40.29243536 -62.66831683 41.26252625 -67 41 C-66.67 39.68 -66.34 38.36 -66 37 C-69.37088267 39.27415287 -69.37088267 39.27415287 -71 43 C-73.2578125 44.28125 -73.2578125 44.28125 -76.125 45.5 C-77.13175781 45.93183594 -78.13851562 46.36367187 -79.17578125 46.80859375 C-80.57376953 47.39833984 -80.57376953 47.39833984 -82 48 C-83.6396875 48.7734375 -83.6396875 48.7734375 -85.3125 49.5625 C-92.9472673 52.53876522 -100.89189593 54.790572 -109 56 C-105.12390201 52.12390201 -99.1197139 51.01826696 -93.9375 49.5625 C-89.48520915 48.26878952 -85.91511767 46.46822636 -82 44 C-83.60341555 43.66307215 -85.20776555 43.33058907 -86.8125 43 C-88.15248047 42.7215625 -88.15248047 42.7215625 -89.51953125 42.4375 C-92.07260693 41.91315157 -92.07260693 41.91315157 -95 42 C-95 40.35 -95 38.7 -95 37 C-97.31 37 -99.62 37 -102 37 C-101.42655063 34.13275314 -101.1385485 33.1385485 -99 31 C-96.6171875 30.5859375 -96.6171875 30.5859375 -93.875 30.375 C-92.96492188 30.30023438 -92.05484375 30.22546875 -91.1171875 30.1484375 C-90.41851562 30.09945312 -89.71984375 30.05046875 -89 30 C-89 29.01 -89 28.02 -89 27 C-89.99 27.33 -90.98 27.66 -92 28 C-101.77653394 28.91048637 -101.77653394 28.91048637 -105.6875 26 C-106.120625 25.34 -106.55375 24.68 -107 24 C-102.07262981 22.02905192 -98.21979128 21.8200072 -93 22 C-93.71027344 21.73445313 -94.42054687 21.46890625 -95.15234375 21.1953125 C-96.07144531 20.84210937 -96.99054688 20.48890625 -97.9375 20.125 C-98.85402344 19.77695312 -99.77054688 19.42890625 -100.71484375 19.0703125 C-103 18 -103 18 -104 16 C-99.545 15.505 -99.545 15.505 -95 15 C-95 14.34 -95 13.68 -95 13 C-80.9 7.7 -80.9 7.7 -74 10 C-70.786917 10.25790633 -67.57999983 10.44196144 -64.36132812 10.60546875 C-59.20170612 10.89914694 -59.20170612 10.89914694 -57 12 C-55.50503158 12.20699563 -54.0033408 12.36679259 -52.5 12.5 C-51.1696875 12.62375 -51.1696875 12.62375 -49.8125 12.75 C-48.884375 12.8325 -47.95625 12.915 -47 13 C-45.16633635 13.16299232 -43.3329799 13.32949024 -41.5 13.5 C-40.6853125 13.5721875 -39.870625 13.644375 -39.03125 13.71875 C-37 14 -37 14 -35 15 C-33.62451844 15.08308638 -32.24514204 15.10736016 -30.8671875 15.09765625 C-30.06152344 15.09443359 -29.25585938 15.09121094 -28.42578125 15.08789062 C-27.16314453 15.07532227 -27.16314453 15.07532227 -25.875 15.0625 C-24.60076172 15.05573242 -24.60076172 15.05573242 -23.30078125 15.04882812 C-21.20049091 15.03702874 -19.1002367 15.01909306 -17 15 C-17.495 14.01 -17.495 14.01 -18 13 C-15.03 13 -12.06 13 -9 13 C-9 12.34 -9 11.68 -9 11 C-8.34 11 -7.68 11 -7 11 C-7 11.66 -7 12.32 -7 13 C-5.68 13.33 -4.36 13.66 -3 14 C-2.67 13.34 -2.34 12.68 -2 12 C-1.01 12.66 -0.02 13.32 1 14 C1.99 13.67 2.98 13.34 4 13 C6.40383032 13.24346128 8.80023235 13.56517385 11.1875 13.9375 C13.09595703 14.22947266 13.09595703 14.22947266 15.04296875 14.52734375 C16.01878906 14.68332031 16.99460937 14.83929688 18 15 C17.73323796 13.01508358 17.73323796 13.01508358 17 11 C16.01 10.67 15.02 10.34 14 10 C14.33 9.01 14.66 8.02 15 7 C14.21625 7.33 13.4325 7.66 12.625 8 C7.81262778 9.32755096 1.62853285 10.31426642 -3 8 C-2.690625 7.4225 -2.38125 6.845 -2.0625 6.25 C-1.07128616 4.15095893 -0.52451199 2.24925862 0 0 Z " fill="#85AFCB" transform="translate(120,40)"/>
<path d="M0 0 C0 59.73 0 119.46 0 181 C-14.19 181 -28.38 181 -43 181 C-43.33 136.12 -43.66 91.24 -44 45 C-47.63 47.31 -51.26 49.62 -55 52 C-57.70101038 53.45458082 -60.3688376 54.85592598 -63.125 56.1875 C-63.8051416 56.52136719 -64.4852832 56.85523438 -65.18603516 57.19921875 C-79.11634636 64 -79.11634636 64 -82 64 C-83.0270257 59.80355091 -84.04188327 55.60440009 -85.0456543 51.40234375 C-85.3886907 49.9738086 -85.7350171 48.54605926 -86.0847168 47.11914062 C-86.58733003 45.06579039 -87.07797287 43.00988803 -87.56640625 40.953125 C-88.01415405 39.09929199 -88.01415405 39.09929199 -88.47094727 37.20800781 C-89.22024869 32.66448185 -89.22024869 32.66448185 -88 30 C-85.77056652 28.64322167 -83.67777624 27.56609611 -81.3125 26.5 C-79.84979174 25.80318414 -78.38895415 25.10243229 -76.9296875 24.3984375 C-76.13788086 24.0178418 -75.34607422 23.63724609 -74.53027344 23.24511719 C-69.93826899 20.98544692 -65.43837242 18.55987279 -60.9375 16.125 C-59.98101562 15.6187207 -59.02453125 15.11244141 -58.0390625 14.59082031 C-53.88015289 12.34426646 -50.00317047 10.19444551 -46.4921875 7.0078125 C-32.12689728 -5.45151784 -21.70850426 0 0 0 Z " fill="#FCFDFD" transform="translate(184,105)"/>
<path d="M0 0 C0.90717773 0.00202423 1.81435547 0.00404846 2.74902344 0.00613403 C3.68069336 0.00517731 4.61236328 0.00422058 5.57226562 0.00323486 C7.55289782 0.00255243 9.53353222 0.00441109 11.51416016 0.00857544 C14.52088589 0.01387491 17.52745893 0.00865768 20.53417969 0.00222778 C22.45996126 0.00288949 24.38574275 0.00417257 26.31152344 0.00613403 C27.20250732 0.0041098 28.09349121 0.00208557 29.01147461 0 C34.60262466 0.02056536 40.01415316 0.43219022 45.56152344 1.13894653 C45.56152344 1.79894653 45.56152344 2.45894653 45.56152344 3.13894653 C46.92277344 2.89144653 46.92277344 2.89144653 48.31152344 2.63894653 C56.13431711 1.52594743 63.77048503 2.02594105 71.56152344 3.13894653 C71.56152344 31.51894653 71.56152344 59.89894653 71.56152344 89.13894653 C67.93152344 88.80894653 64.30152344 88.47894653 60.56152344 88.13894653 C61.22152344 85.16894653 61.88152344 82.19894653 62.56152344 79.13894653 C61.57152344 78.80894653 60.58152344 78.47894653 59.56152344 78.13894653 C59.89152344 77.47894653 60.22152344 76.81894653 60.56152344 76.13894653 C59.34464844 76.07707153 58.12777344 76.01519653 56.87402344 75.95144653 C52.28408929 75.36464234 50.62103618 73.65738619 47.56152344 70.13894653 C46.18463456 68.84761192 44.78755655 67.57756291 43.37402344 66.32644653 C42.69984375 65.72187622 42.02566406 65.11730591 41.33105469 64.49441528 C39.66840695 62.93624641 39.66840695 62.93624641 37.56152344 63.13894653 C36.90152344 64.12894653 36.24152344 65.11894653 35.56152344 66.13894653 C32.42675007 67.24035339 30.92476594 67.26002737 27.74902344 66.20144653 C27.02714844 65.85082153 26.30527344 65.50019653 25.56152344 65.13894653 C25.56152344 63.81894653 25.56152344 62.49894653 25.56152344 61.13894653 C24.16933594 60.70582153 24.16933594 60.70582153 22.74902344 60.26394653 C19.56152344 59.13894653 19.56152344 59.13894653 16.56152344 57.13894653 C14.17852727 56.68953399 11.77926859 56.3228771 9.37402344 56.01394653 C8.10171875 55.84636841 6.82941406 55.67879028 5.51855469 55.50613403 C4.05482422 55.32437622 4.05482422 55.32437622 2.56152344 55.13894653 C2.72910156 55.76543091 2.89667969 56.39191528 3.06933594 57.03738403 C3.37484375 58.26328247 3.37484375 58.26328247 3.68652344 59.51394653 C3.99976563 60.7321106 3.99976563 60.7321106 4.31933594 61.97488403 C4.43921875 63.04609497 4.43921875 63.04609497 4.56152344 64.13894653 C3.90152344 64.79894653 3.24152344 65.45894653 2.56152344 66.13894653 C3.88152344 67.12894653 5.20152344 68.11894653 6.56152344 69.13894653 C5.87402344 71.07644653 5.87402344 71.07644653 4.56152344 73.13894653 C1.93652344 73.88894653 1.93652344 73.88894653 -0.43847656 74.13894653 C0.55152344 77.60394653 0.55152344 77.60394653 1.56152344 81.13894653 C0.57152344 81.79894653 -0.41847656 82.45894653 -1.43847656 83.13894653 C-4.89015059 80.66082159 -6.67010962 79.34288519 -7.43847656 75.13894653 C-9.26378906 74.76769653 -9.26378906 74.76769653 -11.12597656 74.38894653 C-16.32409692 73.24387723 -21.3561859 71.66286806 -26.42285156 70.04129028 C-29.08874785 69.24359334 -31.70202011 68.63049519 -34.43847656 68.13894653 C-34.76847656 66.81894653 -35.09847656 65.49894653 -35.43847656 64.13894653 C-36.75847656 64.13894653 -38.07847656 64.13894653 -39.43847656 64.13894653 C-39.77903916 61.07388316 -39.78093214 59.60982295 -37.93847656 57.07644653 C-33.32888455 53.50401273 -28.46965349 50.38504942 -22.43847656 51.13894653 C-21.97441406 50.17988403 -21.97441406 50.17988403 -21.50097656 49.20144653 C-20.43847656 47.13894653 -20.43847656 47.13894653 -19.43847656 46.13894653 C-17.42536207 45.74325545 -15.40250448 45.39642463 -13.37597656 45.07644653 C-12.27125 44.89984497 -11.16652344 44.72324341 -10.02832031 44.54129028 C-8.74634766 44.34213013 -8.74634766 44.34213013 -7.43847656 44.13894653 C-7.43847656 43.47894653 -7.43847656 42.81894653 -7.43847656 42.13894653 C-8.42847656 42.13894653 -9.41847656 42.13894653 -10.43847656 42.13894653 C-10.43847656 41.47894653 -10.43847656 40.81894653 -10.43847656 40.13894653 C-9.77847656 40.13894653 -9.11847656 40.13894653 -8.43847656 40.13894653 C-8.43847656 39.47894653 -8.43847656 38.81894653 -8.43847656 38.13894653 C-10.74847656 37.80894653 -13.05847656 37.47894653 -15.43847656 37.13894653 C-15.43847656 36.80894653 -15.43847656 36.47894653 -15.43847656 36.13894653 C-12.7295289 36.0574971 -10.02306393 35.99824039 -7.31347656 35.95144653 C-6.55292969 35.92630981 -5.79238281 35.9011731 -5.00878906 35.87527466 C-0.03605046 35.810972 3.19768826 36.48300212 7.56152344 39.13894653 C7.06652344 40.12894653 7.06652344 40.12894653 6.56152344 41.13894653 C5.90152344 41.13894653 5.24152344 41.13894653 4.56152344 41.13894653 C4.56152344 41.79894653 4.56152344 42.45894653 4.56152344 43.13894653 C6.21152344 42.80894653 7.86152344 42.47894653 9.56152344 42.13894653 C9.23152344 41.47894653 8.90152344 40.81894653 8.56152344 40.13894653 C10.54152344 40.79894653 12.52152344 41.45894653 14.56152344 42.13894653 C14.56152344 43.12894653 14.56152344 44.11894653 14.56152344 45.13894653 C13.90152344 45.13894653 13.24152344 45.13894653 12.56152344 45.13894653 C12.23152344 46.12894653 11.90152344 47.11894653 11.56152344 48.13894653 C10.93503906 48.17632935 10.30855469 48.21371216 9.66308594 48.25222778 C8.84582031 48.31796997 8.02855469 48.38371216 7.18652344 48.45144653 C6.37441406 48.50945435 5.56230469 48.56746216 4.72558594 48.62722778 C2.18231006 48.96885181 2.18231006 48.96885181 0.56152344 52.13894653 C1.43035156 52.03195435 2.29917969 51.92496216 3.19433594 51.81472778 C14.28085369 50.66143231 14.28085369 50.66143231 19.56152344 54.13894653 C24.41450334 56.05991774 28.61416539 56.8968386 33.74902344 55.57644653 C35.56152344 55.13894653 35.56152344 55.13894653 38.56152344 56.13894653 C37.34098485 52.47733076 36.1937004 51.97624179 32.99902344 49.95144653 C32.17273438 49.42164185 31.34644531 48.89183716 30.49511719 48.34597778 C29.53798828 47.74849731 29.53798828 47.74849731 28.56152344 47.13894653 C31.02828793 46.25557817 32.20011716 46.00770593 34.70214844 46.91629028 C35.39824219 47.29914185 36.09433594 47.68199341 36.81152344 48.07644653 C37.51792969 48.45671997 38.22433594 48.83699341 38.95214844 49.22879028 C39.48324219 49.52914185 40.01433594 49.82949341 40.56152344 50.13894653 C40.56152344 49.47894653 40.56152344 48.81894653 40.56152344 48.13894653 C41.55152344 48.13894653 42.54152344 48.13894653 43.56152344 48.13894653 C43.56152344 47.47894653 43.56152344 46.81894653 43.56152344 46.13894653 C44.22152344 46.13894653 44.88152344 46.13894653 45.56152344 46.13894653 C45.56152344 45.47894653 45.56152344 44.81894653 45.56152344 44.13894653 C44.07652344 44.23175903 44.07652344 44.23175903 42.56152344 44.32644653 C38.12918645 44.34446416 34.5920483 42.83001457 30.56152344 41.13894653 C29.57152344 40.80894653 28.58152344 40.47894653 27.56152344 40.13894653 C27.56152344 39.47894653 27.56152344 38.81894653 27.56152344 38.13894653 C28.22152344 38.13894653 28.88152344 38.13894653 29.56152344 38.13894653 C29.23152344 37.47894653 28.90152344 36.81894653 28.56152344 36.13894653 C25.9820047 35.44800758 25.9820047 35.44800758 22.99902344 35.01394653 C21.98710937 34.84636841 20.97519531 34.67879028 19.93261719 34.50613403 C19.15015625 34.38496216 18.36769531 34.26379028 17.56152344 34.13894653 C17.56152344 33.47894653 17.56152344 32.81894653 17.56152344 32.13894653 C14.92152344 32.13894653 12.28152344 32.13894653 9.56152344 32.13894653 C9.56152344 31.47894653 9.56152344 30.81894653 9.56152344 30.13894653 C6.59152344 29.80894653 3.62152344 29.47894653 0.56152344 29.13894653 C0.56152344 29.46894653 0.56152344 29.79894653 0.56152344 30.13894653 C-1.74847656 30.13894653 -4.05847656 30.13894653 -6.43847656 30.13894653 C-6.43847656 29.14894653 -6.43847656 28.15894653 -6.43847656 27.13894653 C-10.06847656 27.46894653 -13.69847656 27.79894653 -17.43847656 28.13894653 C-17.43847656 29.45894653 -17.43847656 30.77894653 -17.43847656 32.13894653 C-18.09847656 32.13894653 -18.75847656 32.13894653 -19.43847656 32.13894653 C-19.43847656 30.48894653 -19.43847656 28.83894653 -19.43847656 27.13894653 C-22.84462602 27.16021115 -22.84462602 27.16021115 -26.43847656 28.13894653 C-28.4488866 31.07344061 -28.4488866 31.07344061 -29.43847656 34.13894653 C-28.10816406 34.04613403 -28.10816406 34.04613403 -26.75097656 33.95144653 C-23.09362639 34.15846635 -21.39070506 35.05502054 -18.43847656 37.13894653 C-18.76847656 39.44894653 -19.09847656 41.75894653 -19.43847656 44.13894653 C-21.74847656 43.47894653 -24.05847656 42.81894653 -26.43847656 42.13894653 C-26.43847656 41.14894653 -26.43847656 40.15894653 -26.43847656 39.13894653 C-28.08847656 39.46894653 -29.73847656 39.79894653 -31.43847656 40.13894653 C-31.76847656 39.47894653 -32.09847656 38.81894653 -32.43847656 38.13894653 C-33.92347656 37.64394653 -33.92347656 37.64394653 -35.43847656 37.13894653 C-37.14434232 35.51242337 -38.81623117 33.84888087 -40.43847656 32.13894653 C-39.94347656 30.65394653 -39.94347656 30.65394653 -39.43847656 29.13894653 C-35.87597656 27.95144653 -35.87597656 27.95144653 -32.43847656 27.13894653 C-34.06335127 26.9710628 -35.68838098 26.80467866 -37.31347656 26.63894653 C-38.21839844 26.54613403 -39.12332031 26.45332153 -40.05566406 26.35769653 C-42.37160867 26.10847358 -42.37160867 26.10847358 -44.43847656 26.13894653 C-44.12910156 27.22175903 -44.12910156 27.22175903 -43.81347656 28.32644653 C-43.37895445 31.58536238 -44.02166987 33.22199157 -45.43847656 36.13894653 C-44.11847656 36.79894653 -42.79847656 37.45894653 -41.43847656 38.13894653 C-41.76847656 39.45894653 -42.09847656 40.77894653 -42.43847656 42.13894653 C-43.09847656 42.13894653 -43.75847656 42.13894653 -44.43847656 42.13894653 C-44.43847656 42.79894653 -44.43847656 43.45894653 -44.43847656 44.13894653 C-46.41847656 43.64394653 -46.41847656 43.64394653 -48.43847656 43.13894653 C-48.43847656 40.13894653 -48.43847656 40.13894653 -47.43847656 38.13894653 C-49.08847656 37.80894653 -50.73847656 37.47894653 -52.43847656 37.13894653 C-51.94347656 39.61394653 -51.94347656 39.61394653 -51.43847656 42.13894653 C-53.8552188 42.16599962 -56.27165597 42.18581091 -58.68847656 42.20144653 C-59.71134766 42.21401489 -59.71134766 42.21401489 -60.75488281 42.22683716 C-64.13190211 42.24323046 -67.21139295 42.19523421 -70.43847656 41.13894653 C-70.43847656 40.47894653 -70.43847656 39.81894653 -70.43847656 39.13894653 C-72.9340014 39.92024725 -72.9340014 39.92024725 -75.43847656 41.13894653 C-75.76847656 42.12894653 -76.09847656 43.11894653 -76.43847656 44.13894653 C-76.76847656 43.80894653 -77.09847656 43.47894653 -77.43847656 43.13894653 C-78.85175603 42.98274098 -80.27202246 42.8883848 -81.69238281 42.82254028 C-82.54638672 42.78064575 -83.40039062 42.73875122 -84.28027344 42.69558716 C-85.17810547 42.65627075 -86.0759375 42.61695435 -87.00097656 42.57644653 C-87.90267578 42.53326294 -88.804375 42.49007935 -89.73339844 42.44558716 C-91.96826141 42.33916511 -94.20323964 42.23714666 -96.43847656 42.13894653 C-95.44847656 41.64394653 -95.44847656 41.64394653 -94.43847656 41.13894653 C-94.43847656 40.47894653 -94.43847656 39.81894653 -94.43847656 39.13894653 C-95.09847656 38.80894653 -95.75847656 38.47894653 -96.43847656 38.13894653 C-95.28089844 38.1505481 -94.12332031 38.16214966 -92.93066406 38.17410278 C-91.39160318 38.1834873 -89.85254055 38.19258679 -88.31347656 38.20144653 C-87.55292969 38.20982544 -86.79238281 38.21820435 -86.00878906 38.22683716 C-82.65608242 38.24128848 -79.59390169 38.16664606 -76.28222656 37.57644653 C-72.95834847 37.06508067 -70.35905507 37.45394837 -67.06347656 38.07644653 C-66.00386719 38.27109497 -64.94425781 38.46574341 -63.85253906 38.66629028 C-62.65757812 38.90025513 -62.65757812 38.90025513 -61.43847656 39.13894653 C-62.09847656 38.47894653 -62.75847656 37.81894653 -63.43847656 37.13894653 C-63.10847656 36.80894653 -62.77847656 36.47894653 -62.43847656 36.13894653 C-63.40785156 35.60269653 -64.37722656 35.06644653 -65.37597656 34.51394653 C-68.43847656 32.13894653 -68.43847656 32.13894653 -69.31347656 28.88894653 C-69.35472656 27.98144653 -69.39597656 27.07394653 -69.43847656 26.13894653 C-71.78159786 26.39455977 -74.11691059 26.73165426 -76.43847656 27.13894653 C-76.76847656 27.79894653 -77.09847656 28.45894653 -77.43847656 29.13894653 C-79.08847656 28.80894653 -80.73847656 28.47894653 -82.43847656 28.13894653 C-82.43847656 28.79894653 -82.43847656 29.45894653 -82.43847656 30.13894653 C-83.42847656 30.13894653 -84.41847656 30.13894653 -85.43847656 30.13894653 C-85.43847656 29.47894653 -85.43847656 28.81894653 -85.43847656 28.13894653 C-86.51097656 28.15957153 -87.58347656 28.18019653 -88.68847656 28.20144653 C-91.5863808 28.15314813 -93.72459797 28.00738768 -96.43847656 27.13894653 C-96.43847656 26.47894653 -96.43847656 25.81894653 -96.43847656 25.13894653 C-97.73785156 25.15957153 -99.03722656 25.18019653 -100.37597656 25.20144653 C-101.7301329 25.22294108 -103.08603739 25.21042852 -104.43847656 25.13894653 C-104.76847656 24.80894653 -105.09847656 24.47894653 -105.43847656 24.13894653 C-106.95317105 23.90701789 -108.47602218 23.72679415 -110.00097656 23.57644653 C-110.82726562 23.49265747 -111.65355469 23.40886841 -112.50488281 23.32254028 C-113.46201172 23.23166138 -113.46201172 23.23166138 -114.43847656 23.13894653 C-114.10847656 21.48894653 -113.77847656 19.83894653 -113.43847656 18.13894653 C-107.93953675 16.04411232 -103.41233816 14.7731999 -97.43847656 15.13894653 C-95.22765805 15.24435579 -95.22765805 15.24435579 -92.43847656 14.13894653 C-92.43847656 13.47894653 -92.43847656 12.81894653 -92.43847656 12.13894653 C-89.13847656 12.13894653 -85.83847656 12.13894653 -82.43847656 12.13894653 C-82.76847656 13.45894653 -83.09847656 14.77894653 -83.43847656 16.13894653 C-88.38847656 16.63394653 -88.38847656 16.63394653 -93.43847656 17.13894653 C-92.36597656 17.63394653 -91.29347656 18.12894653 -90.18847656 18.63894653 C-89.58519531 18.91738403 -88.98191406 19.19582153 -88.36035156 19.48269653 C-86.14604821 20.35437577 -86.14604821 20.35437577 -82.43847656 20.13894653 C-82.43847656 19.47894653 -82.43847656 18.81894653 -82.43847656 18.13894653 C-81.86097656 18.30394653 -81.28347656 18.46894653 -80.68847656 18.63894653 C-76.18286572 19.64019339 -71.93296175 18.83040579 -67.43847656 18.13894653 C-68.42847656 17.80894653 -69.41847656 17.47894653 -70.43847656 17.13894653 C-70.93347656 15.65394653 -70.93347656 15.65394653 -71.43847656 14.13894653 C-70.77847656 13.80894653 -70.11847656 13.47894653 -69.43847656 13.13894653 C-70.09847656 12.47894653 -70.75847656 11.81894653 -71.43847656 11.13894653 C-69.54272405 11.11173477 -67.64685677 11.09245517 -65.75097656 11.07644653 C-64.69523437 11.06484497 -63.63949219 11.05324341 -62.55175781 11.04129028 C-59.69687382 11.13084122 -57.22717401 11.58120704 -54.43847656 12.13894653 C-52.33524122 12.20492004 -50.23011932 12.22456898 -48.12597656 12.20144653 C-47.05734375 12.1924231 -45.98871094 12.18339966 -44.88769531 12.17410278 C-43.67533203 12.15670044 -43.67533203 12.15670044 -42.43847656 12.13894653 C-43.42847656 11.45832153 -43.42847656 11.45832153 -44.43847656 10.76394653 C-45.09847656 10.22769653 -45.75847656 9.69144653 -46.43847656 9.13894653 C-46.43847656 8.47894653 -46.43847656 7.81894653 -46.43847656 7.13894653 C-39.65584305 4.42589313 -34.20066857 4.29170779 -27.43847656 7.13894653 C-24.22977423 7.30652411 -24.22977423 7.30652411 -21.43847656 7.13894653 C-24.73847656 6.14894653 -28.03847656 5.15894653 -31.43847656 4.13894653 C-31.43847656 3.80894653 -31.43847656 3.47894653 -31.43847656 3.13894653 C-25.52037271 1.99165661 -19.6376206 1.78744205 -13.63183594 1.53347778 C-8.6991818 1.29762128 -4.96326319 0.01880934 0 0 Z " fill="#4E85AA" transform="translate(238.4384765625,16.861053466796875)"/>
<path d="M0 0 C0.495 1.485 0.495 1.485 1 3 C2.21236328 2.85691406 2.21236328 2.85691406 3.44921875 2.7109375 C4.51785156 2.60007813 5.58648437 2.48921875 6.6875 2.375 C8.27111328 2.20097656 8.27111328 2.20097656 9.88671875 2.0234375 C13.17037728 1.99871736 15.11411057 2.47125857 18 4 C18.495 4.99 18.495 4.99 19 6 C21.30965848 7.05352843 23.6429774 8.05719096 26 9 C26 9.66 26 10.32 26 11 C30.64676167 13.52549385 30.64676167 13.52549385 39 15 C39 48.66 39 82.32 39 117 C32 117 32 117 29 115 C30.22880216 116.2941742 30.22880216 116.2941742 33 118 C33.9375 120.375 33.9375 120.375 34 123 C32.15554062 125.28967371 30.62637553 126.68681224 28 128 C26.45976004 128.06950541 24.91665012 128.08452357 23.375 128.0625 C22.55773437 128.05347656 21.74046875 128.04445313 20.8984375 128.03515625 C19.95871094 128.01775391 19.95871094 128.01775391 19 128 C18.67 129.65 18.34 131.3 18 133 C17.01 133 16.02 133 15 133 C15 132.34 15 131.68 15 131 C14.34 131 13.68 131 13 131 C12.67 132.32 12.34 133.64 12 135 C13.32 135.33 14.64 135.66 16 136 C15.360625 136.2475 14.72125 136.495 14.0625 136.75 C11.80364886 137.78813195 11.80364886 137.78813195 11.5 140 C11.335 140.66 11.17 141.32 11 142 C9.68352881 142.69937532 8.34977849 143.36729133 7 144 C6.67 144.99 6.34 145.98 6 147 C7.32 147.33 8.64 147.66 10 148 C10 148.66 10 149.32 10 150 C8.34997172 151.35386936 6.6825613 152.68678142 5 154 C4.67 154.66 4.34 155.32 4 156 C3.34 156 2.68 156 2 156 C2.82445445 161.79394666 2.82445445 161.79394666 6.5 165.9375 C7.325 166.288125 8.15 166.63875 9 167 C9.66 167.33 10.32 167.66 11 168 C11 168.66 11 169.32 11 170 C3.94500065 171.33113195 -3.48143914 171.47038616 -9.96484375 167.92578125 C-13.26037697 165.37154157 -14.78661773 162.91163418 -16 159 C-16.1953125 155.66796875 -16.1953125 155.66796875 -16.125 152.1875 C-16.10695312 151.02605469 -16.08890625 149.86460937 -16.0703125 148.66796875 C-16.04710937 147.78753906 -16.02390625 146.90710938 -16 146 C-14.02 145.01 -14.02 145.01 -12 144 C-12 141.69 -12 139.38 -12 137 C-11.01 137 -10.02 137 -9 137 C-8.67 136.01 -8.34 135.02 -8 134 C-8.99 134.33 -9.98 134.66 -11 135 C-10.54809906 132.43621536 -10.08872754 129.87414878 -9.625 127.3125 C-9.49867188 126.59126953 -9.37234375 125.87003906 -9.2421875 125.12695312 C-8.68621817 122.08302104 -8.13192933 119.32509379 -6.96484375 116.44921875 C-5.67281831 113.16946185 -5.35340127 109.99496866 -4.9375 106.5 C-4.0688651 99.32119914 -4.0688651 99.32119914 -3.4765625 96.55859375 C-2.30750592 90.28210143 -1.7368245 83.29438366 -3 77 C-5.1628132 73.85552159 -7.54653418 72.50848414 -11 71 C-16.36901583 68.01721343 -17.9498477 64.90191855 -20.90234375 59.5546875 C-21.23556641 58.95269531 -21.56878906 58.35070312 -21.91210938 57.73046875 C-22.59810544 56.48914253 -23.27776608 55.24429486 -23.95117188 53.99609375 C-25.91729234 50.47298771 -27.70833041 48.28706913 -31 46 C-31.9375 43.0625 -31.9375 43.0625 -32 40 C-30.5625 37.625 -30.5625 37.625 -29 36 C-29.66 36 -30.32 36 -31 36 C-30.67 33.69 -30.34 31.38 -30 29 C-29.34 29 -28.68 29 -28 29 C-28 28.01 -28 27.02 -28 26 C-26.625 24.3125 -26.625 24.3125 -25 23 C-24.34 23 -23.68 23 -23 23 C-23.33 17.72 -23.66 12.44 -24 7 C-23.34 7 -22.68 7 -22 7 C-22 7.66 -22 8.32 -22 9 C-21.34 9 -20.68 9 -20 9 C-19.773125 8.071875 -19.54625 7.14375 -19.3125 6.1875 C-17.76882587 2.43857712 -16.6733883 1.57430927 -13 0 C-11.68 0 -10.36 0 -9 0 C-9 1.98 -9 3.96 -9 6 C-8.34 6 -7.68 6 -7 6 C-7 4.02 -7 2.04 -7 0 C-4.3333581 -1.33332095 -2.83319697 -0.67102033 0 0 Z " fill="#8DB6D1" transform="translate(271,199)"/>
<path d="M0 0 C-1.98 2.64 -3.96 5.28 -6 8 C-3.94921875 8.16276042 -1.8984375 8.32552083 0.15234375 8.48828125 C4.20645683 9.21679814 8.09232643 10.69744214 12 12 C12 45.33 12 78.66 12 113 C1.61881188 111.84653465 1.61881188 111.84653465 -1 109 C-1 108.34 -1 107.68 -1 107 C-2.134375 106.731875 -3.26875 106.46375 -4.4375 106.1875 C-5.613125 105.795625 -6.78875 105.40375 -8 105 C-8.33 104.01 -8.66 103.02 -9 102 C-13.92166133 100.93585701 -18.51603736 101.02288419 -23.51171875 101.2578125 C-26.48804073 100.94943377 -27.07137721 100.17111045 -29 98 C-31.62570704 97.74930087 -31.62570704 97.74930087 -34 98 C-34 99.98 -34 101.96 -34 104 C-34.66 104 -35.32 104 -36 104 C-36 102.02 -36 100.04 -36 98 C-42.06663364 99.61795139 -42.06663364 99.61795139 -46 104.1875 C-46.33 105.115625 -46.66 106.04375 -47 107 C-47.66 107 -48.32 107 -49 107 C-49 106.34 -49 105.68 -49 105 C-52.35428471 104.28122471 -54.6842594 103.92911946 -58.0625 104.6875 C-61 105 -61 105 -63.875 103.625 C-66.56332227 100.30413131 -66.45800367 98.36439012 -66.2734375 94.21875 C-66 92 -66 92 -65 88 C-69.95 88 -74.9 88 -80 88 C-78.125 77.82142857 -78.125 77.82142857 -76 74 C-78.64 74 -81.28 74 -84 74 C-84.33 74.99 -84.66 75.98 -85 77 C-85.66 77 -86.32 77 -87 77 C-87 77.66 -87 78.32 -87 79 C-94.78481013 81.59493671 -94.78481013 81.59493671 -99 80 C-102.28238003 77.37409598 -103.74033981 74.97492772 -105 71 C-105.1171875 67.7734375 -105.1171875 67.7734375 -104.875 64.375 C-104.81054688 63.24835938 -104.74609375 62.12171875 -104.6796875 60.9609375 C-104 58 -104 58 -102.0703125 56.1015625 C-100 55 -100 55 -98 55 C-98 54.34 -98 53.68 -98 53 C-96.25008666 52.97284617 -94.50005055 52.95353449 -92.75 52.9375 C-91.77546875 52.92589844 -90.8009375 52.91429687 -89.796875 52.90234375 C-87.34241322 52.98804423 -85.33831086 53.29293934 -83 54 C-83 53.34 -83 52.68 -83 52 C-71.17339397 51.57167222 -71.17339397 51.57167222 -66 54 C-64.125 57.5 -64.125 57.5 -63 61 C-62.67 61.66 -62.34 62.32 -62 63 C-61.01 63.33 -60.02 63.66 -59 64 C-59.144375 63.443125 -59.28875 62.88625 -59.4375 62.3125 C-60.71546672 57.05863683 -61.19646963 52.40291471 -61 47 C-54.25 43 -54.25 43 -52 43 C-51.731875 42.360625 -51.46375 41.72125 -51.1875 41.0625 C-50 39 -50 39 -47 38 C-47.495 36.02 -47.495 36.02 -48 34 C-47.34 34 -46.68 34 -46 34 C-45.855625 33.38125 -45.71125 32.7625 -45.5625 32.125 C-45 30 -45 30 -44 28 C-43.34 28 -42.68 28 -42 28 C-41.505 26.515 -41.505 26.515 -41 25 C-39.35 24.67 -37.7 24.34 -36 24 C-36.061875 23.21625 -36.12375 22.4325 -36.1875 21.625 C-36.0946875 20.325625 -36.0946875 20.325625 -36 19 C-33.41464321 17.27642881 -31.96188386 16.55264982 -29.0625 15.8125 C-28.05896484 15.54373047 -28.05896484 15.54373047 -27.03515625 15.26953125 C-24.75319112 14.96731322 -23.17973341 15.31243308 -21 16 C-22.485 16.495 -22.485 16.495 -24 17 C-23.505 17.99 -23.505 17.99 -23 19 C-22.34 18.731875 -21.68 18.46375 -21 18.1875 C-20.01 17.795625 -19.02 17.40375 -18 17 C-17.33742188 16.73574219 -16.67484375 16.47148438 -15.9921875 16.19921875 C-14.94417969 15.79123047 -14.94417969 15.79123047 -13.875 15.375 C-13.21242188 15.11460938 -12.54984375 14.85421875 -11.8671875 14.5859375 C-10 14 -10 14 -7 14 C-7 12.68 -7 11.36 -7 10 C-7.99 10.66 -8.98 11.32 -10 12 C-12.19140625 12.1171875 -12.19140625 12.1171875 -14.5625 11.875 C-15.34753906 11.81054688 -16.13257813 11.74609375 -16.94140625 11.6796875 C-19 11 -19 11 -20.27734375 8.9453125 C-20.51582031 8.30335937 -20.75429688 7.66140625 -21 7 C-20.01 7 -19.02 7 -18 7 C-18 6.34 -18 5.68 -18 5 C-19.91864771 5.25642304 -21.83490994 5.53073436 -23.75 5.8125 C-24.81734375 5.96332031 -25.8846875 6.11414063 -26.984375 6.26953125 C-30.05451094 7.01320407 -31.66080478 7.92765472 -34 10 C-34.99 9.505 -34.99 9.505 -36 9 C-34.70982586 8.01886757 -33.41780894 7.04015801 -32.125 6.0625 C-31.04605469 5.24458984 -31.04605469 5.24458984 -29.9453125 4.41015625 C-25.35015262 1.0791267 -20.21589124 1.66159341 -14.74023438 1.48242188 C-9.77668245 1.26696876 -4.43293999 -1.47764666 0 0 Z " fill="#4C86AC" transform="translate(298,101)"/>
<path d="M0 0 C0.91031479 0.00202423 1.82062958 0.00404846 2.75852966 0.00613403 C4.15959206 0.00469894 4.15959206 0.00469894 5.58895874 0.00323486 C7.5737871 0.0025525 9.55861767 0.00441069 11.54344177 0.00857544 C14.56115349 0.01388109 17.5787135 0.00865422 20.59642029 0.00222778 C22.52545707 0.00288938 24.45449376 0.00417221 26.38352966 0.00613403 C27.27967484 0.0041098 28.17582001 0.00208557 29.09912109 0 C34.33418562 0.01925391 39.35454024 0.38194943 44.53587341 1.13894653 C44.53587341 1.79894653 44.53587341 2.45894653 44.53587341 3.13894653 C43.89037537 3.27993774 43.24487732 3.42092896 42.57981873 3.56619263 C39.64726894 4.20996165 36.71658512 4.86186318 33.78587341 5.51394653 C32.77009216 5.73566528 31.75431091 5.95738403 30.70774841 6.18582153 C29.72806091 6.40496216 28.74837341 6.62410278 27.73899841 6.84988403 C26.83826599 7.04888306 25.93753357 7.24788208 25.00950623 7.45291138 C22.63980163 8.11012317 20.71011101 9.01164911 18.53587341 10.13894653 C16.63101493 10.56993407 14.71230759 10.94287417 12.78587341 11.26394653 C11.80102966 11.43152466 10.81618591 11.59910278 9.80149841 11.77175903 C8.68001404 11.95351685 8.68001404 11.95351685 7.53587341 12.13894653 C8.03087341 13.12894653 8.03087341 13.12894653 8.53587341 14.13894653 C7.58712341 14.44832153 6.63837341 14.75769653 5.66087341 15.07644653 C2.67506933 16.01289395 2.67506933 16.01289395 0.53587341 17.13894653 C1.03087341 18.62394653 1.03087341 18.62394653 1.53587341 20.13894653 C-13.31412659 19.64394653 -13.31412659 19.64394653 -28.46412659 19.13894653 C-28.95912659 18.14894653 -28.95912659 18.14894653 -29.46412659 17.13894653 C-28.07193909 16.92238403 -28.07193909 16.92238403 -26.65162659 16.70144653 C-23.45687548 16.21794542 -23.45687548 16.21794542 -20.46412659 15.13894653 C-20.46412659 15.79894653 -20.46412659 16.45894653 -20.46412659 17.13894653 C-18.81412659 16.80894653 -17.16412659 16.47894653 -15.46412659 16.13894653 C-16.78412659 15.80894653 -18.10412659 15.47894653 -19.46412659 15.13894653 C-19.46412659 14.47894653 -19.46412659 13.81894653 -19.46412659 13.13894653 C-20.12412659 13.13894653 -20.78412659 13.13894653 -21.46412659 13.13894653 C-21.46412659 12.47894653 -21.46412659 11.81894653 -21.46412659 11.13894653 C-21.95397034 11.46636841 -22.44381409 11.79379028 -22.94850159 12.13113403 C-26.50682221 13.55667242 -29.94615669 13.35049001 -33.71412659 13.26394653 C-34.45920471 13.2549231 -35.20428284 13.24589966 -35.97193909 13.23660278 C-37.80280717 13.21313012 -39.63350897 13.17726179 -41.46412659 13.13894653 C-40.47412659 13.79894653 -39.48412659 14.45894653 -38.46412659 15.13894653 C-38.46412659 15.79894653 -38.46412659 16.45894653 -38.46412659 17.13894653 C-37.39162659 17.24207153 -36.31912659 17.34519653 -35.21412659 17.45144653 C-31.46412659 18.13894653 -31.46412659 18.13894653 -29.56861877 19.66360474 C-26.88399146 21.54564683 -25.29423978 21.48611509 -22.04225159 21.43191528 C-21.0174469 21.42224731 -19.99264221 21.41257935 -18.93678284 21.40261841 C-17.87330627 21.37748169 -16.80982971 21.35234497 -15.71412659 21.32644653 C-14.09570862 21.3061438 -14.09570862 21.3061438 -12.44459534 21.28543091 C-9.78393239 21.25011237 -7.12428363 21.20078852 -4.46412659 21.13894653 C-3.96912659 22.62394653 -3.96912659 22.62394653 -3.46412659 24.13894653 C-9.33239421 24.98015462 -15.03877713 25.32169104 -20.96412659 25.32644653 C-21.76721252 25.33869263 -22.57029846 25.35093872 -23.39772034 25.36355591 C-28.76511659 25.37660468 -33.28698634 24.52068329 -38.46412659 23.13894653 C-38.95912659 23.63394653 -38.95912659 23.63394653 -39.46412659 24.13894653 C-41.79710092 24.17987591 -44.13117883 24.18136377 -46.46412659 24.13894653 C-46.46412659 23.14894653 -46.46412659 22.15894653 -46.46412659 21.13894653 C-44.81412659 20.80894653 -43.16412659 20.47894653 -41.46412659 20.13894653 C-43.44412659 19.47894653 -45.42412659 18.81894653 -47.46412659 18.13894653 C-47.46412659 17.47894653 -47.46412659 16.81894653 -47.46412659 16.13894653 C-48.45412659 16.46894653 -49.44412659 16.79894653 -50.46412659 17.13894653 C-50.79412659 18.78894653 -51.12412659 20.43894653 -51.46412659 22.13894653 C-53.11412659 22.46894653 -54.76412659 22.79894653 -56.46412659 23.13894653 C-56.46412659 22.47894653 -56.46412659 21.81894653 -56.46412659 21.13894653 C-57.33037659 21.32457153 -58.19662659 21.51019653 -59.08912659 21.70144653 C-62.51565286 22.14562587 -65.1062503 21.85849145 -68.46412659 21.13894653 C-68.13412659 20.14894653 -67.80412659 19.15894653 -67.46412659 18.13894653 C-68.45412659 17.80894653 -69.44412659 17.47894653 -70.46412659 17.13894653 C-70.79412659 16.14894653 -71.12412659 15.15894653 -71.46412659 14.13894653 C-70.80412659 13.80894653 -70.14412659 13.47894653 -69.46412659 13.13894653 C-70.12412659 12.47894653 -70.78412659 11.81894653 -71.46412659 11.13894653 C-69.56837408 11.11173477 -67.6725068 11.09245517 -65.77662659 11.07644653 C-64.7208844 11.06484497 -63.66514221 11.05324341 -62.57740784 11.04129028 C-59.72252385 11.13084122 -57.25282404 11.58120704 -54.46412659 12.13894653 C-52.36089125 12.20492004 -50.25576934 12.22456898 -48.15162659 12.20144653 C-47.08299377 12.1924231 -46.01436096 12.18339966 -44.91334534 12.17410278 C-43.70098206 12.15670044 -43.70098206 12.15670044 -42.46412659 12.13894653 C-43.12412659 11.68519653 -43.78412659 11.23144653 -44.46412659 10.76394653 C-45.12412659 10.22769653 -45.78412659 9.69144653 -46.46412659 9.13894653 C-46.46412659 8.47894653 -46.46412659 7.81894653 -46.46412659 7.13894653 C-39.68149307 4.42589313 -34.2263186 4.29170779 -27.46412659 7.13894653 C-24.25542425 7.30652411 -24.25542425 7.30652411 -21.46412659 7.13894653 C-24.76412659 6.14894653 -28.06412659 5.15894653 -31.46412659 4.13894653 C-31.46412659 3.80894653 -31.46412659 3.47894653 -31.46412659 3.13894653 C-25.54602273 1.99165661 -19.66327063 1.78744205 -13.65748596 1.53347778 C-8.71703684 1.29724856 -4.97292873 0.01877312 0 0 Z " fill="#87AEC8" transform="translate(238.46412658691406,16.861053466796875)"/>
<path d="M0 0 C2.70894767 -0.08144943 5.41541263 -0.14070614 8.125 -0.1875 C8.88554687 -0.21263672 9.64609375 -0.23777344 10.4296875 -0.26367188 C15.4024261 -0.32797453 18.63616482 0.34405558 23 3 C22.67 3.66 22.34 4.32 22 5 C21.34 5 20.68 5 20 5 C20 5.66 20 6.32 20 7 C21.65 6.67 23.3 6.34 25 6 C24.505 5.01 24.505 5.01 24 4 C25.98 4.66 27.96 5.32 30 6 C30 6.99 30 7.98 30 9 C29.34 9 28.68 9 28 9 C27.67 9.99 27.34 10.98 27 12 C26.37351563 12.03738281 25.74703125 12.07476562 25.1015625 12.11328125 C24.28429687 12.17902344 23.46703125 12.24476562 22.625 12.3125 C21.40683594 12.39951172 21.40683594 12.39951172 20.1640625 12.48828125 C17.62078662 12.82990528 17.62078662 12.82990528 16 16 C16.86882812 15.89300781 17.73765625 15.78601563 18.6328125 15.67578125 C30.07908612 14.48506151 30.07908612 14.48506151 35 18 C34.01 18.495 34.01 18.495 33 19 C32.67 19.66 32.34 20.32 32 21 C27.38 20.34 22.76 19.68 18 19 C18.37125 20.44375 18.7425 21.8875 19.125 23.375 C19.7578125 25.8359375 19.7578125 25.8359375 20 28 C19.34 28.66 18.68 29.32 18 30 C19.32 30.99 20.64 31.98 22 33 C21.3125 34.9375 21.3125 34.9375 20 37 C17.375 37.75 17.375 37.75 15 38 C15.66 40.31 16.32 42.62 17 45 C16.01 45.66 15.02 46.32 14 47 C10.54832597 44.52187506 8.76836694 43.20393865 8 39 C6.783125 38.7525 5.56625 38.505 4.3125 38.25 C-0.88562036 37.1049307 -5.91770933 35.52392153 -10.984375 33.90234375 C-13.65027129 33.1046468 -16.26354355 32.49154866 -19 32 C-19.33 30.68 -19.66 29.36 -20 28 C-21.32 28 -22.64 28 -24 28 C-24.3405626 24.93493663 -24.34245558 23.47087642 -22.5 20.9375 C-17.89040799 17.36506619 -13.03117692 14.24610288 -7 15 C-6.5359375 14.0409375 -6.5359375 14.0409375 -6.0625 13.0625 C-5 11 -5 11 -4 10 C-1.98688551 9.60430892 0.03597208 9.25747809 2.0625 8.9375 C3.16722656 8.76089844 4.27195313 8.58429687 5.41015625 8.40234375 C6.26480469 8.26957031 7.11945313 8.13679688 8 8 C8 7.34 8 6.68 8 6 C7.01 6 6.02 6 5 6 C5 5.34 5 4.68 5 4 C5.66 4 6.32 4 7 4 C7 3.34 7 2.68 7 2 C4.69 1.67 2.38 1.34 0 1 C0 0.67 0 0.34 0 0 Z " fill="#4C84A9" transform="translate(223,53)"/>
<path d="M0 0 C0 16.5 0 33 0 50 C-1.32 49.67 -2.64 49.34 -4 49 C-4.495 47.02 -4.495 47.02 -5 45 C-5.66 45 -6.32 45 -7 45 C-6.51421457 41.87709365 -6.0013988 39.00419641 -5 36 C-6.32 35.67 -7.64 35.34 -9 35 C-9.144375 34.360625 -9.28875 33.72125 -9.4375 33.0625 C-9.81007181 31.02454854 -9.81007181 31.02454854 -11 30 C-11.04080783 28.00041636 -11.04254356 25.99954746 -11 24 C-11.639375 23.7525 -12.27875 23.505 -12.9375 23.25 C-16 22 -16 22 -17.89208984 21.02709961 C-23.89750873 18.03402085 -29.03336203 17.38404987 -35.6875 17.3125 C-37.50398254 17.27007684 -39.32039646 17.22458584 -41.13671875 17.17578125 C-41.97638184 17.15467285 -42.81604492 17.13356445 -43.68115234 17.11181641 C-46.50598611 16.97560101 -49.2304918 16.56492456 -52 16 C-52 15.34 -52 14.68 -52 14 C-53.65 13.67 -55.3 13.34 -57 13 C-57 12.34 -57 11.68 -57 11 C-55.80761719 10.86722656 -54.61523438 10.73445313 -53.38671875 10.59765625 C-51.82029322 10.41944017 -50.25388802 10.24104544 -48.6875 10.0625 C-47.90181641 9.97548828 -47.11613281 9.88847656 -46.30664062 9.79882812 C-45.1706543 9.66831055 -45.1706543 9.66831055 -44.01171875 9.53515625 C-43.31522217 9.456604 -42.61872559 9.37805176 -41.90112305 9.29711914 C-39.78351766 9.02003217 -39.78351766 9.02003217 -37 8 C-36.67 7.34 -36.34 6.68 -36 6 C-38.64 6 -41.28 6 -44 6 C-41.22957891 3.22957891 -39.23466195 3.60203894 -35.375 3.375 C-34.18648438 3.30023437 -32.99796875 3.22546875 -31.7734375 3.1484375 C-30.85820312 3.09945313 -29.94296875 3.05046875 -29 3 C-29 2.34 -29 1.68 -29 1 C-19.08663847 -1.45640817 -10.09662405 -1.44237486 0 0 Z " fill="#90B2C8" transform="translate(310,20)"/>
<path d="M0 0 C3.3 0 6.6 0 10 0 C9.67 1.32 9.34 2.64 9 4 C5.7 4.33 2.4 4.66 -1 5 C0.0725 5.495 1.145 5.99 2.25 6.5 C2.85328125 6.7784375 3.4565625 7.056875 4.078125 7.34375 C6.29242836 8.21542924 6.29242836 8.21542924 10 8 C10 7.34 10 6.68 10 6 C10.5775 6.165 11.155 6.33 11.75 6.5 C15.69359202 7.37635378 19.12701679 6.86066294 23 6 C23.495 7.485 23.495 7.485 24 9 C27.96 9 31.92 9 36 9 C36 9.66 36 10.32 36 11 C38.52363988 10.37466625 38.52363988 10.37466625 41 9 C41.89386164 6.45224694 41.89386164 6.45224694 42 4 C42.99 4 43.98 4 45 4 C45 4.66 45 5.32 45 6 C49.95 6.99 49.95 6.99 55 8 C55 8.33 55 8.66 55 9 C52.03 9 49.06 9 46 9 C46 9.99 46 10.98 46 12 C46.99 12.33 47.98 12.66 49 13 C49.19622241 17.21878192 48.80230168 20.17010894 47 24 C48.32 24.66 49.64 25.32 51 26 C50.67 27.32 50.34 28.64 50 30 C49.34 30 48.68 30 48 30 C48 30.66 48 31.32 48 32 C46.68 31.67 45.36 31.34 44 31 C44 28 44 28 45 26 C43.35 25.67 41.7 25.34 40 25 C40.495 27.475 40.495 27.475 41 30 C38.58325776 30.02705308 36.1668206 30.04686438 33.75 30.0625 C32.72712891 30.07506836 32.72712891 30.07506836 31.68359375 30.08789062 C28.30657446 30.10428392 25.22708361 30.05628768 22 29 C22 28.34 22 27.68 22 27 C19.50447516 27.78130071 19.50447516 27.78130071 17 29 C16.505 30.485 16.505 30.485 16 32 C15.67 31.67 15.34 31.34 15 31 C13.58672053 30.84379445 12.1664541 30.74943827 10.74609375 30.68359375 C9.46508789 30.62075195 9.46508789 30.62075195 8.15820312 30.55664062 C7.26037109 30.51732422 6.36253906 30.47800781 5.4375 30.4375 C4.08495117 30.37272461 4.08495117 30.37272461 2.70507812 30.30664062 C0.47021515 30.20021858 -1.76476308 30.09820012 -4 30 C-3.34 29.67 -2.68 29.34 -2 29 C-2 28.34 -2 27.68 -2 27 C-2.66 26.67 -3.32 26.34 -4 26 C-2.84242188 26.01160156 -1.68484375 26.02320312 -0.4921875 26.03515625 C1.04687338 26.04454077 2.58593601 26.05364026 4.125 26.0625 C5.26582031 26.07506836 5.26582031 26.07506836 6.4296875 26.08789062 C9.78239414 26.10234195 12.84457487 26.02769953 16.15625 25.4375 C19.48012809 24.92613414 22.0794215 25.31500184 25.375 25.9375 C26.43460938 26.13214844 27.49421875 26.32679687 28.5859375 26.52734375 C29.38257813 26.68332031 30.17921875 26.83929688 31 27 C30.34 26.34 29.68 25.68 29 25 C29.495 24.505 29.495 24.505 30 24 C29.030625 23.46375 28.06125 22.9275 27.0625 22.375 C24 20 24 20 23.125 16.75 C23.08375 15.8425 23.0425 14.935 23 14 C20.6568787 14.25561323 18.32156597 14.59270772 16 15 C15.67 15.66 15.34 16.32 15 17 C13.35 16.67 11.7 16.34 10 16 C10 16.66 10 17.32 10 18 C9.01 18 8.02 18 7 18 C7 17.34 7 16.68 7 16 C5.9275 16.020625 4.855 16.04125 3.75 16.0625 C0.85209576 16.0142016 -1.28612141 15.86844115 -4 15 C-4 14.34 -4 13.68 -4 13 C-5.299375 13.020625 -6.59875 13.04125 -7.9375 13.0625 C-9.29165633 13.08399454 -10.64756083 13.07148199 -12 13 C-12.33 12.67 -12.66 12.34 -13 12 C-14.51469448 11.76807135 -16.03754562 11.58784762 -17.5625 11.4375 C-18.38878906 11.35371094 -19.21507813 11.26992188 -20.06640625 11.18359375 C-20.70449219 11.12300781 -21.34257813 11.06242187 -22 11 C-21.67 9.35 -21.34 7.7 -21 6 C-15.50106019 3.90516579 -10.9738616 2.63425337 -5 3 C-2.78918149 3.10540926 -2.78918149 3.10540926 0 2 C0 1.34 0 0.68 0 0 Z " fill="#4C83A8" transform="translate(146,29)"/>
<path d="M0 0 C3.70014225 1.60023246 6.91022716 3.38841411 9.19921875 6.7734375 C11.34703631 12.74541803 10.93258783 19.91961177 8.375 25.625 C4.25549165 29.74450835 0.76376233 31.16921677 -5 31.4375 C-9.71039506 31.28166738 -12.43152073 30.22033495 -16 27 C-19.90197176 21.56711109 -19.78212141 16.47666831 -19 10 C-15.26885477 1.9636872 -8.64567919 -1.70580854 0 0 Z " fill="#F3F6F8" transform="translate(139,313)"/>
<path d="M0 0 C2.31 0 4.62 0 7 0 C7 10.23 7 20.46 7 31 C0 31 0 31 -1.88037109 29.37939453 C-2.34008301 28.63802246 -2.79979492 27.89665039 -3.2734375 27.1328125 C-3.78777344 26.32972656 -4.30210937 25.52664063 -4.83203125 24.69921875 C-5.59580078 23.42498047 -5.59580078 23.42498047 -6.375 22.125 C-6.90738281 21.28324219 -7.43976563 20.44148438 -7.98828125 19.57421875 C-11.52581522 13.94836957 -11.52581522 13.94836957 -13 11 C-13.33 17.27 -13.66 23.54 -14 30 C-15.98 30 -17.96 30 -20 30 C-20 20.43 -20 10.86 -20 1 C-12 1 -12 1 -10.08203125 2.56054688 C-9.66308594 3.27275391 -9.24414062 3.98496094 -8.8125 4.71875 C-8.34199219 5.48574219 -7.87148437 6.25273437 -7.38671875 7.04296875 C-6.92910156 7.85378906 -6.47148437 8.66460937 -6 9.5 C-5.51144531 10.31082031 -5.02289063 11.12164062 -4.51953125 11.95703125 C-3.32021071 13.95589881 -2.15652969 15.97607304 -1 18 C-0.67 12.06 -0.34 6.12 0 0 Z " fill="#F0F4F6" transform="translate(175,313)"/>
<path d="M0 0 C1.98 0 3.96 0 6 0 C6.495 0.99 6.495 0.99 7 2 C5.35 2.33 3.7 2.66 2 3 C2.99 3.66 3.98 4.32 5 5 C5 5.66 5 6.32 5 7 C6.0725 7.103125 7.145 7.20625 8.25 7.3125 C12 8 12 8 13.89550781 9.5246582 C16.58013512 11.4067003 18.1698868 11.34716855 21.421875 11.29296875 C22.44667969 11.28330078 23.47148437 11.27363281 24.52734375 11.26367188 C25.59082031 11.23853516 26.65429688 11.21339844 27.75 11.1875 C29.36841797 11.16719727 29.36841797 11.16719727 31.01953125 11.14648438 C33.6801942 11.11116584 36.33984296 11.06184199 39 11 C39.495 12.485 39.495 12.485 40 14 C34.13173238 14.84120809 28.42534945 15.1827445 22.5 15.1875 C21.69691406 15.19974609 20.89382812 15.21199219 20.06640625 15.22460938 C14.69901 15.23765815 10.17714025 14.38173675 5 13 C4.67 13.33 4.34 13.66 4 14 C1.66702567 14.04092937 -0.66705225 14.04241723 -3 14 C-3 13.01 -3 12.02 -3 11 C-1.35 10.67 0.3 10.34 2 10 C0.02 9.34 -1.96 8.68 -4 8 C-4 7.34 -4 6.68 -4 6 C-4.99 6.33 -5.98 6.66 -7 7 C-7.33 8.65 -7.66 10.3 -8 12 C-9.65 12.33 -11.3 12.66 -13 13 C-13 12.34 -13 11.68 -13 11 C-13.86625 11.185625 -14.7325 11.37125 -15.625 11.5625 C-19.05152628 12.00667933 -21.64212371 11.71954492 -25 11 C-24.67 10.01 -24.34 9.02 -24 8 C-24.99 7.67 -25.98 7.34 -27 7 C-27.33 6.01 -27.66 5.02 -28 4 C-27.34 3.67 -26.68 3.34 -26 3 C-26.66 2.34 -27.32 1.68 -28 1 C-26.10424749 0.97278824 -24.20838021 0.95350864 -22.3125 0.9375 C-21.25675781 0.92589844 -20.20101562 0.91429688 -19.11328125 0.90234375 C-16.25839726 0.99189469 -13.78869745 1.44226051 -11 2 C-8.89676466 2.0659735 -6.79164276 2.08562245 -4.6875 2.0625 C-3.61886719 2.05347656 -2.55023438 2.04445313 -1.44921875 2.03515625 C-0.23685547 2.01775391 -0.23685547 2.01775391 1 2 C0.67 1.34 0.34 0.68 0 0 Z " fill="#4E85AA" transform="translate(195,27)"/>
<path d="M0 0 C6.93 0 13.86 0 21 0 C21 6.75 21 6.75 18.15625 10.3046875 C17.56972656 11.05234375 16.98320313 11.8 16.37890625 12.5703125 C15.75886719 13.33085937 15.13882813 14.09140625 14.5 14.875 C13.56994141 16.050625 13.56994141 16.050625 12.62109375 17.25 C11.09362547 19.17695999 9.54849985 21.08989991 8 23 C14.93 23.495 14.93 23.495 22 24 C22 25.98 22 27.96 22 30 C14.41 30 6.82 30 -1 30 C-1 23.25 -1 23.25 1.84375 19.4765625 C2.72353516 18.28740234 2.72353516 18.28740234 3.62109375 17.07421875 C4.55115234 15.86185547 4.55115234 15.86185547 5.5 14.625 C6.12003906 13.79355469 6.74007812 12.96210938 7.37890625 12.10546875 C8.90656425 10.06075727 10.45161699 8.02906236 12 6 C8.04 5.67 4.08 5.34 0 5 C0 3.35 0 1.7 0 0 Z " fill="#F2F5F7" transform="translate(95,314)"/>
<path d="M0 0 C6.27 0 12.54 0 19 0 C19 1.65 19 3.3 19 5 C14.71 5 10.42 5 6 5 C6 7.31 6 9.62 6 12 C9.96 12 13.92 12 18 12 C18 13.65 18 15.3 18 17 C14.04 17 10.08 17 6 17 C6 19.31 6 21.62 6 24 C10.62 24 15.24 24 20 24 C20 25.65 20 27.3 20 29 C13.4 29 6.8 29 0 29 C0 19.43 0 9.86 0 0 Z " fill="#FAFBFB" transform="translate(189,314)"/>
<path d="M0 0 C3.76120287 1.18408239 4.45193116 1.75118029 6.375 5.0625 C7.32513223 10.37532273 7.22507602 14.72298627 4.3125 19.3125 C1.375 21.0625 1.375 21.0625 -2.25 21.1875 C-5.625 20.0625 -5.625 20.0625 -7.5625 18.125 C-9.09816738 13.69866462 -9.42022836 9.68997171 -8.625 5.0625 C-5.99452609 0.99722214 -4.86569582 0.08389131 0 0 Z " fill="#4981A5" transform="translate(135.625,317.9375)"/>
<path d="M0 0 C3.3 0 6.6 0 10 0 C9.67 1.32 9.34 2.64 9 4 C5.7 4.33 2.4 4.66 -1 5 C0.0725 5.495 1.145 5.99 2.25 6.5 C2.85328125 6.7784375 3.4565625 7.056875 4.078125 7.34375 C6.29242836 8.21542924 6.29242836 8.21542924 10 8 C10 7.34 10 6.68 10 6 C10.5775 6.165 11.155 6.33 11.75 6.5 C14.26664369 7.14462031 14.26664369 7.14462031 18 7 C18.99 7.33 19.98 7.66 21 8 C21 8.66 21 9.32 21 10 C19.55367187 10.07347656 19.55367187 10.07347656 18.078125 10.1484375 C16.81484375 10.22320312 15.5515625 10.29796875 14.25 10.375 C12.37054688 10.47941406 12.37054688 10.47941406 10.453125 10.5859375 C7.32389193 10.96116228 5.68288015 11.51353938 3 13 C2.01 13 1.02 13 0 13 C-0.33 12.34 -0.66 11.68 -1 11 C-1.66 11 -2.32 11 -3 11 C-3.33 12.32 -3.66 13.64 -4 15 C-4 14.34 -4 13.68 -4 13 C-5.299375 13.020625 -6.59875 13.04125 -7.9375 13.0625 C-9.29165633 13.08399454 -10.64756083 13.07148199 -12 13 C-12.33 12.67 -12.66 12.34 -13 12 C-14.51469448 11.76807135 -16.03754562 11.58784762 -17.5625 11.4375 C-18.38878906 11.35371094 -19.21507813 11.26992188 -20.06640625 11.18359375 C-20.70449219 11.12300781 -21.34257813 11.06242187 -22 11 C-21.67 9.35 -21.34 7.7 -21 6 C-15.50106019 3.90516579 -10.9738616 2.63425337 -5 3 C-2.78918149 3.10540926 -2.78918149 3.10540926 0 2 C0 1.34 0 0.68 0 0 Z " fill="#467EA3" transform="translate(146,29)"/>
<path d="M0 0 C1.20628008 2.33214148 2.1654738 4.49642139 3 7 C6.51190809 8.22969878 6.51190809 8.22969878 10 9 C9.01 9.66 8.02 10.32 7 11 C7.99 12.485 7.99 12.485 9 14 C7.87980469 13.84402344 6.75960937 13.68804687 5.60546875 13.52734375 C4.13286041 13.33037066 2.66020144 13.13377577 1.1875 12.9375 C0.44951172 12.83373047 -0.28847656 12.72996094 -1.04882812 12.62304688 C-4.43174779 12.17913434 -6.72055025 11.90685008 -10 13 C-11.89470816 13.0685495 -13.7916834 13.08480372 -15.6875 13.0625 C-16.68136719 13.05347656 -17.67523438 13.04445313 -18.69921875 13.03515625 C-19.83810547 13.01775391 -19.83810547 13.01775391 -21 13 C-21 12.01 -21 11.02 -21 10 C-20.34 10 -19.68 10 -19 10 C-18.67 8.35 -18.34 6.7 -18 5 C-16.35 4.67 -14.7 4.34 -13 4 C-13 3.34 -13 2.68 -13 2 C-12.29875 2.04125 -11.5975 2.0825 -10.875 2.125 C-7.02709755 1.95769989 -3.77695424 0 0 0 Z " fill="#85AECB" transform="translate(169,43)"/>
<path d="M0 0 C0.76166977 0.00222061 1.52333954 0.00444122 2.30809021 0.00672913 C3.16890701 0.00680466 4.02972382 0.00688019 4.91662598 0.00695801 C5.8520372 0.01211929 6.78744843 0.01728058 7.75120544 0.02259827 C8.70422043 0.02401321 9.65723541 0.02542816 10.63912964 0.02688599 C13.69605085 0.032503 16.75289996 0.04505836 19.80979919 0.05775452 C21.87685543 0.06276733 23.94391281 0.06733061 26.01097107 0.07142639 C31.08977507 0.08247795 36.16852489 0.09975397 41.24729919 0.12025452 C41.24729919 0.45025452 41.24729919 0.78025452 41.24729919 1.12025452 C29.69729919 1.12025452 18.14729919 1.12025452 6.24729919 1.12025452 C6.74229919 2.60525452 6.74229919 2.60525452 7.24729919 4.12025452 C8.56729919 4.12025452 9.88729919 4.12025452 11.24729919 4.12025452 C11.57729919 3.46025452 11.90729919 2.80025452 12.24729919 2.12025452 C12.24729919 3.11025452 12.24729919 4.10025452 12.24729919 5.12025452 C3.42364175 7.54639928 -4.60765236 8.52437286 -13.75270081 8.12025452 C-13.75270081 8.78025452 -13.75270081 9.44025452 -13.75270081 10.12025452 C-11.44270081 10.45025452 -9.13270081 10.78025452 -6.75270081 11.12025452 C-6.75270081 11.45025452 -6.75270081 11.78025452 -6.75270081 12.12025452 C-9.72270081 11.79025452 -12.69270081 11.46025452 -15.75270081 11.12025452 C-16.08270081 9.80025452 -16.41270081 8.48025452 -16.75270081 7.12025452 C-19.06585406 5.97731897 -19.06585406 5.97731897 -21.81520081 5.37025452 C-22.73430237 5.12791077 -23.65340393 4.88556702 -24.60035706 4.63587952 C-25.31063049 4.46572327 -26.02090393 4.29556702 -26.75270081 4.12025452 C-26.75270081 3.79025452 -26.75270081 3.46025452 -26.75270081 3.12025452 C-20.83459695 1.97296459 -14.95184485 1.76875004 -8.94606018 1.51478577 C-5.64648786 1.35701561 -2.90731483 0.19947371 0 0 Z " fill="#6E9CB9" transform="translate(233.75270080566406,16.879745483398438)"/>
<path d="M0 0 C2.58492789 0.08716617 5.16647502 0.19405119 7.75 0.3125 C8.84441406 0.34633789 8.84441406 0.34633789 9.9609375 0.38085938 C15.57417169 0.66152108 15.57417169 0.66152108 17.90429688 2.51367188 C20.58302711 4.41349825 22.16534804 4.3472442 25.421875 4.29296875 C26.44667969 4.28330078 27.47148437 4.27363281 28.52734375 4.26367188 C29.59082031 4.23853516 30.65429688 4.21339844 31.75 4.1875 C33.36841797 4.16719727 33.36841797 4.16719727 35.01953125 4.14648438 C37.6801942 4.11116584 40.33984296 4.06184199 43 4 C43.495 5.485 43.495 5.485 44 7 C38.13173238 7.84120809 32.42534945 8.1827445 26.5 8.1875 C25.69691406 8.19974609 24.89382812 8.21199219 24.06640625 8.22460938 C18.69901 8.23765815 14.17714025 7.38173675 9 6 C8.67 6.33 8.34 6.66 8 7 C5.66702567 7.04092937 3.33294775 7.04241723 1 7 C1 6.01 1 5.02 1 4 C2.65 3.67 4.3 3.34 6 3 C4.02 2.34 2.04 1.68 0 1 C0 0.67 0 0.34 0 0 Z " fill="#79A4C2" transform="translate(191,34)"/>
<path d="M0 0 C0 6.27 0 12.54 0 19 C-1.32 18.67 -2.64 18.34 -4 18 C-4.33 16.68 -4.66 15.36 -5 14 C-5.66 14 -6.32 14 -7 14 C-6.51421457 10.87709365 -6.0013988 8.00419641 -5 5 C-6.32 4.67 -7.64 4.34 -9 4 C-9.33 2.35 -9.66 0.7 -10 -1 C-5.77213125 -2.62610337 -4.96360209 -1.65453403 0 0 Z " fill="#789DB5" transform="translate(310,51)"/>
<path d="M0 0 C0.33 0 0.66 0 1 0 C0.125 6.75 0.125 6.75 -1 9 C-0.29875 8.79375 0.4025 8.5875 1.125 8.375 C4.60186072 7.92149643 6.77398123 8.72459723 10 10 C10 12.31 10 14.62 10 17 C7.03 16.67 4.06 16.34 1 16 C1 15.34 1 14.68 1 14 C-2.3 14 -5.6 14 -9 14 C-8.40251953 13.11248047 -8.40251953 13.11248047 -7.79296875 12.20703125 C-5.52085007 8.81820217 -3.26607542 5.44957571 -1.1875 1.9375 C-0.795625 1.298125 -0.40375 0.65875 0 0 Z " fill="#7EAAC9" transform="translate(300,96)"/>
<path d="M0 0 C0.33 0.66 0.66 1.32 1 2 C1.66 2 2.32 2 3 2 C3 3.98 3 5.96 3 8 C3.99 7.67 4.98 7.34 6 7 C6.22786458 8.98567708 6.45572917 10.97135417 6.68359375 12.95703125 C6.97170735 15.19396393 6.97170735 15.19396393 8 18 C7.34 18 6.68 18 6 18 C6 18.66 6 19.32 6 20 C6.99 20 7.98 20 9 20 C9 20.99 9 21.98 9 23 C9.66 23.33 10.32 23.66 11 24 C6.59124045 23.49614177 4.17449034 22.0886933 1 19 C-1.0329721 15.01817878 -1.24269932 11.6860179 -1.1875 7.25 C-1.18105469 6.10015625 -1.17460937 4.9503125 -1.16796875 3.765625 C-1 1 -1 1 0 0 Z " fill="#7CA7C2" transform="translate(256,344)"/>
<path d="M0 0 C0.33 0 0.66 0 1 0 C1.3403125 1.6396875 1.3403125 1.6396875 1.6875 3.3125 C2.65276599 7.09926675 2.65276599 7.09926675 5.5 8.875 C6.325 9.24625 7.15 9.6175 8 10 C8.66 10.33 9.32 10.66 10 11 C10 11.66 10 12.32 10 13 C3.43592388 14.31281522 -0.83354621 13.52653315 -7 11 C-6.8125 8.625 -6.8125 8.625 -6 6 C-4.34795544 5.29788106 -2.68076231 4.63028587 -1 4 C-0.11306697 1.95894361 -0.11306697 1.95894361 0 0 Z " fill="#83ACC7" transform="translate(272,356)"/>
<path d="M0 0 C-0.99 0 -1.98 0 -3 0 C-3 0.66 -3 1.32 -3 2 C-2.33613281 1.67257813 -1.67226562 1.34515625 -0.98828125 1.0078125 C2.66487912 -0.22423374 6.01055042 -0.21959396 9.8125 -0.125 C10.85180664 -0.11146484 10.85180664 -0.11146484 11.91210938 -0.09765625 C13.60822395 -0.07426157 15.30415871 -0.03839641 17 0 C13.62737086 2.83414213 11.43634129 4.49298957 7 5 C7 5.66 7 6.32 7 7 C6.01 7 5.02 7 4 7 C4 6.34 4 5.68 4 5 C2.906875 5.020625 1.81375 5.04125 0.6875 5.0625 C-3 5 -3 5 -6 4 C-6 2.68 -6 1.36 -6 0 C-3.50907189 -1.24546405 -2.58919267 -0.7767578 0 0 Z " fill="#457CA2" transform="translate(149,40)"/>
<path d="M0 0 C1.1127832 -0.01836914 1.1127832 -0.01836914 2.24804688 -0.03710938 C6.43971335 -0.04830706 9.60728477 0.26860009 13.4375 2.1875 C13.4375 2.8475 13.4375 3.5075 13.4375 4.1875 C4.45603187 5.83715741 -6.17714081 6.11563193 -14.5625 2.1875 C-14.5625 1.8575 -14.5625 1.5275 -14.5625 1.1875 C-9.66173636 0.21666727 -4.97287688 0.00434312 0 0 Z " fill="#8BB1C9" transform="translate(221.5625,18.8125)"/>
<path d="M0 0 C0.66 0.66 1.32 1.32 2 2 C4.09847643 2.49917209 4.09847643 2.49917209 6.4375 2.6875 C7.61119141 2.81705078 7.61119141 2.81705078 8.80859375 2.94921875 C11.18032006 3.12773817 11.18032006 3.12773817 14 2 C14 3.32 14 4.64 14 6 C11.91999989 6.84161854 9.83585854 7.67300763 7.75 8.5 C6.58984375 8.9640625 5.4296875 9.428125 4.234375 9.90625 C1 11 1 11 -3 11 C-3 10.34 -3 9.68 -3 9 C-2.34 8.67 -1.68 8.34 -1 8 C-1.33 7.34 -1.66 6.68 -2 6 C-1.34 6 -0.68 6 0 6 C-0.185625 5.38125 -0.37125 4.7625 -0.5625 4.125 C-1 2 -1 2 0 0 Z " fill="#76A5C3" transform="translate(277,109)"/>
<path d="M0 0 C5.0302076 0.52537724 10.01885239 1.10594786 15 2 C15 1.34 15 0.68 15 0 C15.5775 0.165 16.155 0.33 16.75 0.5 C19.26664369 1.14462031 19.26664369 1.14462031 23 1 C23.99 1.33 24.98 1.66 26 2 C26 2.66 26 3.32 26 4 C24.55367187 4.07347656 24.55367187 4.07347656 23.078125 4.1484375 C21.81484375 4.22320312 20.5515625 4.29796875 19.25 4.375 C17.37054688 4.47941406 17.37054688 4.47941406 15.453125 4.5859375 C12.32389193 4.96116228 10.68288015 5.51353938 8 7 C7.01 7 6.02 7 5 7 C5 6.34 5 5.68 5 5 C2.69 4.67 0.38 4.34 -2 4 C-1.34 2.68 -0.68 1.36 0 0 Z " fill="#78A4C4" transform="translate(141,35)"/>
<path d="M0 0 C1.425436 0.7357089 2.84341188 1.48603599 4.25390625 2.25 C4.98544922 2.6315625 5.71699219 3.013125 6.47070312 3.40625 C8.2593029 4.34146557 10.03883221 5.29399379 11.81640625 6.25 C11.81640625 6.58 11.81640625 6.91 11.81640625 7.25 C8.84640625 7.25 5.87640625 7.25 2.81640625 7.25 C2.48640625 6.26 2.15640625 5.27 1.81640625 4.25 C-3.81482069 1.64040703 -10.25259871 1.27300165 -16.18359375 3.25 C-15.37109375 1.3125 -15.37109375 1.3125 -14.18359375 -0.75 C-9.04114419 -2.46414985 -4.88285825 -2.29675601 0 0 Z " fill="#85ADCA" transform="translate(243.18359375,170.75)"/>
<path d="M0 0 C0 0.99 0 1.98 0 3 C-0.66 3 -1.32 3 -2 3 C-2 2.34 -2 1.68 -2 1 C-4.49552484 1.78130071 -4.49552484 1.78130071 -7 3 C-7.33 3.99 -7.66 4.98 -8 6 C-8.33 5.67 -8.66 5.34 -9 5 C-10.41327947 4.84379445 -11.8335459 4.74943827 -13.25390625 4.68359375 C-14.10791016 4.64169922 -14.96191406 4.59980469 -15.84179688 4.55664062 C-16.73962891 4.51732422 -17.63746094 4.47800781 -18.5625 4.4375 C-19.46419922 4.39431641 -20.36589844 4.35113281 -21.29492188 4.30664062 C-23.52978485 4.20021858 -25.76476308 4.09820012 -28 4 C-27.34 3.67 -26.68 3.34 -26 3 C-26 2.34 -26 1.68 -26 1 C-26.66 0.67 -27.32 0.34 -28 0 C-26.21142578 0.01740234 -26.21142578 0.01740234 -24.38671875 0.03515625 C-22.82031406 0.04453592 -21.25390769 0.05363593 -19.6875 0.0625 C-18.50897461 0.07506836 -18.50897461 0.07506836 -17.30664062 0.08789062 C-16.1706543 0.09272461 -16.1706543 0.09272461 -15.01171875 0.09765625 C-13.96697388 0.10551147 -13.96697388 0.10551147 -12.90112305 0.11352539 C-3.16933813 -0.46760726 -3.16933813 -0.46760726 0 0 Z " fill="#6695B5" transform="translate(170,55)"/>
<path d="M0 0 C0.66 0 1.32 0 2 0 C2.33 1.32 2.66 2.64 3 4 C4.98 4 6.96 4 9 4 C9 4.66 9 5.32 9 6 C9.66 6 10.32 6 11 6 C11 6.66 11 7.32 11 8 C11.66 8 12.32 8 13 8 C13 8.66 13 9.32 13 10 C14.65 10 16.3 10 18 10 C17.67 10.66 17.34 11.32 17 12 C16.34 12 15.68 12 15 12 C15 12.66 15 13.32 15 14 C11.88452559 13.32116957 9.14862279 12.25893098 6.25 10.9375 C5.45078125 10.57527344 4.6515625 10.21304688 3.828125 9.83984375 C3.22484375 9.56269531 2.6215625 9.28554687 2 9 C2.33 8.01 2.66 7.02 3 6 C2.04701223 4.63266972 1.04625409 3.29735507 0 2 C0 1.34 0 0.68 0 0 Z " fill="#548CB0" transform="translate(243,164)"/>
<path d="M0 0 C2.97 0 5.94 0 9 0 C9.38133299 1.9914056 9.71325582 3.99279077 10 6 C9.67 6.33 9.34 6.66 9 7 C7.20643446 6.98831553 5.41306914 6.89079285 3.625 6.75 C2.15933594 6.64945313 2.15933594 6.64945313 0.6640625 6.546875 C-2.23563695 5.95162878 -3.19508499 5.28377002 -5 3 C-3.35 2.67 -1.7 2.34 0 2 C0 1.34 0 0.68 0 0 Z " fill="#7FA9C7" transform="translate(181,42)"/>
<path d="M0 0 C0.66 0.66 1.32 1.32 2 2 C4.06874034 2.6425235 4.06874034 2.6425235 6 3 C6 3.66 6 4.32 6 5 C6.99 5.33 7.98 5.66 9 6 C8.67 6.66 8.34 7.32 8 8 C6.68 7.67 5.36 7.34 4 7 C4 7.33 4 7.66 4 8 C1.6875 8.25 1.6875 8.25 -1 8 C-2.97610386 5.95575462 -4 4.8823175 -4 2 C-4.99 2 -5.98 2 -7 2 C-7 1.34 -7 0.68 -7 0 C-7.66 -0.33 -8.32 -0.66 -9 -1 C-5.19825711 -2.26724763 -3.6488868 -1.4750819 0 0 Z " fill="#6193B5" transform="translate(100,84)"/>
<path d="M0 0 C0.763125 0.309375 1.52625 0.61875 2.3125 0.9375 C7.14447683 2.84781642 11.35712179 3.33598781 16.50390625 3.71875 C19 4 19 4 21 5 C20.67 5.99 20.34 6.98 20 8 C18.35 8.33 16.7 8.66 15 9 C15 8.34 15 7.68 15 7 C14.13375 7.185625 13.2675 7.37125 12.375 7.5625 C8.94847372 8.00667933 6.35787629 7.71954492 3 7 C3.33 6.01 3.66 5.02 4 4 C3.01 3.67 2.02 3.34 1 3 C0.67 2.01 0.34 1.02 0 0 Z " fill="#6C99B9" transform="translate(167,31)"/>
<path d="M0 0 C3.17535891 1.53956795 4.34817194 3.99992589 6.0625 7 C6.0625 7.66 6.0625 8.32 6.0625 9 C4.0825 9.66 2.1025 10.32 0.0625 11 C-3.0291909 8.47043472 -3.84681332 5.77545388 -4.9375 2 C-1.9375 0 -1.9375 0 0 0 Z " fill="#7BA7C6" transform="translate(189.9375,93)"/>
<path d="M0 0 C3.63970867 -0.42820102 5.04569463 0.02586488 8.3125 1.875 C9.199375 2.57625 10.08625 3.2775 11 4 C11 4.66 11 5.32 11 6 C10.19175781 5.98839844 9.38351563 5.97679688 8.55078125 5.96484375 C6.94783203 5.95130859 6.94783203 5.95130859 5.3125 5.9375 C4.25675781 5.92589844 3.20101562 5.91429688 2.11328125 5.90234375 C-0.72410262 5.99134575 -3.2438919 6.35060162 -6 7 C-5 4 -5 4 -3 2.9375 C-2.34 2.628125 -1.68 2.31875 -1 2 C-0.67 1.34 -0.34 0.68 0 0 Z " fill="#4F85A8" transform="translate(215,105)"/>
<path d="M0 0 C0 3.96 0 7.92 0 12 C-1.32 11.67 -2.64 11.34 -4 11 C-4.33 9.68 -4.66 8.36 -5 7 C-5.66 7 -6.32 7 -7 7 C-6.67 5.02 -6.34 3.04 -6 1 C-3.92446352 0.4465236 -2.15634036 0 0 0 Z " fill="#90ADBD" transform="translate(310,58)"/>
<path d="M0 0 C1.65 0 3.3 0 5 0 C4.70100025 2.76574766 4.5031872 4.49286107 2.5078125 6.50390625 C-1.0892754 8.64983252 -4.84282777 9.56973037 -8.875 10.625 C-9.66519531 10.8415625 -10.45539062 11.058125 -11.26953125 11.28125 C-15.49187227 12.41938518 -19.6654882 13.37281984 -24 14 C-20.12390201 10.12390201 -14.1197139 9.01826696 -8.9375 7.5625 C-4.48520915 6.26878952 -0.91511767 4.46822636 3 2 C2.01 1.34 1.02 0.68 0 0 Z " fill="#6B98B6" transform="translate(35,82)"/>
<path d="M0 0 C5.80165739 0.97458672 10.83982722 2.01253155 16 5 C16 5.33 16 5.66 16 6 C15.25234375 5.98839844 14.5046875 5.97679688 13.734375 5.96484375 C12.74953125 5.95582031 11.7646875 5.94679688 10.75 5.9375 C9.77546875 5.92589844 8.8009375 5.91429688 7.796875 5.90234375 C5.0681883 5.89879262 5.0681883 5.89879262 2.765625 6.56640625 C1 7 1 7 -1 6 C-0.67 4.02 -0.34 2.04 0 0 Z " fill="#82ACC9" transform="translate(219,64)"/>
<path d="M0 0 C0 0.66 0 1.32 0 2 C-2.31 2 -4.62 2 -7 2 C-7 2.66 -7 3.32 -7 4 C-5.68 4.66 -4.36 5.32 -3 6 C-13.15317287 6.63019694 -13.15317287 6.63019694 -16.6875 4 C-17.120625 3.34 -17.55375 2.68 -18 2 C-12.12116651 -0.61281488 -6.29268272 -0.18328202 0 0 Z " fill="#6E9EBE" transform="translate(31,62)"/>
<path d="M0 0 C1.98 0 3.96 0 6 0 C6.33 0.66 6.66 1.32 7 2 C5.35 2.33 3.7 2.66 2 3 C2.99 3.66 3.98 4.32 5 5 C5 5.99 5 6.98 5 8 C3.03897046 7.77211278 1.08109495 7.51694943 -0.875 7.25 C-1.96554688 7.11078125 -3.05609375 6.9715625 -4.1796875 6.828125 C-5.57574219 6.41820312 -5.57574219 6.41820312 -7 6 C-7.66 4.68 -8.32 3.36 -9 2 C-5.7 2 -2.4 2 1 2 C0.67 1.34 0.34 0.68 0 0 Z " fill="#5A8FB0" transform="translate(195,27)"/>
<path d="M0 0 C0.80566406 0.00322266 1.61132812 0.00644531 2.44140625 0.00976562 C3.70404297 0.02233398 3.70404297 0.02233398 4.9921875 0.03515625 C6.26642578 0.04192383 6.26642578 0.04192383 7.56640625 0.04882812 C9.66669659 0.06062751 11.7669508 0.07856319 13.8671875 0.09765625 C13.8671875 0.42765625 13.8671875 0.75765625 13.8671875 1.09765625 C13.1246875 1.24203125 12.3821875 1.38640625 11.6171875 1.53515625 C10.10368901 1.84473549 8.59219206 2.17248908 7.1015625 2.578125 C3.11203171 3.50576066 -0.97826876 3.89008766 -5.0390625 4.40234375 C-8.1819626 5.10870261 -9.76260469 5.97144042 -12.1328125 8.09765625 C-12.7928125 7.76765625 -13.4528125 7.43765625 -14.1328125 7.09765625 C-12.84263836 6.11652382 -11.55062144 5.13781426 -10.2578125 4.16015625 C-9.17886719 3.34224609 -9.17886719 3.34224609 -8.078125 2.5078125 C-5.17156084 0.40084531 -3.53789307 -0.02491474 0 0 Z " fill="#5D8EAE" transform="translate(276.1328125,102.90234375)"/>
<path d="M0 0 C0.56203125 0.33773437 1.1240625 0.67546875 1.703125 1.0234375 C4.39726644 2.1689058 5.88038233 2.0470026 8.75 1.625 C9.94882813 1.45871094 9.94882813 1.45871094 11.171875 1.2890625 C11.77515625 1.19367188 12.3784375 1.09828125 13 1 C13.33 2.65 13.66 4.3 14 6 C13.01 5.34 12.02 4.68 11 4 C10.34 4 9.68 4 9 4 C9 5.32 9 6.64 9 8 C8.01 8 7.02 8 6 8 C6 7.34 6 6.68 6 6 C4.576875 5.8453125 4.576875 5.8453125 3.125 5.6875 C0 5 0 5 -2 2 C-1.34 1.34 -0.68 0.68 0 0 Z " fill="#79A8C6" transform="translate(233,203)"/>
<path d="M0 0 C0 0.66 0 1.32 0 2 C-7.92 3.485 -7.92 3.485 -16 5 C-16 4.34 -16 3.68 -16 3 C-18.31 3 -20.62 3 -23 3 C-23.33 2.34 -23.66 1.68 -24 1 C-21.50018262 0.8301095 -19.00020399 0.66402047 -16.5 0.5 C-15.80390625 0.45230469 -15.1078125 0.40460937 -14.390625 0.35546875 C-9.58304475 0.04386633 -4.81771254 -0.04340282 0 0 Z " fill="#80A7C2" transform="translate(283,18)"/>
<path d="M0 0 C0.33 0.99 0.66 1.98 1 3 C2.89179203 3.6814823 2.89179203 3.6814823 5 4 C5.99 4.33 6.98 4.66 8 5 C8 6.32 8 7.64 8 9 C6.68 9 5.36 9 4 9 C3.01 9.33 2.02 9.66 1 10 C0.566875 9.21625 0.13375 8.4325 -0.3125 7.625 C-1.89220247 4.78301625 -1.89220247 4.78301625 -5 3 C-4.34 3 -3.68 3 -3 3 C-3 2.34 -3 1.68 -3 1 C-2.01 0.67 -1.02 0.34 0 0 Z " fill="#77A4C3" transform="translate(123,102)"/>
<path d="M0 0 C0.33 0.66 0.66 1.32 1 2 C1.66 2 2.32 2 3 2 C3 2.99 3 3.98 3 5 C2.34 5.66 1.68 6.32 1 7 C1.32198966 10.09926819 1.32198966 10.09926819 2 13 C2.66 13 3.32 13 4 13 C4.33 14.98 4.66 16.96 5 19 C4.01 19.33 3.02 19.66 2 20 C-1.99533203 14.17347413 -1.5104534 7.86167172 -1 1 C-0.67 0.67 -0.34 0.34 0 0 Z " fill="#6395B4" transform="translate(256,344)"/>
<path d="M0 0 C7.38461538 -0.49230769 7.38461538 -0.49230769 10.5 2 C11.2425 2.99 11.2425 2.99 12 4 C6.92327799 4.84612033 2.15130782 5.26193091 -3 5 C-3.66 4.34 -4.32 3.68 -5 3 C-3.35 2.67 -1.7 2.34 0 2 C0 1.34 0 0.68 0 0 Z " fill="#75A3C2" transform="translate(259,178)"/>
<path d="M0 0 C4.71403788 0.47939368 8.66579301 0.96834048 13 3 C12.67 3.66 12.34 4.32 12 5 C10.68 4.67 9.36 4.34 8 4 C8 5.65 8 7.3 8 9 C5.03 8.505 5.03 8.505 2 8 C2.226875 7.4225 2.45375 6.845 2.6875 6.25 C3.26505193 3.87827523 3.26505193 3.87827523 1.5625 1.75 C1.046875 1.1725 0.53125 0.595 0 0 Z " fill="#5B8FB1" transform="translate(227,112)"/>
<path d="M0 0 C-0.33 0.66 -0.66 1.32 -1 2 C-2.98 2 -4.96 2 -7 2 C-7.33 2.99 -7.66 3.98 -8 5 C-9.70703125 5.765625 -9.70703125 5.765625 -11.8125 6.25 C-12.49957031 6.42015625 -13.18664062 6.5903125 -13.89453125 6.765625 C-16.19499821 7.02170666 -17.80629727 6.69015367 -20 6 C-18.60922699 5.17886823 -17.21211107 4.36847505 -15.8125 3.5625 C-15.03519531 3.11003906 -14.25789062 2.65757813 -13.45703125 2.19140625 C-9.0063394 0.03328063 -4.89141119 -0.11375375 0 0 Z " fill="#5A8CB0" transform="translate(251,118)"/>
<path d="M0 0 C-0.474375 0.350625 -0.94875 0.70125 -1.4375 1.0625 C-3.67873825 3.84163543 -3.67117658 6.5144717 -4 10 C-5.32 10.33 -6.64 10.66 -8 11 C-8.125 4.375 -8.125 4.375 -7 1 C-4.53721199 -0.231394 -2.7204945 -0.07159196 0 0 Z " fill="#598DAE" transform="translate(226,113)"/>
<path d="M0 0 C0 0.66 0 1.32 0 2 C-5.1468192 5.16727335 -9.158256 5.35050464 -15 5 C-15 4.34 -15 3.68 -15 3 C-9.89665983 1.094753 -5.53657294 -0.42589023 0 0 Z " fill="#7EA6C3" transform="translate(140,32)"/>
<path d="M0 0 C2.45933991 0.11369211 4.9167909 0.24042651 7.375 0.375 C8.07367188 0.4059375 8.77234375 0.436875 9.4921875 0.46875 C14.7734375 0.7734375 14.7734375 0.7734375 17 3 C9.25 3.125 9.25 3.125 7 2 C7 2.66 7 3.32 7 4 C7.99 4.33 8.98 4.66 10 5 C6.625 5.125 6.625 5.125 3 5 C2 4 1 3 0 2 C0 1.34 0 0.68 0 0 Z " fill="#477FA4" transform="translate(197,30)"/>
<path d="M0 0 C0 0.66 0 1.32 0 2 C1.32 2.33 2.64 2.66 4 3 C2.56342755 3.33730842 1.12569907 3.66969591 -0.3125 4 C-1.51326172 4.2784375 -1.51326172 4.2784375 -2.73828125 4.5625 C-5 5 -5 5 -8 5 C-8 4.34 -8 3.68 -8 3 C-8.66 2.67 -9.32 2.34 -10 2 C-6.3558226 -0.4294516 -4.28758728 -0.16179575 0 0 Z " fill="#5E91B5" transform="translate(135,62)"/>
<path d="M0 0 C1.00289062 0.10183594 2.00578125 0.20367187 3.0390625 0.30859375 C3.80992187 0.39238281 4.58078125 0.47617187 5.375 0.5625 C4.375 2.5625 4.375 2.5625 1.125 3.6875 C-2.00200635 4.41713482 -4.45122905 4.75484975 -7.625 4.5625 C-7.625 3.2425 -7.625 1.9225 -7.625 0.5625 C-4.89657939 -0.80171031 -3.01546682 -0.31557211 0 0 Z " fill="#87AECA" transform="translate(201.625,42.4375)"/>
<path d="M0 0 C0 3.66666667 0 7.33333333 0 11 C-0.99 11.495 -0.99 11.495 -2 12 C-2 11.34 -2 10.68 -2 10 C-4.31 9.67 -6.62 9.34 -9 9 C-9 8.34 -9 7.68 -9 7 C-7.576875 6.9071875 -7.576875 6.9071875 -6.125 6.8125 C-5.09375 6.544375 -4.0625 6.27625 -3 6 C-1.61141128 3.57114212 -1.61141128 3.57114212 -1 1 C-0.67 0.67 -0.34 0.34 0 0 Z " fill="#6196B7" transform="translate(291,193)"/>
<path d="M0 0 C0.66 0 1.32 0 2 0 C2 1.32 2 2.64 2 4 C0.23358317 4.6987693 -1.53832664 5.38366583 -3.3125 6.0625 C-4.79169922 6.63677734 -4.79169922 6.63677734 -6.30078125 7.22265625 C-9 8 -9 8 -12 7 C-10 4 -10 4 -7.8359375 3.48828125 C-7.02382813 3.43027344 -6.21171875 3.37226562 -5.375 3.3125 C-4.55773437 3.24675781 -3.74046875 3.18101563 -2.8984375 3.11328125 C-2.27195312 3.07589844 -1.64546875 3.03851563 -1 3 C-0.67 2.01 -0.34 1.02 0 0 Z " fill="#85B1CD" transform="translate(289,111)"/>
<path d="M0 0 C1.91635217 -0.05423638 3.83314925 -0.09289963 5.75 -0.125 C7.35101563 -0.15980469 7.35101563 -0.15980469 8.984375 -0.1953125 C11.92470106 -0.00487687 13.52361878 0.47329896 16 2 C16 2.66 16 3.32 16 4 C10.43109483 3.52013969 5.32932432 2.70084819 0 1 C0 0.67 0 0.34 0 0 Z " fill="#84AAC4" transform="translate(167,28)"/>
<path d="M0 0 C0.99 0 1.98 0 3 0 C3 0.66 3 1.32 3 2 C7.95 2 12.9 2 18 2 C15.41073669 4.58926331 13.97294721 4.37398043 10.375 4.625 C9.37210937 4.69976562 8.36921875 4.77453125 7.3359375 4.8515625 C6.17964844 4.92503906 6.17964844 4.92503906 5 5 C5 4.34 5 3.68 5 3 C3.35 2.67 1.7 2.34 0 2 C0 1.34 0 0.68 0 0 Z " fill="#74A1BE" transform="translate(253,31)"/>
<path d="M0 0 C3.3 0 6.6 0 10 0 C9.67 1.32 9.34 2.64 9 4 C5.7 4 2.4 4 -1 4 C-0.67 2.68 -0.34 1.36 0 0 Z " fill="#6596B6" transform="translate(146,29)"/>
<path d="M0 0 C2.31 0.66 4.62 1.32 7 2 C7 4.31 7 6.62 7 9 C5.35 8.67 3.7 8.34 2 8 C2.50603992 5.83125748 2.99983813 4.00032373 4 2 C2.68 2 1.36 2 0 2 C0 1.34 0 0.68 0 0 Z " fill="#73A1C3" transform="translate(303,104)"/>
<path d="M0 0 C-0.33 0.99 -0.66 1.98 -1 3 C-2.65 3.33 -4.3 3.66 -6 4 C-6 3.34 -6 2.68 -6 2 C-7.65 2.33 -9.3 2.66 -11 3 C-10.67 2.01 -10.34 1.02 -10 0 C-6.58729758 -1.51675663 -3.55830874 -0.72783588 0 0 Z " fill="#83ACC9" transform="translate(188,36)"/>
<path d="M0 0 C-2.17552145 2.2435065 -3.81625226 3.93436198 -7.04296875 4.11328125 C-10.45305228 3.73438308 -12.530185 3.469815 -15 1 C-9.94997778 -0.03590199 -5.12583611 -0.10251672 0 0 Z " fill="#74A1BE" transform="translate(222,19)"/>
<path d="M0 0 C5.27203646 -0.27036084 9.92523206 0.73694665 15 2 C15 2.33 15 2.66 15 3 C10.05 3.33 5.1 3.66 0 4 C0.66 3.67 1.32 3.34 2 3 C2 2.34 2 1.68 2 1 C1.34 0.67 0.68 0.34 0 0 Z " fill="#4E82A7" transform="translate(142,55)"/>
<path d="M0 0 C0.33 0 0.66 0 1 0 C0.8864371 1.64666203 0.75882619 3.29236082 0.625 4.9375 C0.55539062 5.85402344 0.48578125 6.77054687 0.4140625 7.71484375 C0.27742188 8.46894531 0.14078125 9.22304688 0 10 C-0.99 10.495 -0.99 10.495 -2 11 C-2.99 10.34 -3.98 9.68 -5 9 C-5 7.68 -5 6.36 -5 5 C-3.68 4.67 -2.36 4.34 -1 4 C-0.67 2.68 -0.34 1.36 0 0 Z " fill="#79A5C2" transform="translate(272,356)"/>
<path d="M0 0 C-2 2 -2 2 -4.78515625 2.046875 C-5.86667969 1.94890625 -6.94820312 1.8509375 -8.0625 1.75 C-9.14660156 1.66234375 -10.23070312 1.5746875 -11.34765625 1.484375 C-12.22292969 1.32453125 -13.09820312 1.1646875 -14 1 C-14.33 0.34 -14.66 -0.32 -15 -1 C-9.24494947 -3.80374257 -5.57861091 -2.30582584 0 0 Z " fill="#578CAD" transform="translate(209,42)"/>
<path d="M0 0 C-6.65637843 1.23839599 -13.2471936 1.09139136 -20 1 C-20 0.67 -20 0.34 -20 0 C-17.41814569 -0.3902803 -14.83579017 -0.76263148 -12.25 -1.125 C-11.52039063 -1.23714844 -10.79078125 -1.34929688 -10.0390625 -1.46484375 C-6.0994391 -2.00206512 -3.33777335 -2.3715758 0 0 Z " fill="#6596B7" transform="translate(105,55)"/>
<path d="M0 0 C5.61 0 11.22 0 17 0 C13.23312136 1.88343932 11.97041037 2.22057835 8 2 C8 3.32 8 4.64 8 6 C7.34 6 6.68 6 6 6 C6 4.35 6 2.7 6 1 C4.02 1 2.04 1 0 1 C0 0.67 0 0.34 0 0 Z " fill="#6294B5" transform="translate(213,43)"/>
<path d="M0 0 C0.66 0 1.32 0 2 0 C2.33 1.32 2.66 2.64 3 4 C4.98 4 6.96 4 9 4 C9 4.66 9 5.32 9 6 C9.66 6 10.32 6 11 6 C10.67 6.66 10.34 7.32 10 8 C7.525 7.01 7.525 7.01 5 6 C4.67 6.99 4.34 7.98 4 9 C3.34 8.67 2.68 8.34 2 8 C2 7.01 2 6.02 2 5 C1.37400383 3.31763529 0.71247732 1.6476038 0 0 Z " fill="#6195B7" transform="translate(243,164)"/>
<path d="M0 0 C1.2065625 0.0309375 1.2065625 0.0309375 2.4375 0.0625 C2.7675 1.3825 3.0975 2.7025 3.4375 4.0625 C1.4575 4.3925 -0.5225 4.7225 -2.5625 5.0625 C-3.125 3.125 -3.125 3.125 -3.5625 1.0625 C-2.5625 0.0625 -2.5625 0.0625 0 0 Z " fill="#5B8FB2" transform="translate(226.5625,68.9375)"/>
<path d="M0 0 C0.80824219 0.10183594 1.61648437 0.20367187 2.44921875 0.30859375 C3.06410156 0.39238281 3.67898437 0.47617187 4.3125 0.5625 C4.3125 1.2225 4.3125 1.8825 4.3125 2.5625 C2.8754191 2.61672947 1.43774538 2.65539723 0 2.6875 C-0.80050781 2.71070313 -1.60101563 2.73390625 -2.42578125 2.7578125 C-4.6875 2.5625 -4.6875 2.5625 -7.6875 0.5625 C-4.59271121 -0.46909626 -3.16118607 -0.41232862 0 0 Z " fill="#79A3C0" transform="translate(235.6875,34.4375)"/>
<path d="M0 0 C0.33 0.99 0.66 1.98 1 3 C0.21625 3.45375 -0.5675 3.9075 -1.375 4.375 C-4.03698031 5.88428742 -4.03698031 5.88428742 -6 8 C-6.99 7.34 -7.98 6.68 -9 6 C-7.625 4.5 -7.625 4.5 -6 3 C-5.34 3 -4.68 3 -4 3 C-3.67 2.34 -3.34 1.68 -3 1 C-2.34 1 -1.68 1 -1 1 C-0.67 0.67 -0.34 0.34 0 0 Z " fill="#4E85A8" transform="translate(144,31)"/>
<path d="M0 0 C1.32 0 2.64 0 4 0 C3.67 2.31 3.34 4.62 3 7 C1.35 7.33 -0.3 7.66 -2 8 C-1.34 7.67 -0.68 7.34 0 7 C0 4.69 0 2.38 0 0 Z " fill="#709EBC" transform="translate(259,336)"/>
<path d="M0 0 C0.99 0.99 1.98 1.98 3 3 C2.67 3.66 2.34 4.32 2 5 C1.76827173 7.54615009 1.58105471 10.07396225 1.4375 12.625 C1.39431641 13.33140625 1.35113281 14.0378125 1.30664062 14.765625 C1.20055249 16.51018537 1.09977111 18.25506697 1 20 C0.67 20 0.34 20 0 20 C0 13.4 0 6.8 0 0 Z " fill="#74A0BB" transform="translate(161,323)"/>
<path d="M0 0 C1.65 0 3.3 0 5 0 C5.33 1.32 5.66 2.64 6 4 C4.35 4.33 2.7 4.66 1 5 C0.67 3.35 0.34 1.7 0 0 Z " fill="#78A7C6" transform="translate(186,54)"/>
<path d="M0 0 C3.63 0.33 7.26 0.66 11 1 C10.67 1.66 10.34 2.32 10 3 C6.37 3 2.74 3 -1 3 C-0.67 2.01 -0.34 1.02 0 0 Z " fill="#83ACCA" transform="translate(209,38)"/>
<path d="M0 0 C-0.33 0.66 -0.66 1.32 -1 2 C-6.44927536 3.27536232 -6.44927536 3.27536232 -9 2 C-9 1.34 -9 0.68 -9 0 C-5.67465243 -1.10844919 -3.37817425 -0.84454356 0 0 Z " fill="#75A0BA" transform="translate(302,359)"/>
<path d="M0 0 C2.375 0.3125 2.375 0.3125 5 1 C5.66 1.99 6.32 2.98 7 4 C4.36 4.33 1.72 4.66 -1 5 C-1.33 4.34 -1.66 3.68 -2 3 C-1.34 3 -0.68 3 0 3 C0 2.01 0 1.02 0 0 Z " fill="#81AAC9" transform="translate(264,178)"/>
<path d="M0 0 C2.97 0.495 2.97 0.495 6 1 C6 1.66 6 2.32 6 3 C6.99 3.33 7.98 3.66 9 4 C8.67 4.99 8.34 5.98 8 7 C7.01 6.67 6.02 6.34 5 6 C4.67 5.01 4.34 4.02 4 3 C1.98491642 2.26676204 1.98491642 2.26676204 0 2 C0 1.34 0 0.68 0 0 Z " fill="#6694B1" transform="translate(43,178)"/>
<path d="M0 0 C-3.64116773 3.33773709 -7.28607242 3.97864902 -12 5 C-11.1875 3.0625 -11.1875 3.0625 -10 1 C-6.52674819 -0.1577506 -3.63932552 -0.06866652 0 0 Z " fill="#71A2C1" transform="translate(239,169)"/>
<path d="M0 0 C1.8125 0.1875 1.8125 0.1875 4 1 C7 5.17857143 7 5.17857143 7 8 C6.34 8 5.68 8 5 8 C5 7.01 5 6.02 5 5 C2.525 4.01 2.525 4.01 0 3 C0 2.01 0 1.02 0 0 Z " fill="#4D85AA" transform="translate(188,93)"/>
<path d="M0 0 C0.66 0.66 1.32 1.32 2 2 C-1.03525486 4.02350324 -2.19426202 4.32124018 -5.6875 4.625 C-6.49574219 4.69976563 -7.30398437 4.77453125 -8.13671875 4.8515625 C-9.05904297 4.92503906 -9.05904297 4.92503906 -10 5 C-10.33 3.68 -10.66 2.36 -11 1 C-10.01 1 -9.02 1 -8 1 C-8 1.66 -8 2.32 -8 3 C-5.36 2.67 -2.72 2.34 0 2 C0 1.34 0 0.68 0 0 Z " fill="#7CA5C1" transform="translate(245,19)"/>
<path d="M0 0 C2.97 0.99 5.94 1.98 9 3 C9 4.32 9 5.64 9 7 C5.18315774 5.44499019 2.80804268 2.96404505 0 0 Z " fill="#6093B6" transform="translate(122,104)"/>
<path d="M0 0 C0.66 1.32 1.32 2.64 2 4 C1.34 4.66 0.68 5.32 0 6 C-0.33 5.01 -0.66 4.02 -1 3 C-1.99 3 -2.98 3 -4 3 C-4.66 3.99 -5.32 4.98 -6 6 C-6.33 4.35 -6.66 2.7 -7 1 C-2.25 0 -2.25 0 0 0 Z " fill="#709EBD" transform="translate(169,43)"/>
<path d="M0 0 C1.32 0 2.64 0 4 0 C5.35439668 2.70879335 5.06501451 5.00933268 5 8 C3.5 6.6875 3.5 6.6875 2 5 C2 4.01 2 3.02 2 2 C1.34 2 0.68 2 0 2 C0 1.34 0 0.68 0 0 Z " fill="#5E95B7" transform="translate(284,184)"/>
<path d="M0 0 C7.42857143 -0.28571429 7.42857143 -0.28571429 11 2 C10.67 2.66 10.34 3.32 10 4 C6.7 3.01 3.4 2.02 0 1 C0 0.67 0 0.34 0 0 Z " fill="#7BA8C7" transform="translate(233,170)"/>
<path d="M0 0 C2.64 0 5.28 0 8 0 C8 0.99 8 1.98 8 3 C6.35 3.33 4.7 3.66 3 4 C3 3.01 3 2.02 3 1 C2.01 0.67 1.02 0.34 0 0 Z " fill="#6996B4" transform="translate(302,55)"/>
<path d="M0 0 C0.99 0 1.98 0 3 0 C2.67 1.32 2.34 2.64 2 4 C-0.31 4 -2.62 4 -5 4 C-5.33 3.34 -5.66 2.68 -6 2 C-4.02 1.67 -2.04 1.34 0 1 C0 0.67 0 0.34 0 0 Z " fill="#7BA7C5" transform="translate(215,32)"/>
<path d="M0 0 C2.6855594 2.6855594 3.06049974 5.37621328 4 9 C2.125 8.375 2.125 8.375 0 7 C-1.25 3.875 -1.25 3.875 -2 1 C-1.34 0.67 -0.68 0.34 0 0 Z " fill="#6E9DBF" transform="translate(187,94)"/>
<path d="M0 0 C1.98 0.66 3.96 1.32 6 2 C6 2.66 6 3.32 6 4 C4.35 4 2.7 4 1 4 C0.67 4.66 0.34 5.32 0 6 C0 4.02 0 2.04 0 0 Z " fill="#7DABC7" transform="translate(0,62)"/>
<path d="M0 0 C0.66 0 1.32 0 2 0 C2.33 0.99 2.66 1.98 3 3 C-1.95 3 -6.9 3 -12 3 C-12 2.67 -12 2.34 -12 2 C-11.21753906 1.93941406 -10.43507812 1.87882812 -9.62890625 1.81640625 C-8.61699219 1.73261719 -7.60507813 1.64882813 -6.5625 1.5625 C-5.55316406 1.48128906 -4.54382813 1.40007813 -3.50390625 1.31640625 C-1.06359221 1.26788532 -1.06359221 1.26788532 0 0 Z " fill="#5B8FB1" transform="translate(184,56)"/>
<path d="M0 0 C1.65 0 3.3 0 5 0 C5 0.33 5 0.66 5 1 C6.65 1.33 8.3 1.66 10 2 C10 2.33 10 2.66 10 3 C3.375 4.25 3.375 4.25 0 2 C0 1.34 0 0.68 0 0 Z " fill="#71A0C2" transform="translate(137,52)"/>
<path d="M0 0 C0.66 0 1.32 0 2 0 C2 0.66 2 1.32 2 2 C2.66 2 3.32 2 4 2 C4 2.66 4 3.32 4 4 C0.25 5.125 0.25 5.125 -2 4 C-1.34 2.68 -0.68 1.36 0 0 Z " fill="#598EAD" transform="translate(86,265)"/>
<path d="M0 0 C0.66 0 1.32 0 2 0 C2 1.32 2 2.64 2 4 C0.02 4.66 -1.96 5.32 -4 6 C-4 5.01 -4 4.02 -4 3 C-3.01 3 -2.02 3 -1 3 C-0.67 2.01 -0.34 1.02 0 0 Z " fill="#7CA9C8" transform="translate(289,111)"/>
<path d="M0 0 C-0.99 1.485 -0.99 1.485 -2 3 C-2 2.01 -2 1.02 -2 0 C-2.66 0.66 -3.32 1.32 -4 2 C-4.99 2 -5.98 2 -7 2 C-7 1.34 -7 0.68 -7 0 C-7.66 -0.33 -8.32 -0.66 -9 -1 C-5.23375329 -2.25541557 -3.62811066 -1.37061958 0 0 Z " fill="#6B98B8" transform="translate(100,84)"/>
<path d="M0 0 C0 1.65 0 3.3 0 5 C-1.98 4.34 -3.96 3.68 -6 3 C-6 2.34 -6 1.68 -6 1 C-3.92446352 0.4465236 -2.15634036 0 0 0 Z " fill="#5F92B3" transform="translate(241,72)"/>
<path d="M0 0 C-0.99 1.485 -0.99 1.485 -2 3 C-3.9453125 3.29296875 -3.9453125 3.29296875 -6.125 3.1875 C-7.40375 3.125625 -8.6825 3.06375 -10 3 C-7.29536552 -0.8183075 -4.37912428 -0.24787496 0 0 Z " fill="#4E83A9" transform="translate(135,62)"/>
<path d="M0 0 C1.4800841 0.11362262 2.95910074 0.24122908 4.4375 0.375 C5.26121094 0.44460937 6.08492187 0.51421875 6.93359375 0.5859375 C7.95646484 0.79089844 7.95646484 0.79089844 9 1 C9.33 1.66 9.66 2.32 10 3 C3.42596154 3.37211538 3.42596154 3.37211538 1.26953125 1.48828125 C0.64111328 0.75158203 0.64111328 0.75158203 0 0 Z " fill="#89AEC9" transform="translate(186,29)"/>
<path d="M0 0 C1.98 0 3.96 0 6 0 C6 0.99 6 1.98 6 3 C6.66 3.33 7.32 3.66 8 4 C4.31245243 3.50168276 2.39509338 2.89932357 0 0 Z " fill="#6797B7" transform="translate(259,364)"/>
<path d="M0 0 C0.99 0.33 1.98 0.66 3 1 C3 1.66 3 2.32 3 3 C3.99 3.33 4.98 3.66 6 4 C5 5 5 5 2.4375 5.0625 C1.2309375 5.0315625 1.2309375 5.0315625 0 5 C0 3.35 0 1.7 0 0 Z " fill="#5F8FB0" transform="translate(283,329)"/>
<path d="M0 0 C0.66 0 1.32 0 2 0 C2.66 2.31 3.32 4.62 4 7 C3.01 7.33 2.02 7.66 1 8 C1 7.34 1 6.68 1 6 C0.34 6 -0.32 6 -1 6 C-0.67 4.02 -0.34 2.04 0 0 Z " fill="#6F9FC0" transform="translate(248,128)"/>
<path d="M0 0 C3.63 0 7.26 0 11 0 C11 0.33 11 0.66 11 1 C10.2575 1.144375 9.515 1.28875 8.75 1.4375 C6.47972261 1.90187492 4.24240521 2.41863569 2 3 C1.34 2.01 0.68 1.02 0 0 Z " fill="#6493B4" transform="translate(279,103)"/>
<path d="M0 0 C2.64 0.33 5.28 0.66 8 1 C5 3 5 3 2.3125 2.625 C1.549375 2.41875 0.78625 2.2125 0 2 C0 1.34 0 0.68 0 0 Z " fill="#6195B7" transform="translate(280,112)"/>
<path d="M0 0 C1 3.875 1 3.875 1 5 C-0.65 5 -2.3 5 -4 5 C-2.25 1.125 -2.25 1.125 0 0 Z " fill="#7AA5C3" transform="translate(57,76)"/>
<path d="M0 0 C0.66 0.33 1.32 0.66 2 1 C2 1.99 2 2.98 2 4 C-4.0546875 4.1953125 -4.0546875 4.1953125 -6 4 C-6.66 3.34 -7.32 2.68 -8 2 C-5.36 2 -2.72 2 0 2 C0 1.34 0 0.68 0 0 Z " fill="#6C9FC1" transform="translate(275,69)"/>
<path d="M0 0 C2.64 0 5.28 0 8 0 C7.34 1.32 6.68 2.64 6 4 C5.01 4 4.02 4 3 4 C3 3.01 3 2.02 3 1 C2.01 0.67 1.02 0.34 0 0 Z " fill="#6B9DBD" transform="translate(120,62)"/>
<path d="M0 0 C1.32 0 2.64 0 4 0 C4 0.66 4 1.32 4 2 C5.65 2 7.3 2 9 2 C9 2.33 9 2.66 9 3 C6.03 3 3.06 3 0 3 C0 2.01 0 1.02 0 0 Z " fill="#97B4C6" transform="translate(301,52)"/>
</svg>
