<?xml version="1.0" encoding="UTF-8"?>
<svg version="1.1" xmlns="http://www.w3.org/2000/svg" width="310" height="400">
<path d="M0 0 C102.3 0 204.6 0 310 0 C310 132 310 264 310 400 C207.7 400 105.4 400 0 400 C0 268 0 136 0 0 Z " fill="#6B967A" transform="translate(0,0)"/>
<path d="M0 0 C102.3 0 204.6 0 310 0 C310 21.12 310 42.24 310 64 C308.68 64.33 307.36 64.66 306 65 C306 65.99 306 66.98 306 68 C305.1646875 67.70996094 305.1646875 67.70996094 304.3125 67.4140625 C299.24882873 65.68625575 294.20677935 64.2306933 289 63 C289 63.99 289 64.98 289 66 C287.68 66.33 286.36 66.66 285 67 C285.66 68.98 286.32 70.96 287 73 C286.05898438 73.12117188 285.11796875 73.24234375 284.1484375 73.3671875 C282.90320313 73.53476563 281.65796875 73.70234375 280.375 73.875 C279.14523437 74.03742188 277.91546875 74.19984375 276.6484375 74.3671875 C273.26038483 74.95483689 270.22301349 75.81988122 267 77 C267 77.66 267 78.32 267 79 C266.21496094 78.97679688 265.42992187 78.95359375 264.62109375 78.9296875 C256.10906476 78.77581862 256.10906476 78.77581862 248 81 C247.34 81.99 246.68 82.98 246 84 C246.66 84.33 247.32 84.66 248 85 C247.625 87.4375 247.625 87.4375 247 90 C246.01 90.495 246.01 90.495 245 91 C244.34786708 93.02463255 244.34786708 93.02463255 244 95 C241.525 95.495 241.525 95.495 239 96 C238.67 96.99 238.34 97.98 238 99 C233.66666667 102 233.66666667 102 231 102 C229.4087311 97.126739 228.78807779 93.19209404 229 88 C229.99 87.67 230.98 87.34 232 87 C232 86.34 232 85.68 232 85 C232.84304687 84.59007813 233.68609375 84.18015625 234.5546875 83.7578125 C235.65039062 83.21898438 236.74609375 82.68015625 237.875 82.125 C238.96554688 81.59132813 240.05609375 81.05765625 241.1796875 80.5078125 C244.03882547 79.15464063 244.03882547 79.15464063 246 77 C247.32 77 248.64 77 250 77 C250.33 75.68 250.66 74.36 251 73 C250.46375 73.309375 249.9275 73.61875 249.375 73.9375 C246.6015043 75.17827439 243.99957163 75.5909675 241 76 C241 75.34 241 74.68 241 74 C234.7950962 74.2757735 230.89839001 75.10640794 226 79 C226.33 79.66 226.66 80.32 227 81 C225.62618164 80.92144775 225.62618164 80.92144775 224.22460938 80.84130859 C200.96114784 79.06695651 200.96114784 79.06695651 180.6328125 88.8125 C178 91 178 91 175 91 C175 91.66 175 92.32 175 93 C176.32 93 177.64 93 179 93 C179 93.66 179 94.32 179 95 C182.63 94.67 186.26 94.34 190 94 C190.33 94.66 190.66 95.32 191 96 C193.02463255 96.65213292 193.02463255 96.65213292 195 97 C195.33 95.68 195.66 94.36 196 93 C197.73734147 96.80043446 198 98.59714577 198 103 C205.26 103 212.52 103 220 103 C220.79181938 110.91819382 221.21753721 118.58049003 221.24023438 126.50463867 C221.25000114 128.56273934 221.28116063 130.61986383 221.3125 132.67773438 C221.43347354 147.46616466 216.70019972 158.23512025 206.80078125 169.30859375 C201.48445319 174.30202119 195.27536984 178.32329145 189 182 C189.52319824 182.20044922 190.04639648 182.40089844 190.58544922 182.60742188 C206.44689811 188.76354857 219.92792777 195.58852121 227.375 211.8125 C232.16001711 223.2341278 231.42889512 238.55868762 227 250 C219.26441671 266.51249509 205.70938761 275.90545889 189 282 C185.69624399 283.16514143 182.39910378 284.15287133 179 285 C178.19304687 285.20625 177.38609375 285.4125 176.5546875 285.625 C159.89314636 289.12246636 139.39216994 288.75539336 123.3125 282.84375 C121.57958356 282.21146968 119.82518325 281.63755653 118.0625 281.09375 C111.67722776 279.11431561 106.50030494 276.80790342 101 273 C101.52683854 265.22913153 103.59826354 258.38311577 106 251 C106.58913904 249.06425745 107.17311573 247.12692996 107.75 245.1875 C108.16656362 243.79163591 108.58321181 242.39579705 109 241 C109.52843506 241.23187012 110.05687012 241.46374023 110.60131836 241.70263672 C113.04316644 242.7684319 115.49022021 243.82174035 117.9375 244.875 C118.76830078 245.23980469 119.59910156 245.60460937 120.45507812 245.98046875 C135.10793217 252.25211834 153.79206166 254.10176104 169.1875 249.3125 C175.4424996 246.67686219 179.96333909 243.23314608 183 237 C184.82543598 231.06414176 184.86575179 224.46055771 182.8125 218.625 C177.95626319 211.59182945 171.83374882 207.39433455 163.56176758 205.42163086 C157.92839342 204.49445682 152.19660931 204.51444136 146.5 204.375 C142.045 204.25125 137.59 204.1275 133 204 C133 194.1 133 184.2 133 174 C136.96 173.34 140.92 172.68 145 172 C157.66632548 167.18495617 168.01319334 157.43035855 175 146 C175.99 143.36 176.98 140.72 178 138 C165.46 138 152.92 138 140 138 C140.33 139.32 140.66 140.64 141 142 C140.01 142 139.02 142 138 142 C138 142.66 138 143.32 138 144 C139.32 144 140.64 144 142 144 C143.8125 145.1875 143.8125 145.1875 145 147 C144.6875 149.6875 144.6875 149.6875 144 152 C145.65 152 147.3 152 149 152 C148.49396008 154.16874252 148.00016187 155.99967627 147 158 C146.34 158 145.68 158 145 158 C145 158.66 145 159.32 145 160 C143.68 160.33 142.36 160.66 141 161 C141.33 162.32 141.66 163.64 142 165 C140.90241493 165.84198307 139.79664683 166.67330671 138.6875 167.5 C138.07261719 167.9640625 137.45773438 168.428125 136.82421875 168.90625 C135 170 135 170 132 170 C132 170.66 132 171.32 132 172 C130.02 172 128.04 172 126 172 C126 172.66 126 173.32 126 174 C124.9275 174.144375 123.855 174.28875 122.75 174.4375 C120.08337051 174.83749442 117.58600271 175.27591924 115 176 C115 175.34 115 174.68 115 174 C109.4606966 175.41799553 109.4606966 175.41799553 105.5625 179.25 C106.18957852 183.1916364 108.43438707 184.84244735 111.3359375 187.44921875 C114.03544991 189.96496154 114.01057156 191.11100136 114.375 194.9375 C114.34765625 197.1015625 114.34765625 197.1015625 114 199 C111.8125 200.8125 111.8125 200.8125 109 202 C108.113125 202.556875 107.22625 203.11375 106.3125 203.6875 C104 205 104 205 102 205 C102 204.01 102 203.02 102 202 C101.401875 201.896875 100.80375 201.79375 100.1875 201.6875 C97.68741714 200.90175967 96.62464918 200.03081147 95 198 C95 197.34 95 196.68 95 196 C94.38125 195.855625 93.7625 195.71125 93.125 195.5625 C91 195 91 195 89 194 C88.80426392 195.43640171 88.61872184 196.87419504 88.4375 198.3125 C88.33308594 199.11300781 88.22867188 199.91351563 88.12109375 200.73828125 C87.85244822 203.16817116 87.85244822 203.16817116 89 206 C89.66 206.33 90.32 206.66 91 207 C91 207.99 91 208.98 91 210 C91.598125 210.103125 92.19625 210.20625 92.8125 210.3125 C95.40988059 211.12881961 96.31851703 211.87012157 98 214 C98.51171875 216.48046875 98.51171875 216.48046875 98.6875 219.1875 C98.75324219 220.08855469 98.81898437 220.98960937 98.88671875 221.91796875 C98.94279297 222.94857422 98.94279297 222.94857422 99 224 C94.07421793 222.6317272 92.47802772 220.37784897 90 216 C89.46469559 214.7561284 88.94358803 213.5060423 88.4375 212.25 C87.24973405 208.77897393 87.24973405 208.77897393 84 207 C83.77734375 203.953125 83.77734375 203.953125 83.9375 200.25 C84.14312891 195.29381606 83.82622321 191.63306434 82 187 C81.4225 187.33 80.845 187.66 80.25 188 C78 189 78 189 74 189 C74.04125 188.071875 74.0825 187.14375 74.125 186.1875 C74.27136339 182.84190281 74.27136339 182.84190281 72 180 C72 179.01 72 178.02 72 177 C71.01 176.67 70.02 176.34 69 176 C69 175.01 69 174.02 69 173 C68.175 173.33 67.35 173.66 66.5 174 C62.4126017 175.16782809 59.23076656 175.1458885 55 175 C54.938125 175.598125 54.87625 176.19625 54.8125 176.8125 C53.67020358 179.88791343 51.82171939 180.45477272 49 182 C48.443125 182.556875 47.88625 183.11375 47.3125 183.6875 C46.879375 184.120625 46.44625 184.55375 46 185 C45.34 185 44.68 185 44 185 C43.67 185.99 43.34 186.98 43 188 C39.9375 189.1875 39.9375 189.1875 37 190 C37.08733973 192.08410658 37.19552278 194.16734669 37.3125 196.25 C37.37050781 197.41015625 37.42851563 198.5703125 37.48828125 199.765625 C38.02672848 203.16894029 38.83783695 204.42380573 41 207 C41.1875 209.75 41.1875 209.75 41 212 C39.35 212.33 37.7 212.66 36 213 C35.67 210.36 35.34 207.72 35 205 C34.38125 205.7734375 34.38125 205.7734375 33.75 206.5625 C33.1725 207.036875 32.595 207.51125 32 208 C30.02001953 207.80151367 30.02001953 207.80151367 28 207 C26.4341689 204.43853667 25.13516034 202.01729283 23.875 199.3125 C23.52824219 198.60416016 23.18148438 197.89582031 22.82421875 197.16601562 C20.15785564 191.63407838 17.93616162 186.29777781 17.375 180.125 C17.30023437 179.34382812 17.22546875 178.56265625 17.1484375 177.7578125 C17.09945313 177.17773438 17.05046875 176.59765625 17 176 C16.67 176.33 16.34 176.66 16 177 C13.73046875 177.37109375 13.73046875 177.37109375 11 177 C8.61328125 174.84765625 8.61328125 174.84765625 6.3125 172.0625 C3.55993989 168.52719654 3.55993989 168.52719654 0 166 C0 111.22 0 56.44 0 0 Z " fill="#9DBDA2" transform="translate(0,0)"/>
<path d="M0 0 C102.3 0 204.6 0 310 0 C310 20.46 310 40.92 310 62 C306.04 61.505 306.04 61.505 302 61 C301.01 61 300.02 61 299 61 C298.5875 60.566875 298.175 60.13375 297.75 59.6875 C291.96984458 54.11377871 283.10512615 53.87003133 275.5625 52.8125 C274.35400391 52.63525391 273.14550781 52.45800781 271.90039062 52.27539062 C268.93472695 51.84167697 265.96807651 51.41682353 263 51 C263.33 52.32 263.66 53.64 264 55 C263.38511719 54.84273437 262.77023437 54.68546875 262.13671875 54.5234375 C256.82112232 53.63640148 251.42255563 53.67650215 246.04101562 53.5703125 C244.73100586 53.52390625 244.73100586 53.52390625 243.39453125 53.4765625 C242.59893799 53.45674316 241.80334473 53.43692383 240.98364258 53.41650391 C239 53 239 53 237 50 C234.84495223 49.54061301 234.84495223 49.54061301 232.34375 49.59375 C231.40273437 49.57183594 230.46171875 49.54992188 229.4921875 49.52734375 C228.01105469 49.51380859 228.01105469 49.51380859 226.5 49.5 C218.75534386 49.42693721 212.34132513 48.44655994 205 46 C203.13278674 45.56892731 201.25911108 45.16240634 199.375 44.8125 C198.11816406 44.57466797 198.11816406 44.57466797 196.8359375 44.33203125 C196.23007813 44.22246094 195.62421875 44.11289062 195 44 C195 43.34 195 42.68 195 42 C192.03 41.67 189.06 41.34 186 41 C186 41.66 186 42.32 186 43 C188.31 43 190.62 43 193 43 C193 43.33 193 43.66 193 44 C190.36 44.66 187.72 45.32 185 46 C185 46.66 185 47.32 185 48 C184.41508789 48.02505615 183.83017578 48.0501123 183.22753906 48.07592773 C180.56815529 48.19222962 177.90909597 48.31480067 175.25 48.4375 C174.32960937 48.47681641 173.40921875 48.51613281 172.4609375 48.55664062 C171.57148438 48.59853516 170.68203125 48.64042969 169.765625 48.68359375 C168.94868164 48.72025146 168.13173828 48.75690918 167.29003906 48.79467773 C165.00017437 48.92087184 165.00017437 48.92087184 162.88964844 49.64477539 C161 50 161 50 158 48 C157.8125 45.375 157.8125 45.375 158 43 C156.51886719 42.90912109 156.51886719 42.90912109 155.0078125 42.81640625 C153.72648438 42.73261719 152.44515625 42.64882813 151.125 42.5625 C149.84882813 42.48128906 148.57265625 42.40007813 147.2578125 42.31640625 C144 42 144 42 142 41 C141.67 41.99 141.34 42.98 141 44 C137.7 44 134.4 44 131 44 C131 43.34 131 42.68 131 42 C126.05 42.33 121.1 42.66 116 43 C116 42.34 116 41.68 116 41 C114.81921875 41.22816406 113.6384375 41.45632812 112.421875 41.69140625 C110.86466537 41.98221046 109.30736906 42.2725508 107.75 42.5625 C106.97269531 42.71396484 106.19539063 42.86542969 105.39453125 43.02148438 C104.64042969 43.16005859 103.88632813 43.29863281 103.109375 43.44140625 C102.41811523 43.57232666 101.72685547 43.70324707 101.01464844 43.83813477 C98.78712058 44.01710362 97.12493038 43.65206197 95 43 C97.3535311 42.20640264 99.70778883 41.41508217 102.0625 40.625 C102.71927734 40.40328125 103.37605469 40.1815625 104.05273438 39.953125 C108.34016957 38.51693981 112.6438323 37.21224953 117 36 C117 35.34 117 34.68 117 34 C112.58180535 32.52726845 108.12050092 32.9942395 103.51171875 33.12695312 C98.61382424 33.20037835 94.73522811 32.38466959 90 31 C87.51947114 31.08973827 87.51947114 31.08973827 85.3125 31.75 C84.22388672 32.02070312 84.22388672 32.02070312 83.11328125 32.296875 C80.97952019 32.92790332 80.97952019 32.92790332 79.12890625 34.08203125 C76.19194527 35.34842727 73.80916328 35.07958509 70.625 34.9375 C63.10901341 34.81932411 56.20780964 35.78064618 49 38 C48.34 38.66 47.68 39.32 47 40 C47 40.66 47 41.32 47 42 C40.565 42.495 40.565 42.495 34 43 C34.66 43.99 35.32 44.98 36 46 C33.03 45.67 30.06 45.34 27 45 C26.34 46.32 25.68 47.64 25 49 C23.35 48.67 21.7 48.34 20 48 C20 46.68 20 45.36 20 44 C18.02 44.495 18.02 44.495 16 45 C15.95745644 46.99954746 15.95919217 49.00041636 16 51 C17.49743119 52.49743119 18.98824239 52.33202693 21.0625 52.5625 C22.361875 52.706875 23.66125 52.85125 25 53 C25 53.33 25 53.66 25 54 C22.69 54 20.38 54 18 54 C17.87625 55.175625 17.87625 55.175625 17.75 56.375 C17 59 17 59 15.3125 60.3125 C12.46515091 61.15900919 9.95436294 61.13428922 7 61 C7.598125 60.731875 8.19625 60.46375 8.8125 60.1875 C11.1040169 58.94353368 12.4830937 58.12366882 14 56 C14.25048636 52.87450983 14.25048636 52.87450983 14 50 C13.34 50 12.68 50 12 50 C12 47.36 12 44.72 12 42 C10.7625 42.309375 9.525 42.61875 8.25 42.9375 C6.83333333 43.29166667 5.41666667 43.64583333 4 44 C2.02 44.495 2.02 44.495 0 45 C0 30.15 0 15.3 0 0 Z " fill="#699678" transform="translate(0,0)"/>
<path d="M0 0 C10.58177207 -0.02287 21.16352692 -0.0410955 31.74531841 -0.05181217 C36.66233447 -0.05696349 41.57933231 -0.06391425 46.49633789 -0.07543945 C69.02111482 -0.12688685 91.49492282 -0.04322135 114 1 C114.92640658 8.48874267 115.21876273 15.88728309 115.24023438 23.42919922 C115.24998195 25.49617146 115.28111886 27.56216416 115.3125 29.62890625 C115.43329424 44.4428443 110.71889849 55.21420385 100.80078125 66.30859375 C95.48445319 71.30202119 89.27536984 75.32329145 83 79 C83.52319824 79.20044922 84.04639648 79.40089844 84.58544922 79.60742188 C100.44689811 85.76354857 113.92792777 92.58852121 121.375 108.8125 C126.16001711 120.2341278 125.42889512 135.55868762 121 147 C113.26441671 163.51249509 99.70938761 172.90545889 83 179 C79.69624399 180.16514143 76.39910378 181.15287133 73 182 C72.19304687 182.20625 71.38609375 182.4125 70.5546875 182.625 C53.89314636 186.12246636 33.39216994 185.75539336 17.3125 179.84375 C15.57958356 179.21146968 13.82518325 178.63755653 12.0625 178.09375 C5.67722776 176.11431561 0.50030494 173.80790342 -5 170 C-4.47316146 162.22913153 -2.40173646 155.38311577 0 148 C0.58913904 146.06425745 1.17311573 144.12692996 1.75 142.1875 C2.16656362 140.79163591 2.58321181 139.39579705 3 138 C3.52843506 138.23187012 4.05687012 138.46374023 4.60131836 138.70263672 C7.04316644 139.7684319 9.49022021 140.82174035 11.9375 141.875 C12.76830078 142.23980469 13.59910156 142.60460937 14.45507812 142.98046875 C29.10793217 149.25211834 47.79206166 151.10176104 63.1875 146.3125 C69.4424996 143.67686219 73.96333909 140.23314608 77 134 C78.82543598 128.06414176 78.86575179 121.46055771 76.8125 115.625 C71.95626319 108.59182945 65.83374882 104.39433455 57.56176758 102.42163086 C51.92839342 101.49445682 46.19660931 101.51444136 40.5 101.375 C36.045 101.25125 31.59 101.1275 27 101 C27 91.1 27 81.2 27 71 C32.94 70.01 32.94 70.01 39 69 C51.66632548 64.18495617 62.01319334 54.43035855 69 43 C69.99 40.36 70.98 37.72 72 35 C48.24 35 24.48 35 0 35 C0 23.45 0 11.9 0 0 Z " fill="#FCFDFD" transform="translate(106,103)"/>
<path d="M0 0 C12.54 0 25.08 0 38 0 C36.32221046 10.06673727 29.40755555 18.66642914 21.6015625 25.1484375 C12.23383045 31.81556211 4.70630769 36 -7 36 C-7 45.9 -7 55.8 -7 66 C1.76469704 65.8821171 1.76469704 65.8821171 10.52880859 65.72973633 C21.92882275 65.65292128 31.13701261 67.51168004 40 75 C44.63026589 80.29538695 45.29556366 85.40746431 45.21484375 92.21484375 C44.7801342 97.85026024 42.29877555 102.44153072 38.58203125 106.65234375 C35.49001429 109.28628412 31.78338417 110.63326023 28 112 C27.16597656 112.35964844 26.33195312 112.71929687 25.47265625 113.08984375 C20.2833686 114.44991577 15.2168117 114.3283229 9.875 114.3125 C8.81023437 114.32861328 7.74546875 114.34472656 6.6484375 114.36132812 C-4.09758438 114.36784877 -13.65702594 112.12909809 -23.25 107.3125 C-23.91128906 106.99216797 -24.57257813 106.67183594 -25.25390625 106.34179688 C-26.84088543 105.57130698 -28.42125165 104.78721741 -30 104 C-30.99 105.32 -31.98 106.64 -33 108 C-34.65 107.34 -36.3 106.68 -38 106 C-38 105.34 -38 104.68 -38 104 C-38.515625 103.773125 -39.03125 103.54625 -39.5625 103.3125 C-45.53579954 100.09610794 -49.47542536 96.91218971 -53 91 C-56.2827476 85.81912739 -59.45476618 81.14418378 -64 77 C-63.505 76.01 -63.505 76.01 -63 75 C-59.50262864 75.97601061 -57.18964899 76.84195917 -54.375 79.1875 C-53.59125 79.785625 -52.8075 80.38375 -52 81 C-51.34 80.814375 -50.68 80.62875 -50 80.4375 C-49.01 80.2209375 -49.01 80.2209375 -48 80 C-45.375 82.375 -45.375 82.375 -43 85 C-42.34 85.33 -41.68 85.66 -41 86 C-41.25620684 84.3934324 -41.53055871 82.7897517 -41.8125 81.1875 C-42.03873047 79.84751953 -42.03873047 79.84751953 -42.26953125 78.48046875 C-43.06963708 75.76353184 -43.77502384 74.70779042 -46 73 C-47.485 72.505 -47.485 72.505 -49 72 C-49 71.01 -49 70.02 -49 69 C-49.99 68.67 -50.98 68.34 -52 68 C-53.11658501 63.31034294 -52.80619523 60.46236469 -51 56 C-49.02 56.66 -47.04 57.32 -45 58 C-45 58.66 -45 59.32 -45 60 C-43.515 60.495 -43.515 60.495 -42 61 C-41.67 61.66 -41.34 62.32 -41 63 C-39.515 63.495 -39.515 63.495 -38 64 C-38 64.99 -38 65.98 -38 67 C-36.9275 66.38125 -35.855 65.7625 -34.75 65.125 C-32.20219016 63.6676321 -29.64740645 62.27075509 -27 61 C-26.27037482 55.60239549 -26.27037482 55.60239549 -28.5234375 50.86328125 C-29.77048697 49.52715682 -31.05237294 48.22247041 -32.37109375 46.95703125 C-34.31218424 44.62492972 -34.72838321 42.99766166 -35 40 C-34 38.25 -34 38.25 -32 37 C-28.3125 36.3125 -28.3125 36.3125 -25 36 C-25 36.66 -25 37.32 -25 38 C-24.2265625 37.505 -24.2265625 37.505 -23.4375 37 C-20.21973488 35.67989123 -17.4429472 35.86757895 -14 36 C-14 35.34 -14 34.68 -14 34 C-12.02 34 -10.04 34 -8 34 C-8 33.34 -8 32.68 -8 32 C-6.6078125 31.319375 -6.6078125 31.319375 -5.1875 30.625 C-1.96078611 29.0578367 -1.96078611 29.0578367 1 27 C1 25.68 1 24.36 1 23 C2.32 22.67 3.64 22.34 5 22 C5 21.34 5 20.68 5 20 C5.66 20 6.32 20 7 20 C7.66 18.02 8.32 16.04 9 14 C7.35 14 5.7 14 4 14 C4.33 12.35 4.66 10.7 5 9 C4.01 8.67 3.02 8.34 2 8 C2 7.34 2 6.68 2 6 C0.68 6 -0.64 6 -2 6 C-2 5.34 -2 4.68 -2 4 C-1.34 3.67 -0.68 3.34 0 3 C0 2.01 0 1.02 0 0 Z " fill="#6F9A7C" transform="translate(140,138)"/>
<path d="M0 0 C2 3 2 3 3 5 C3.78375 5.268125 4.5675 5.53625 5.375 5.8125 C8.66682893 7.3016607 9.43918652 8.80033237 11 12 C11.495 13.485 11.495 13.485 12 15 C12.639375 15.28875 13.27875 15.5775 13.9375 15.875 C16.80136589 17.43710867 17.02346896 18.92478383 18 22 C18.30078125 24.9375 18.30078125 24.9375 18.3125 28 C18.32925781 29.010625 18.34601563 30.02125 18.36328125 31.0625 C17.94809441 34.41970974 16.89214226 36.22986617 15 39 C12.78076602 43.25353179 10.85631367 47.58020554 9 52 C8.01 52 7.02 52 6 52 C5.67 53.65 5.34 55.3 5 57 C1.37 57 -2.26 57 -6 57 C-6 59.31 -6 61.62 -6 64 C-1.71 64 2.58 64 7 64 C7 65.65 7 67.3 7 69 C0.4 69 -6.2 69 -13 69 C-13 63.72 -13 58.44 -13 53 C-13.66 53 -14.32 53 -15 53 C-15 52.34 -15 51.68 -15 51 C-15.66 51 -16.32 51 -17 51 C-17.495 47.535 -17.495 47.535 -18 44 C-18.66 44 -19.32 44 -20 44 C-20 52.58 -20 61.16 -20 70 C-27 70 -27 70 -29.29296875 67.83984375 C-29.91816406 66.88207031 -30.54335937 65.92429687 -31.1875 64.9375 C-31.85136719 63.9371875 -32.51523438 62.936875 -33.19921875 61.90625 C-33.79347656 60.9471875 -34.38773438 59.988125 -35 59 C-35.46019531 58.2678125 -35.92039063 57.535625 -36.39453125 56.78125 C-39 52.43573322 -39 52.43573322 -39 50 C-39.66 50 -40.32 50 -41 50 C-41 56.27 -41 62.54 -41 69 C-42.98 69 -44.96 69 -47 69 C-47 59.43 -47 49.86 -47 40 C-44.36 40 -41.72 40 -39 40 C-36.828125 42.1953125 -36.828125 42.1953125 -35.25 45.125 C-34.71890625 46.07632813 -34.1878125 47.02765625 -33.640625 48.0078125 C-32.82851562 49.48894531 -32.82851562 49.48894531 -32 51 C-30.68 52.98 -29.36 54.96 -28 57 C-28 52.05 -28 47.1 -28 42 C-28.99 41.505 -28.99 41.505 -30 41 C-30 40.34 -30 39.68 -30 39 C-31.65984798 38.31653318 -33.32836805 37.65411685 -35 37 C-36.423125 36.4121875 -36.423125 36.4121875 -37.875 35.8125 C-41.70380498 34.8170107 -44.12193488 35.22438698 -48 36 C-48.85722656 36.13664062 -49.71445313 36.27328125 -50.59765625 36.4140625 C-51.49355469 36.56617188 -52.38945312 36.71828125 -53.3125 36.875 C-54.15425781 37.01679688 -54.99601562 37.15859375 -55.86328125 37.3046875 C-58.36369563 37.87434682 -58.36369563 37.87434682 -60 41 C-59.401875 41.226875 -58.80375 41.45375 -58.1875 41.6875 C-55.33484544 43.39909274 -54.47680856 45.02974278 -53 48 C-52.12820941 54.35039616 -52.15789571 60.6484976 -56 66 C-60.42220332 70.00762176 -64.73473323 70.35287886 -70.4921875 70.27734375 C-74.246747 69.86211988 -76.25499237 68.54415341 -79 66 C-82.08655192 61.08194801 -82.36083091 57.34842067 -82.125 51.75 C-81.73713626 46.72827762 -81.73713626 46.72827762 -83 42 C-82.67 41.34 -82.34 40.68 -82 40 C-81.63532143 36.17087502 -82.01313802 33.9682498 -83.5 30.375 C-85.64377595 25.12224091 -85.63744771 19.58801568 -85 14 C-84.34 13.01 -83.68 12.02 -83 11 C-82.28457031 11.14308594 -81.56914063 11.28617187 -80.83203125 11.43359375 C-79.89746094 11.62050781 -78.96289062 11.80742187 -78 12 C-77.17886719 12.17660156 -76.35773438 12.35320312 -75.51171875 12.53515625 C-59.38569877 15.54623882 -41.81165019 15.47668465 -26 11 C-25.37303223 10.82307617 -24.74606445 10.64615234 -24.10009766 10.46386719 C-15.50130554 7.97762467 -7.669384 4.63989759 0 0 Z " fill="#9CBDA2" transform="translate(208,272)"/>
<path d="M0 0 C3.46260222 2.41576899 4.91833095 3.99643708 6.6875 7.875 C7.47448083 14.32116884 7.60125355 20.42370042 3.6875 25.875 C-0.73470332 29.88262176 -5.04723323 30.22787886 -10.8046875 30.15234375 C-14.559247 29.73711988 -16.56749237 28.41915341 -19.3125 25.875 C-23.30689359 20.54914188 -23.09142549 14.25518745 -22.3125 7.875 C-20.54333095 3.99643708 -19.08760222 2.41576899 -15.625 0 C-10.14291794 -1.86183919 -5.48208206 -1.86183919 0 0 Z " fill="#F7F8F7" transform="translate(148.3125,312.125)"/>
<path d="M0 0 C8 0 8 0 10.13671875 2.125 C10.64847656 3.07375 11.16023437 4.0225 11.6875 5 C12.20699219 5.928125 12.72648438 6.85625 13.26171875 7.8125 C14.12216797 9.3903125 14.12216797 9.3903125 15 11 C16.65 13.64 18.3 16.28 20 19 C20.33 12.73 20.66 6.46 21 0 C22.65 0 24.3 0 26 0 C26 9.57 26 19.14 26 29 C19 29 19 29 17.30322266 27.68652344 C16.9272998 27.08356445 16.55137695 26.48060547 16.1640625 25.859375 C15.73996094 25.20066406 15.31585938 24.54195313 14.87890625 23.86328125 C14.46511719 23.16589844 14.05132812 22.46851563 13.625 21.75 C13.18800781 21.06808594 12.75101563 20.38617188 12.30078125 19.68359375 C10.28316917 16.46665808 8.7878398 13.744046 8 10 C7.34 10 6.68 10 6 10 C6 16.27 6 22.54 6 29 C4.02 29 2.04 29 0 29 C0 19.43 0 9.86 0 0 Z " fill="#F9FAFA" transform="translate(161,312)"/>
<path d="M0 0 C6.6 0 13.2 0 20 0 C19.67 1.65 19.34 3.3 19 5 C15.04 5 11.08 5 7 5 C7 7.31 7 9.62 7 12 C10.63 12 14.26 12 18 12 C18 13.65 18 15.3 18 17 C14.37 17 10.74 17 7 17 C7 19.31 7 21.62 7 24 C11.29 24 15.58 24 20 24 C20 25.65 20 27.3 20 29 C13.4 29 6.8 29 0 29 C0 19.43 0 9.86 0 0 Z " fill="#F8F9F9" transform="translate(195,312)"/>
<path d="M0 0 C7.59 0 15.18 0 23 0 C21.87532397 6.7480562 21.87532397 6.7480562 19.3125 9.796875 C18.77882813 10.44527344 18.24515625 11.09367187 17.6953125 11.76171875 C17.13585937 12.41785156 16.57640625 13.07398438 16 13.75 C14.89454626 15.07705391 13.79031952 16.40513118 12.6875 17.734375 C12.19636719 18.31413086 11.70523438 18.89388672 11.19921875 19.49121094 C9.91176631 21.00443988 9.91176631 21.00443988 9 23 C13.29 23.33 17.58 23.66 22 24 C22 25.65 22 27.3 22 29 C14.74 29 7.48 29 0 29 C0 22.26802218 0 22.26802218 3.6875 18.0625 C4.41324219 17.21042969 5.13898438 16.35835938 5.88671875 15.48046875 C6.58410156 14.66191406 7.28148438 13.84335937 8 13 C9.72043112 10.69928094 11.35918426 8.35867263 13 6 C8.71 5.67 4.42 5.34 0 5 C0 3.35 0 1.7 0 0 Z " fill="#F8F9F8" transform="translate(100,312)"/>
<path d="M0 0 C1.9375 0.8125 1.9375 0.8125 4 2 C4.33 2.99 4.66 3.98 5 5 C4.34 5 3.68 5 3 5 C2.67 6.65 2.34 8.3 2 10 C2.66 10 3.32 10 4 10 C4 11.65 4 13.3 4 15 C3.01 15 2.02 15 1 15 C0.01 17.97 -0.98 20.94 -2 24 C-3.65614657 24.38218767 -5.32457024 24.71395102 -7 25 C-7.33 24.67 -7.66 24.34 -8 24 C-9.45697071 23.89551604 -10.9157846 23.81611332 -12.375 23.75 C-16.71579643 23.30142803 -16.71579643 23.30142803 -19.0625 20.8125 C-20.09780797 17.7065761 -20.22695606 15.25303688 -20 12 C-18.02 12 -16.04 12 -14 12 C-13.67 11.01 -13.34 10.02 -13 9 C-11.01679982 7.96708324 -9.01652194 6.9662501 -7 6 C-6.67 5.34 -6.34 4.68 -6 4 C-5.01 3.67 -4.02 3.34 -3 3 C-1.33289654 1.50014391 -1.33289654 1.50014391 0 0 Z " fill="#98BD9F" transform="translate(133,211)"/>
<path d="M0 0 C2.92445236 2.99926393 3.45413367 5.30379711 3.5 9.4375 C3.38647882 13.48101635 3.17014734 14.75207102 0.8125 18.1875 C-2 20 -2 20 -4.5625 20.5625 C-7.73810981 19.82966697 -8.95272307 18.48597913 -11 16 C-12.9793306 12.0413388 -12.55247156 7.30546801 -12 3 C-8.52987482 -1.62683357 -5.35676217 -1.58718879 0 0 Z " fill="#739C7E" transform="translate(145,317)"/>
<path d="M0 0 C5.8189788 1.09105852 8.85662874 3.30925978 13.1484375 7.3359375 C15.03132806 9.14740089 15.03132806 9.14740089 17.75 10.5625 C20 12 20 12 22.0625 15.1875 C22.701875 16.115625 23.34125 17.04375 24 18 C25.32 18 26.64 18 28 18 C28.125 25.75 28.125 25.75 27 28 C22.01452916 27.54677538 18.65792379 25.24464874 15 22 C12.9375 19.25 12.9375 19.25 11 16 C7.04091135 9.65549045 7.04091135 9.65549045 2.125 4.0625 C1.42375 3.381875 0.7225 2.70125 0 2 C0 1.34 0 0.68 0 0 Z " fill="#9ABDA0" transform="translate(76,213)"/>
<path d="M0 0 C0.33 0.99 0.66 1.98 1 3 C0 4 0 4 -2.50390625 4.09765625 C-4.01791016 4.08025391 -4.01791016 4.08025391 -5.5625 4.0625 C-6.57441406 4.05347656 -7.58632812 4.04445312 -8.62890625 4.03515625 C-9.80259766 4.01775391 -9.80259766 4.01775391 -11 4 C-11 5.32 -11 6.64 -11 8 C-10.01 7.34 -9.02 6.68 -8 6 C-5.3125 5.875 -5.3125 5.875 -3 6 C-4.98 6.99 -4.98 6.99 -7 8 C-6.690625 8.9075 -6.38125 9.815 -6.0625 10.75 C-5.2727737 13.16563338 -4.57050703 15.52780285 -4 18 C-5.65 17.67 -7.3 17.34 -9 17 C-9.33 15.68 -9.66 14.36 -10 13 C-10.66 13 -11.32 13 -12 13 C-11.67 15.31 -11.34 17.62 -11 20 C-11.99 20 -12.98 20 -14 20 C-16.51315789 12.66429587 -16.51315789 12.66429587 -15.27734375 8.65625 C-12.84615385 3.84615385 -12.84615385 3.84615385 -11 2 C-9.30858344 2.08963062 -7.62040398 2.24577676 -5.9375 2.4375 C-4.55884766 2.59025391 -4.55884766 2.59025391 -3.15234375 2.74609375 C-2.44207031 2.82988281 -1.73179687 2.91367188 -1 3 C-0.67 2.01 -0.34 1.02 0 0 Z " fill="#92BA9D" transform="translate(153,221)"/>
<path d="M0 0 C2.97 0.495 2.97 0.495 6 1 C4.71480435 3.86697492 3.42870746 5.97607712 1 8 C0.34 8 -0.32 8 -1 8 C-1.268125 8.598125 -1.53625 9.19625 -1.8125 9.8125 C-3.91001451 13.67634253 -3.91001451 13.67634253 -6 15 C-8.76360047 14.94527524 -11.26239716 14.49366609 -14 14 C-12.6015209 10.5912072 -11.14993067 9.12606165 -8 7.25 C-7.29875 6.82203125 -6.5975 6.3940625 -5.875 5.953125 C-4 5 -4 5 -2 5 C-1.34 3.35 -0.68 1.7 0 0 Z " fill="#95B59C" transform="translate(276,330)"/>
<path d="M0 0 C0.78503906 -0.00257812 1.57007812 -0.00515625 2.37890625 -0.0078125 C4.4375 0.125 4.4375 0.125 6.4375 1.125 C6.4375 1.785 6.4375 2.445 6.4375 3.125 C7.613125 3.0321875 7.613125 3.0321875 8.8125 2.9375 C10.111875 3.0303125 10.111875 3.0303125 11.4375 3.125 C12.4275 4.61 12.4275 4.61 13.4375 6.125 C11.5581684 8.0043316 8.44433616 7.29910878 5.9375 7.3125 C0.10488456 7.2826809 -4.95347462 6.67231735 -10.5625 5.125 C-9.5725 4.795 -8.5825 4.465 -7.5625 4.125 C-7.5625 3.135 -7.5625 2.145 -7.5625 1.125 C-4.73533905 0.18261302 -2.93073877 -0.00965647 0 0 Z " fill="#8FB094" transform="translate(66.5625,19.875)"/>
<path d="M0 0 C-2.71817199 5.85452428 -5.76244435 11.09747408 -10 16 C-10.33 16 -10.66 16 -11 16 C-11.33 13.03 -11.66 10.06 -12 7 C-12.66 7 -13.32 7 -14 7 C-14 6.34 -14 5.68 -14 5 C-13.13375 4.87625 -13.13375 4.87625 -12.25 4.75 C-9.3774583 3.7924861 -8.04910899 2.18571625 -6 0 C-3.50907189 -1.24546405 -2.58919267 -0.7767578 0 0 Z " fill="#739D80" transform="translate(178,141)"/>
<path d="M0 0 C2.875 -0.125 2.875 -0.125 6 0 C8 2 8 2 8.125 4.625 C8.08375 5.40875 8.0425 6.1925 8 7 C9.32 7 10.64 7 12 7 C12.33 5.35 12.66 3.7 13 2 C13.66 2 14.32 2 15 2 C14.25 9.75 14.25 9.75 12 12 C12 11.34 12 10.68 12 10 C8.7 9.67 5.4 9.34 2 9 C2 7.68 2 6.36 2 5 C-0.475 4.01 -0.475 4.01 -3 3 C-2.67 2.34 -2.34 1.68 -2 1 C-1.34 1.33 -0.68 1.66 0 2 C0 1.34 0 0.68 0 0 Z " fill="#8AB495" transform="translate(170,227)"/>
<path d="M0 0 C1.9375 0.8125 1.9375 0.8125 4 2 C4.33 2.99 4.66 3.98 5 5 C5.99 5.33 6.98 5.66 8 6 C8.33 6.66 8.66 7.32 9 8 C10.65 8 12.3 8 14 8 C14 8.99 14 9.98 14 11 C13.38125 11.061875 12.7625 11.12375 12.125 11.1875 C11.42375 11.455625 10.7225 11.72375 10 12 C9.29788106 13.65204456 8.63028587 15.31923769 8 17 C7.01 17.33 6.02 17.66 5 18 C5 16.68 5 15.36 5 14 C4.01 13.67 3.02 13.34 2 13 C2.3403125 11.453125 2.3403125 11.453125 2.6875 9.875 C3.03901465 5.5162183 2.23944649 3.67269225 0 0 Z " fill="#8FB299" transform="translate(279,314)"/>
<path d="M0 0 C3.96 0 7.92 0 12 0 C12.33 0.66 12.66 1.32 13 2 C14.92987258 2.56157237 14.92987258 2.56157237 17.25390625 2.8515625 C18.10791016 2.98046875 18.96191406 3.109375 19.84179688 3.2421875 C21.18854492 3.43167969 21.18854492 3.43167969 22.5625 3.625 C23.91504883 3.82609375 23.91504883 3.82609375 25.29492188 4.03125 C27.52889514 4.362209 29.76376696 4.68473505 32 5 C31.34 5.66 30.68 6.32 30 7 C27.3984375 6.9765625 27.3984375 6.9765625 24.375 6.625 C23.37210938 6.51414063 22.36921875 6.40328125 21.3359375 6.2890625 C20.56507813 6.19367188 19.79421875 6.09828125 19 6 C19 6.66 19 7.32 19 8 C14.21357393 7.4253379 10.46211213 6.01754357 6.125 3.9375 C4.97257812 3.38964844 3.82015625 2.84179688 2.6328125 2.27734375 C1.76398438 1.85582031 0.89515625 1.43429688 0 1 C0 0.67 0 0.34 0 0 Z " fill="#8CB296" transform="translate(112,242)"/>
<path d="M0 0 C1.6875 1.4375 1.6875 1.4375 3 4 C2.35087445 7.14284955 1.23221253 10.04268993 0 13 C1.65 13 3.3 13 5 13 C5.33 13.99 5.66 14.98 6 16 C5.113125 15.814375 4.22625 15.62875 3.3125 15.4375 C0.14821189 15.01957516 -1.94839642 15.19222258 -5 16 C-5 15.34 -5 14.68 -5 14 C-6.32 13.34 -7.64 12.68 -9 12 C-9 11.01 -9 10.02 -9 9 C-8.071875 9 -7.14375 9 -6.1875 9 C-2.93907386 8.37579279 -2.93907386 8.37579279 -1.93359375 6.15234375 C-1.19043389 4.11673196 -0.54455074 2.09699804 0 0 Z " fill="#739F7F" transform="translate(162,220)"/>
<path d="M0 0 C0.99 0 1.98 0 3 0 C3 0.99 3 1.98 3 3 C2.34 3 1.68 3 1 3 C0.95745644 4.99954746 0.95919217 7.00041636 1 9 C2.49743119 10.49743119 3.98824239 10.33202693 6.0625 10.5625 C7.361875 10.706875 8.66125 10.85125 10 11 C10 11.33 10 11.66 10 12 C7.69 12 5.38 12 3 12 C2.9175 12.78375 2.835 13.5675 2.75 14.375 C2 17 2 17 0.3125 18.3125 C-2.53484909 19.15900919 -5.04563706 19.13428922 -8 19 C-7.401875 18.731875 -6.80375 18.46375 -6.1875 18.1875 C-3.8959831 16.94353368 -2.5169063 16.12366882 -1 14 C-0.74951364 10.87450983 -0.74951364 10.87450983 -1 8 C-1.66 8 -2.32 8 -3 8 C-2.25 2.25 -2.25 2.25 0 0 Z " fill="#7FA182" transform="translate(15,42)"/>
<path d="M0 0 C6.43311296 -0.09507063 12.65758005 -0.15316726 19 1 C18.67 1.99 18.34 2.98 18 4 C12.06 4 6.12 4 0 4 C0 2.68 0 1.36 0 0 Z " fill="#96B8A0" transform="translate(178,35)"/>
<path d="M0 0 C-2.61941217 1.74627478 -4.03824877 2.38722388 -7 3 C-7 3.66 -7 4.32 -7 5 C-4.36 5 -1.72 5 1 5 C1 5.33 1 5.66 1 6 C-7.25 6 -15.5 6 -24 6 C-24 5.67 -24 5.34 -24 5 C-23.39671875 4.93941406 -22.7934375 4.87882813 -22.171875 4.81640625 C-20.97304687 4.69072266 -20.97304687 4.69072266 -19.75 4.5625 C-18.96109375 4.48128906 -18.1721875 4.40007812 -17.359375 4.31640625 C-13.00515889 3.83553277 -13.00515889 3.83553277 -9.5 1.5 C-6.56779648 -1.43220352 -3.76756537 -1.21100315 0 0 Z " fill="#87A992" transform="translate(161,246)"/>
<path d="M0 0 C0.33 1.65 0.66 3.3 1 5 C0.34 5 -0.32 5 -1 5 C-1 4.34 -1 3.68 -1 3 C-2.18078125 3.22816406 -3.3615625 3.45632812 -4.578125 3.69140625 C-6.13533463 3.98221046 -7.69263094 4.2725508 -9.25 4.5625 C-10.02730469 4.71396484 -10.80460937 4.86542969 -11.60546875 5.02148438 C-12.35957031 5.16005859 -13.11367187 5.29863281 -13.890625 5.44140625 C-14.58188477 5.57232666 -15.27314453 5.70324707 -15.98535156 5.83813477 C-18.21287942 6.01710362 -19.87506962 5.65206197 -22 5 C-19.58394775 4.18563413 -17.16720002 3.37344603 -14.75 2.5625 C-14.06808594 2.33240234 -13.38617188 2.10230469 -12.68359375 1.86523438 C-3.56607521 -1.18869174 -3.56607521 -1.18869174 0 0 Z " fill="#789C7D" transform="translate(117,38)"/>
<path d="M0 0 C0 1.32 0 2.64 0 4 C-0.66 4 -1.32 4 -2 4 C-2.33 5.32 -2.66 6.64 -3 8 C-3.99 7.34 -4.98 6.68 -6 6 C-6 5.34 -6 4.68 -6 4 C-7.65 4 -9.3 4 -11 4 C-11 2.68 -11 1.36 -11 0 C-3.375 -1.125 -3.375 -1.125 0 0 Z " fill="#92B99B" transform="translate(160,207)"/>
<path d="M0 0 C4.62 0 9.24 0 14 0 C14 0.33 14 0.66 14 1 C8.06 1.495 8.06 1.495 2 2 C3.98 4.64 5.96 7.28 8 10 C7.34 11.32 6.68 12.64 6 14 C5.34 14 4.68 14 4 14 C4.33 12.35 4.66 10.7 5 9 C4.01 8.67 3.02 8.34 2 8 C2 7.34 2 6.68 2 6 C0.68 6 -0.64 6 -2 6 C-2 5.34 -2 4.68 -2 4 C-1.34 3.67 -0.68 3.34 0 3 C0 2.01 0 1.02 0 0 Z " fill="#8DB094" transform="translate(140,138)"/>
<path d="M0 0 C3.25 0.1875 3.25 0.1875 7 1 C8.47728359 1.20180056 9.95656673 1.38950602 11.4375 1.5625 C12.613125 1.706875 13.78875 1.85125 15 2 C15 2.66 15 3.32 15 4 C8.73 4 2.46 4 -4 4 C-2.68 2.68 -1.36 1.36 0 0 Z " fill="#8FB296" transform="translate(83,25)"/>
<path d="M0 0 C4.62 0 9.24 0 14 0 C14 0.99 14 1.98 14 3 C9.38 3 4.76 3 0 3 C0 2.01 0 1.02 0 0 Z " fill="#9BBAA0" transform="translate(65,24)"/>
<path d="M0 0 C2.875 -0.125 2.875 -0.125 6 0 C6.66 0.66 7.32 1.32 8 2 C7.67 3.32 7.34 4.64 7 6 C3.7 5.01 0.4 4.02 -3 3 C-2.67 2.34 -2.34 1.68 -2 1 C-1.34 1.33 -0.68 1.66 0 2 C0 1.34 0 0.68 0 0 Z " fill="#97C1A1" transform="translate(170,227)"/>
<path d="M0 0 C4.5929708 3.52127761 5.11941917 7.57747597 6 13 C3.4000702 10.48972295 1.00908773 8.0136316 -1 5 C-1 4.34 -1 3.68 -1 3 C-1.66 3 -2.32 3 -3 3 C-3 2.34 -3 1.68 -3 1 C-2.01 0.67 -1.02 0.34 0 0 Z " fill="#7DA587" transform="translate(81,220)"/>
<path d="M0 0 C3.3 0 6.6 0 10 0 C10 1.32 10 2.64 10 4 C5.71 4 1.42 4 -3 4 C-2.01 3.34 -1.02 2.68 0 2 C0 1.34 0 0.68 0 0 Z " fill="#96B79B" transform="translate(205,332)"/>
<path d="M0 0 C2.64 0 5.28 0 8 0 C7.8125 1.875 7.8125 1.875 7 4 C4.10888212 5.52164099 2.28176588 6 -1 6 C-0.67 4.02 -0.34 2.04 0 0 Z " fill="#9EC0A6" transform="translate(158,138)"/>
<path d="M0 0 C-0.66 1.65 -1.32 3.3 -2 5 C-4.31 4.67 -6.62 4.34 -9 4 C-8 1 -8 1 -6.1875 -0.25 C-3.66056586 -1.11637742 -2.47778006 -0.88492145 0 0 Z " fill="#90B79A" transform="translate(178,141)"/>
<path d="M0 0 C1.98 0 3.96 0 6 0 C6.33 0.99 6.66 1.98 7 3 C5.68 3 4.36 3 3 3 C3.33 3.99 3.66 4.98 4 6 C2.68 6 1.36 6 0 6 C0 4.02 0 2.04 0 0 Z " fill="#759F7F" transform="translate(202,329)"/>
<path d="M0 0 C0.66 0 1.32 0 2 0 C1.92014753 2.79483647 1.51996787 4.48140047 -0.484375 6.48046875 C-3.90298428 9.08825404 -3.90298428 9.08825404 -6 10 C-8.23046875 9.6328125 -8.23046875 9.6328125 -10 9 C-9.44570312 8.68546875 -8.89140625 8.3709375 -8.3203125 8.046875 C-7.23363281 7.40492187 -7.23363281 7.40492187 -6.125 6.75 C-5.40570313 6.33234375 -4.68640625 5.9146875 -3.9453125 5.484375 C-1.79125838 3.84071924 -1.00859415 2.48432665 0 0 Z " fill="#769C79" transform="translate(112,88)"/>
<path d="M0 0 C0.66 0 1.32 0 2 0 C1.47731534 2.76276177 0.89130413 5.3260876 0 8 C-2.0625 8.6875 -2.0625 8.6875 -4 9 C-2.25 2.25 -2.25 2.25 0 0 Z " fill="#A4C4AA" transform="translate(147,164)"/>
<path d="M0 0 C-6 4 -6 4 -10 4 C-9.25 2.0625 -9.25 2.0625 -8 0 C-5.05360248 -1.27677226 -3.00864103 -0.96706319 0 0 Z " fill="#8BB296" transform="translate(161,246)"/>
<path d="M0 0 C0.98120464 3.05263664 0.98120464 4.94736336 0 8 C-3.75 9.125 -3.75 9.125 -6 8 C-5.67 6.68 -5.34 5.36 -5 4 C-4.01 4 -3.02 4 -2 4 C-1.34 2.68 -0.68 1.36 0 0 Z " fill="#80A78C" transform="translate(174,240)"/>
<path d="M0 0 C3.3 0.33 6.6 0.66 10 1 C10 2.32 10 3.64 10 5 C5.84585747 3.77263971 3.56311466 2.672336 0 0 Z " fill="#94B99C" transform="translate(112,242)"/>
<path d="M0 0 C1.52299523 2.93720508 2.80100302 5.9168649 4 9 C2.35 8.67 0.7 8.34 -1 8 C-2.2077558 4.37673261 -1.54311128 3.35853631 0 0 Z " fill="#89B495" transform="translate(145,230)"/>
<path d="M0 0 C1.32 0 2.64 0 4 0 C4.12375 0.639375 4.2475 1.27875 4.375 1.9375 C4.684375 2.9584375 4.684375 2.9584375 5 4 C5.66 4.33 6.32 4.66 7 5 C5.1875 5.6875 5.1875 5.6875 3 6 C1.25 4.75 1.25 4.75 0 3 C0 2.01 0 1.02 0 0 Z " fill="#77A284" transform="translate(97,226)"/>
<path d="M0 0 C1.2065625 0.0309375 1.2065625 0.0309375 2.4375 0.0625 C2.1075 1.3825 1.7775 2.7025 1.4375 4.0625 C0.1175 4.3925 -1.2025 4.7225 -2.5625 5.0625 C-3.125 3.125 -3.125 3.125 -3.5625 1.0625 C-2.5625 0.0625 -2.5625 0.0625 0 0 Z " fill="#9BBDA2" transform="translate(115.5625,177.9375)"/>
<path d="M0 0 C4.62 0 9.24 0 14 0 C14 0.33 14 0.66 14 1 C8.06 1.495 8.06 1.495 2 2 C2 2.99 2 3.98 2 5 C1.01 4.67 0.02 4.34 -1 4 C-0.67 2.68 -0.34 1.36 0 0 Z " fill="#7DA688" transform="translate(140,138)"/>
<path d="M0 0 C0.33 0 0.66 0 1 0 C2.19287411 3.87684087 3 6.91621923 3 11 C2.01 11 1.02 11 0 11 C0 7.37 0 3.74 0 0 Z " fill="#84A887" transform="translate(0,24)"/>
<path d="M0 0 C2.97 0.495 2.97 0.495 6 1 C5.6875 2.9375 5.6875 2.9375 5 5 C4.01 5.33 3.02 5.66 2 6 C2 4.68 2 3.36 2 2 C1.34 2 0.68 2 0 2 C0 1.34 0 0.68 0 0 Z " fill="#93BA9E" transform="translate(164,146)"/>
<path d="M0 0 C0.66 0 1.32 0 2 0 C2 1.32 2 2.64 2 4 C-1.4019487 6.09350689 -4.05272412 6.17942163 -8 6 C-7.4225 5.7525 -6.845 5.505 -6.25 5.25 C-3.86550111 4.06009525 -3.86550111 4.06009525 -1.875 1.875 C-0.946875 0.946875 -0.946875 0.946875 0 0 Z " fill="#799B7A" transform="translate(15,55)"/>
<path d="M0 0 C-7.28571429 3.42857143 -7.28571429 3.42857143 -12 3 C-11.01 2.67 -10.02 2.34 -9 2 C-9 1.34 -9 0.68 -9 0 C-5.62182575 -0.84454356 -3.32534757 -1.10844919 0 0 Z " fill="#9DBAA0" transform="translate(68,22)"/>
<path d="M0 0 C4.62 0 9.24 0 14 0 C13.34 1.32 12.68 2.64 12 4 C11.34 3.67 10.68 3.34 10 3 C10 2.34 10 1.68 10 1 C6.7 1 3.4 1 0 1 C0 0.67 0 0.34 0 0 Z " fill="#7AA484" transform="translate(100,317)"/>
<path d="M0 0 C1.9375 0.8125 1.9375 0.8125 4 2 C4.33 2.99 4.66 3.98 5 5 C5.66 5.33 6.32 5.66 7 6 C6.01 7.32 5.02 8.64 4 10 C1.125 3.375 1.125 3.375 0 0 Z " fill="#88AA92" transform="translate(279,314)"/>
<path d="M0 0 C0.28875 0.61875 0.5775 1.2375 0.875 1.875 C1.93720042 4.13325765 1.93720042 4.13325765 4 6 C3.34 7.32 2.68 8.64 2 10 C-1.07692308 4.58461538 -1.07692308 4.58461538 -0.6875 1.625 C-0.460625 1.08875 -0.23375 0.5525 0 0 Z " fill="#749C82" transform="translate(265,267)"/>
<path d="M0 0 C0.33 0.99 0.66 1.98 1 3 C0.113125 2.814375 -0.77375 2.62875 -1.6875 2.4375 C-4.85178811 2.01957516 -6.94839642 2.19222258 -10 3 C-10 2.34 -10 1.68 -10 1 C-6.61981469 -0.04005702 -3.5219721 -0.08004482 0 0 Z " fill="#8BB496" transform="translate(167,233)"/>
<path d="M0 0 C0.99 1.32 1.98 2.64 3 4 C2.01 5.32 1.02 6.64 0 8 C-0.66 7.67 -1.32 7.34 -2 7 C-1.125 1.125 -1.125 1.125 0 0 Z " fill="#8BB496" transform="translate(162,220)"/>
<path d="M0 0 C2.475 0.99 2.475 0.99 5 2 C4.67 3.32 4.34 4.64 4 6 C2.35 5.67 0.7 5.34 -1 5 C-0.67 3.35 -0.34 1.7 0 0 Z " fill="#789E7F" transform="translate(21,43)"/>
<path d="M0 0 C1.32 0.33 2.64 0.66 4 1 C4 2.65 4 4.3 4 6 C3.01 6 2.02 6 1 6 C0.67 4.02 0.34 2.04 0 0 Z " fill="#89B194" transform="translate(138,235)"/>
<path d="M0 0 C0.763125 0.20625 1.52625 0.4125 2.3125 0.625 C1.9825 1.285 1.6525 1.945 1.3125 2.625 C0.6525 2.625 -0.0075 2.625 -0.6875 2.625 C-1.0175 3.615 -1.3475 4.605 -1.6875 5.625 C-2.0175 4.965 -2.3475 4.305 -2.6875 3.625 C-3.6775 2.965 -4.6675 2.305 -5.6875 1.625 C-2.6875 -0.375 -2.6875 -0.375 0 0 Z " fill="#76A183" transform="translate(169.6875,230.375)"/>
<path d="M0 0 C1.65 0.33 3.3 0.66 5 1 C5 1.66 5 2.32 5 3 C1.37 3 -2.26 3 -6 3 C-6 2.67 -6 2.34 -6 2 C-4.02 2 -2.04 2 0 2 C0 1.34 0 0.68 0 0 Z " fill="#80A587" transform="translate(42,39)"/>
<path d="M0 0 C0.99 0 1.98 0 3 0 C3 0.66 3 1.32 3 2 C4.98 2 6.96 2 9 2 C9 2.33 9 2.66 9 3 C4.71 3 0.42 3 -4 3 C-2.68 2.67 -1.36 2.34 0 2 C0 1.34 0 0.68 0 0 Z " fill="#B1C8B3" transform="translate(206,333)"/>
<path d="M0 0 C1.65 0 3.3 0 5 0 C4.75 2.375 4.75 2.375 4 5 C1.9375 6.3125 1.9375 6.3125 0 7 C0 4.69 0 2.38 0 0 Z " fill="#80A68A" transform="translate(122,311)"/>
<path d="M0 0 C3 0 3 0 6 2 C6 2.66 6 3.32 6 4 C4.02 4.33 2.04 4.66 0 5 C0 3.35 0 1.7 0 0 Z " fill="#81A78B" transform="translate(104,231)"/>
<path d="M0 0 C0.99 0.33 1.98 0.66 3 1 C2.34 2.32 1.68 3.64 1 5 C-1.97 4.505 -1.97 4.505 -5 4 C-2.6875 1.9375 -2.6875 1.9375 0 0 Z " fill="#759F7F" transform="translate(249,72)"/>
<path d="M0 0 C0.99 0 1.98 0 3 0 C3 1.65 3 3.3 3 5 C1.68 5.33 0.36 5.66 -1 6 C-0.67 4.02 -0.34 2.04 0 0 Z " fill="#A7C1A7" transform="translate(16,45)"/>
<path d="M0 0 C0.33 0 0.66 0 1 0 C1 3.96 1 7.92 1 12 C0.01 11.01 -0.98 10.02 -2 9 C-2 8.34 -2 7.68 -2 7 C-1.34 7 -0.68 7 0 7 C0 4.69 0 2.38 0 0 Z " fill="#5C8B6A" transform="translate(180,318)"/>
<path d="M0 0 C2.475 0.99 2.475 0.99 5 2 C5 2.99 5 3.98 5 5 C3.35 4.67 1.7 4.34 0 4 C0 2.68 0 1.36 0 0 Z " fill="#7DA58C" transform="translate(242,246)"/>
<path d="M0 0 C1.32 0 2.64 0 4 0 C4.33 0.66 4.66 1.32 5 2 C7.52733235 2.65555119 7.52733235 2.65555119 10 3 C10 3.33 10 3.66 10 4 C7.36 4.33 4.72 4.66 2 5 C2 3.68 2 2.36 2 1 C1.34 0.67 0.68 0.34 0 0 Z " fill="#85AA8F" transform="translate(120,242)"/>
<path d="M0 0 C0.66 0 1.32 0 2 0 C2 0.66 2 1.32 2 2 C2.66 2.33 3.32 2.66 4 3 C4.99 4.485 4.99 4.485 6 6 C1.25 5.25 1.25 5.25 -1 3 C-0.67 2.01 -0.34 1.02 0 0 Z " fill="#789F81" transform="translate(30,40)"/>
<path d="M0 0 C1.65 1.65 3.3 3.3 5 5 C4.01 5.495 4.01 5.495 3 6 C0.375 4.5625 0.375 4.5625 -2 3 C-1.34 2.01 -0.68 1.02 0 0 Z " fill="#779F83" transform="translate(91,218)"/>
</svg>
